<svg width="58" height="57" viewBox="0 0 58 57" fill="none" xmlns="http://www.w3.org/2000/svg">
<rect x="0.5" width="57" height="57" rx="12" fill="#FF7EB6"/>
<path d="M14 15.5V42.5C14 43.6935 14.4741 44.8381 15.318 45.682C16.1619 46.5259 17.3065 47 18.5 47H42.35C42.708 47 43.0514 46.8578 43.3046 46.6046C43.5578 46.3514 43.7 46.008 43.7 45.65C43.7 45.292 43.5578 44.9486 43.3046 44.6954C43.0514 44.4422 42.708 44.3 42.35 44.3H18.5C18.0226 44.3 17.5648 44.1104 17.2272 43.7728C16.8896 43.4352 16.7 42.9774 16.7 42.5H42.35C42.708 42.5 43.0514 42.3578 43.3046 42.1046C43.5578 41.8514 43.7 41.508 43.7 41.15V15.5C43.7 14.9091 43.5836 14.3239 43.3575 13.7779C43.1313 13.232 42.7998 12.7359 42.382 12.318C41.9641 11.9002 41.468 11.5687 40.9221 11.3425C40.3761 11.1164 39.7909 11 39.2 11H18.5C17.3065 11 16.1619 11.4741 15.318 12.318C14.4741 13.1619 14 14.3065 14 15.5ZM26.6 21.8324C26.5915 22.1848 26.4456 22.5199 26.1933 22.7661C25.9411 23.0123 25.6025 23.1501 25.25 23.15C23.9 23.15 23.9 21.7982 23.9 21.7982V21.782C23.9009 21.7014 23.9058 21.6209 23.9144 21.5408C23.994 20.8455 24.2547 20.1832 24.6704 19.6202C25.4876 18.5168 26.9564 17.7086 29.3234 17.75C31.0334 17.7806 32.5508 18.497 33.5012 19.676C34.4678 20.8766 34.7936 22.502 34.1528 24.1022C33.5012 25.7312 32.027 26.3792 31.1792 26.75L31.0892 26.7914C30.5852 27.0128 30.3458 27.128 30.2018 27.2432L30.2 27.245V28.5482C30.2002 28.9062 30.0582 29.2497 29.8052 29.5031C29.5522 29.7564 29.2089 29.8989 28.8509 29.8991C28.4929 29.8993 28.1494 29.7573 27.896 29.5043C27.6427 29.2513 27.5002 28.908 27.5 28.55V27.2C27.5 26.2586 27.9536 25.5854 28.5134 25.1354C28.9634 24.7754 29.5304 24.527 29.9282 24.3506L29.9966 24.32C30.9722 23.8898 31.4366 23.6234 31.6472 23.0978C31.7708 22.8152 31.8131 22.5037 31.7692 22.1984C31.7253 21.8931 31.597 21.6061 31.3988 21.3698C30.9992 20.8748 30.2666 20.4662 29.2766 20.45C27.5936 20.4212 27.0356 20.963 26.8412 21.2276C26.7125 21.4024 26.6295 21.6066 26.6 21.8216V21.8324ZM30.65 33.5C30.65 33.9774 30.4604 34.4352 30.1228 34.7728C29.7852 35.1104 29.3274 35.3 28.85 35.3C28.3726 35.3 27.9148 35.1104 27.5772 34.7728C27.2396 34.4352 27.05 33.9774 27.05 33.5C27.05 33.0226 27.2396 32.5648 27.5772 32.2272C27.9148 31.8896 28.3726 31.7 28.85 31.7C29.3274 31.7 29.7852 31.8896 30.1228 32.2272C30.4604 32.5648 30.65 33.0226 30.65 33.5Z" fill="white"/>
</svg>
