<svg width="60" height="60" viewBox="0 0 60 60" fill="none" xmlns="http://www.w3.org/2000/svg">
<rect width="60" height="60" rx="12" fill="#BE95FF"/>
<path d="M11 18.7C11 17.1883 11.6005 15.7384 12.6695 14.6695C13.7384 13.6005 15.1883 13 16.7 13H19.55C20.0539 13 20.5372 13.2002 20.8935 13.5565C21.2498 13.9128 21.45 14.3961 21.45 14.9C21.45 15.4039 21.2498 15.8872 20.8935 16.2435C20.5372 16.5998 20.0539 16.8 19.55 16.8H16.7C16.1961 16.8 15.7128 17.0002 15.3565 17.3565C15.0002 17.7128 14.8 18.1961 14.8 18.7V21.55C14.8 22.0539 14.5998 22.5372 14.2435 22.8935C13.8872 23.2498 13.4039 23.45 12.9 23.45C12.3961 23.45 11.9128 23.2498 11.5565 22.8935C11.2002 22.5372 11 22.0539 11 21.55V18.7ZM38.55 14.9C38.55 14.3961 38.7502 13.9128 39.1065 13.5565C39.4628 13.2002 39.9461 13 40.45 13H43.3C44.8117 13 46.2616 13.6005 47.3305 14.6695C48.3995 15.7384 49 17.1883 49 18.7V21.55C49 22.0539 48.7998 22.5372 48.4435 22.8935C48.0872 23.2498 47.6039 23.45 47.1 23.45C46.5961 23.45 46.1128 23.2498 45.7565 22.8935C45.4002 22.5372 45.2 22.0539 45.2 21.55V18.7C45.2 18.1961 44.9998 17.7128 44.6435 17.3565C44.2872 17.0002 43.8039 16.8 43.3 16.8H40.45C39.9461 16.8 39.4628 16.5998 39.1065 16.2435C38.7502 15.8872 38.55 15.4039 38.55 14.9ZM12.9 36.75C13.4039 36.75 13.8872 36.9502 14.2435 37.3065C14.5998 37.6628 14.8 38.1461 14.8 38.65V41.5C14.8 42.0039 15.0002 42.4872 15.3565 42.8435C15.7128 43.1998 16.1961 43.4 16.7 43.4H19.55C20.0539 43.4 20.5372 43.6002 20.8935 43.9565C21.2498 44.3128 21.45 44.7961 21.45 45.3C21.45 45.8039 21.2498 46.2872 20.8935 46.6435C20.5372 46.9998 20.0539 47.2 19.55 47.2H16.7C15.1883 47.2 13.7384 46.5995 12.6695 45.5305C11.6005 44.4616 11 43.0117 11 41.5V38.65C11 38.1461 11.2002 37.6628 11.5565 37.3065C11.9128 36.9502 12.3961 36.75 12.9 36.75ZM47.1 36.75C47.6039 36.75 48.0872 36.9502 48.4435 37.3065C48.7998 37.6628 49 38.1461 49 38.65V41.5C49 43.0117 48.3995 44.4616 47.3305 45.5305C46.2616 46.5995 44.8117 47.2 43.3 47.2H40.45C39.9461 47.2 39.4628 46.9998 39.1065 46.6435C38.7502 46.2872 38.55 45.8039 38.55 45.3C38.55 44.7961 38.7502 44.3128 39.1065 43.9565C39.4628 43.6002 39.9461 43.4 40.45 43.4H43.3C43.8039 43.4 44.2872 43.1998 44.6435 42.8435C44.9998 42.4872 45.2 42.0039 45.2 41.5V38.65C45.2 38.1461 45.4002 37.6628 45.7565 37.3065C46.1128 36.9502 46.5961 36.75 47.1 36.75ZM18.6 20.125C19.1039 20.125 19.5872 20.3252 19.9435 20.6815C20.2998 21.0378 20.5 21.5211 20.5 22.025V38.175C20.5 38.6789 20.2998 39.1622 19.9435 39.5185C19.5872 39.8748 19.1039 40.075 18.6 40.075C18.0961 40.075 17.6128 39.8748 17.2565 39.5185C16.9002 39.1622 16.7 38.6789 16.7 38.175V22.025C16.7 21.5211 16.9002 21.0378 17.2565 20.6815C17.6128 20.3252 18.0961 20.125 18.6 20.125ZM28.1 22.025C28.1 21.5211 27.8998 21.0378 27.5435 20.6815C27.1872 20.3252 26.7039 20.125 26.2 20.125C25.6961 20.125 25.2128 20.3252 24.8565 20.6815C24.5002 21.0378 24.3 21.5211 24.3 22.025V38.175C24.3 38.6789 24.5002 39.1622 24.8565 39.5185C25.2128 39.8748 25.6961 40.075 26.2 40.075C26.7039 40.075 27.1872 39.8748 27.5435 39.5185C27.8998 39.1622 28.1 38.6789 28.1 38.175V22.025ZM33.8 20.125C34.3039 20.125 34.7872 20.3252 35.1435 20.6815C35.4998 21.0378 35.7 21.5211 35.7 22.025V38.175C35.7 38.6789 35.4998 39.1622 35.1435 39.5185C34.7872 39.8748 34.3039 40.075 33.8 40.075C33.2961 40.075 32.8128 39.8748 32.4565 39.5185C32.1002 39.1622 31.9 38.6789 31.9 38.175V22.025C31.9 21.5211 32.1002 21.0378 32.4565 20.6815C32.8128 20.3252 33.2961 20.125 33.8 20.125ZM43.3 22.025C43.3 21.5211 43.0998 21.0378 42.7435 20.6815C42.3872 20.3252 41.9039 20.125 41.4 20.125C40.8961 20.125 40.4128 20.3252 40.0565 20.6815C39.7002 21.0378 39.5 21.5211 39.5 22.025V38.175C39.5 38.6789 39.7002 39.1622 40.0565 39.5185C40.4128 39.8748 40.8961 40.075 41.4 40.075C41.9039 40.075 42.3872 39.8748 42.7435 39.5185C43.0998 39.1622 43.3 38.6789 43.3 38.175V22.025Z" fill="white"/>
</svg>
