<svg width="60" height="60" viewBox="0 0 60 60" fill="none" xmlns="http://www.w3.org/2000/svg">
<rect width="60" height="60" rx="12" fill="#8D8D8D"/>
<path d="M30.0229 11.3125C31.4298 11.3278 32.8308 11.4908 34.2051 11.7974C34.4975 11.8627 34.7621 12.0176 34.9621 12.2407C35.1621 12.4637 35.2874 12.7436 35.3206 13.0413L35.6464 15.9681C35.6924 16.3807 35.8347 16.7768 36.0616 17.1244C36.2886 17.4721 36.5941 17.7616 36.9533 17.9696C37.3126 18.1777 37.7157 18.2985 38.1302 18.3224C38.5447 18.3463 38.959 18.2725 39.3398 18.1071L42.0251 16.9283C42.2977 16.8083 42.6009 16.7758 42.8928 16.8356C43.1847 16.8953 43.4507 17.0443 43.6543 17.2618C45.5938 19.3339 47.0381 21.8189 47.8786 24.5298C47.9667 24.8147 47.9641 25.12 47.871 25.4033C47.7779 25.6866 47.5991 25.9339 47.3592 26.1111L44.9787 27.8668C44.6439 28.1127 44.3717 28.4339 44.1841 28.8045C43.9965 29.1751 43.8987 29.5846 43.8987 30C43.8987 30.4154 43.9965 30.8249 44.1841 31.1955C44.3717 31.5661 44.6439 31.8873 44.9787 32.1333L47.3611 33.887C47.6017 34.064 47.7812 34.3116 47.8746 34.5953C47.9681 34.879 47.9708 35.1848 47.8824 35.4702C47.0417 38.1809 45.5974 40.6659 43.6581 42.7382C43.4551 42.9552 43.1898 43.104 42.8987 43.1641C42.6076 43.2242 42.3051 43.1926 42.0328 43.0736L39.336 41.891C38.9557 41.7243 38.5415 41.6494 38.1269 41.6725C37.7123 41.6955 37.309 41.8159 36.9496 42.0238C36.5901 42.2317 36.2847 42.5213 36.058 42.8692C35.8312 43.217 35.6896 43.6134 35.6445 44.0262L35.3206 46.951C35.2879 47.2455 35.1651 47.5227 34.9688 47.7447C34.7726 47.9667 34.5125 48.1226 34.2243 48.1911C31.4481 48.8516 28.5556 48.8516 25.7794 48.1911C25.4912 48.1226 25.2311 47.9667 25.0349 47.7447C24.8386 47.5227 24.7158 47.2455 24.6831 46.951L24.3611 44.03C24.3141 43.6183 24.1712 43.2233 23.9439 42.8768C23.7165 42.5304 23.411 42.2421 23.052 42.0351C22.6929 41.8282 22.2903 41.7084 21.8766 41.6854C21.4628 41.6623 21.0494 41.7367 20.6696 41.9025L17.9748 43.0832C17.7022 43.2026 17.3992 43.2344 17.1078 43.1744C16.8163 43.1143 16.5507 42.9652 16.3475 42.7477C14.4073 40.6732 12.9629 38.1856 12.1232 35.4721C12.0348 35.1867 12.0375 34.881 12.131 34.5972C12.2244 34.3135 12.4039 34.0659 12.6445 33.8889L15.0269 32.1333C15.362 31.8876 15.6346 31.5664 15.8224 31.1958C16.0103 30.8252 16.1082 30.4155 16.1082 30C16.1082 29.5845 16.0103 29.1748 15.8224 28.8042C15.6346 28.4336 15.362 28.1124 15.0269 27.8668L12.6445 26.1149C12.4042 25.9377 12.2251 25.69 12.132 25.4063C12.039 25.1226 12.0365 24.8169 12.1251 24.5318C12.9656 21.8209 14.4099 19.3359 16.3494 17.2638C16.5529 17.0462 16.819 16.8973 17.1109 16.8375C17.4027 16.7778 17.706 16.8102 17.9786 16.9303L20.6619 18.109C21.0434 18.2744 21.4583 18.3479 21.8733 18.3238C22.2884 18.2997 22.692 18.1786 23.0518 17.9702C23.4115 17.7618 23.7174 17.472 23.9448 17.1239C24.1722 16.7759 24.3148 16.3793 24.3611 15.9662L24.6869 13.0413C24.7198 12.743 24.8453 12.4625 25.0456 12.239C25.246 12.0156 25.5113 11.8605 25.8043 11.7955C27.1786 11.4908 28.5835 11.3297 30.0229 11.3125ZM29.9999 24.25C28.4749 24.25 27.0124 24.8558 25.9341 25.9341C24.8557 27.0125 24.2499 28.475 24.2499 30C24.2499 31.525 24.8557 32.9875 25.9341 34.0659C27.0124 35.1442 28.4749 35.75 29.9999 35.75C31.5249 35.75 32.9875 35.1442 34.0658 34.0659C35.1441 32.9875 35.7499 31.525 35.7499 30C35.7499 28.475 35.1441 27.0125 34.0658 25.9341C32.9875 24.8558 31.5249 24.25 29.9999 24.25Z" fill="white"/>
</svg>
