<svg width="58" height="57" viewBox="0 0 58 57" fill="none" xmlns="http://www.w3.org/2000/svg">
<rect x="0.5" width="57" height="57" rx="12" fill="#08BDBA"/>
<path d="M29.0001 11.75C32.4786 11.7501 35.8758 12.8018 38.7459 14.7671C41.616 16.7325 43.8249 19.5196 45.0827 22.7628C46.3404 26.006 46.5883 29.5536 45.7937 32.9402C44.9992 36.3267 43.1994 39.394 40.6304 41.7393C38.0615 44.0847 34.8435 45.5986 31.3988 46.0824C27.9541 46.5662 24.4436 45.9972 21.3281 44.4502C18.2125 42.9032 15.6374 40.4503 13.9408 37.4136C12.2441 34.377 11.5052 30.8983 11.821 27.4341C11.8436 27.1834 11.9155 26.9396 12.0323 26.7167C12.1492 26.4938 12.3088 26.296 12.5021 26.1348C12.6954 25.9735 12.9185 25.8519 13.1588 25.7769C13.3991 25.7019 13.6518 25.675 13.9025 25.6976C14.1532 25.7203 14.397 25.7921 14.6199 25.9089C14.8428 26.0258 15.0406 26.1854 15.2018 26.3787C15.3631 26.572 15.4847 26.7952 15.5597 27.0354C15.6347 27.2757 15.6616 27.5284 15.639 27.7791C15.4547 29.7392 15.7064 31.7159 16.3761 33.5673C17.0458 35.4187 18.1169 37.0989 19.5126 38.4875C20.2313 39.2063 21.0306 39.8426 21.8931 40.3812C24.0292 41.7147 26.4976 42.4202 29.0158 42.4169C31.534 42.4135 34.0005 41.7015 36.1331 40.3623C38.2657 39.0231 39.9783 37.1107 41.0752 34.8439C42.172 32.5771 42.6087 30.0474 42.3354 27.544C42.0621 25.0407 41.0898 22.6648 39.5296 20.688C37.9695 18.7113 35.8845 17.2136 33.5132 16.3661C31.1418 15.5186 28.5798 15.3557 26.1202 15.8958C23.6606 16.436 21.4026 17.6574 19.6046 19.4205L22.2879 19.4224C22.7792 19.4191 23.2531 19.6045 23.6116 19.9405C23.9701 20.2764 24.1859 20.7373 24.2144 21.2277C24.243 21.7182 24.0821 22.201 23.7649 22.5762C23.4478 22.9515 22.9986 23.1906 22.5102 23.2443L22.2879 23.2558H14.6174C14.148 23.2557 13.6948 23.0834 13.344 22.7714C12.9932 22.4594 12.7691 22.0296 12.7142 21.5634L12.7007 21.3391V13.6724C12.6974 13.1811 12.8828 12.7073 13.2188 12.3488C13.5547 11.9903 14.0156 11.7744 14.5061 11.7459C14.9965 11.7174 15.4793 11.8783 15.8545 12.1954C16.2298 12.5126 16.4689 12.9617 16.5226 13.4501L16.5341 13.6744V17.0745C18.1435 15.3897 20.0783 14.0491 22.221 13.1338C24.3638 12.2186 26.67 11.7478 29.0001 11.75ZM27.5626 19.4167C27.9099 19.4167 28.2456 19.5425 28.5074 19.7708C28.7692 19.9991 28.9394 20.3145 28.9867 20.6587L29.0001 20.8542V29H33.3126C33.6768 29.0001 34.0274 29.1385 34.2935 29.3871C34.5596 29.6358 34.7215 29.9762 34.7463 30.3395C34.7711 30.7029 34.6571 31.0622 34.4272 31.3447C34.1974 31.6272 33.8689 31.812 33.5081 31.8616L33.3126 31.875H27.5626C27.2152 31.875 26.8796 31.7492 26.6178 31.5209C26.356 31.2926 26.1857 30.9772 26.1385 30.633L26.1251 30.4375V20.8542C26.1251 20.4729 26.2765 20.1073 26.5461 19.8377C26.8157 19.5681 27.1813 19.4167 27.5626 19.4167Z" fill="white"/>
</svg>
