<svg width="58" height="57" viewBox="0 0 58 57" fill="none" xmlns="http://www.w3.org/2000/svg">
<rect x="0.5" width="57" height="57" rx="12" fill="#08BDBA"/>
<path d="M21.8201 21.339C23.6735 21.339 25.1743 22.8417 25.1743 24.6932V42.9015C25.1743 43.7911 24.8209 44.6442 24.1918 45.2733C23.5628 45.9023 22.7097 46.2557 21.8201 46.2557H13.1874C12.2978 46.2557 11.4447 45.9023 10.8157 45.2733C10.1866 44.6442 9.83325 43.7911 9.83325 42.9015V24.6932C9.83325 22.8417 11.3359 21.339 13.1874 21.339H21.8201ZM17.9829 39.5377H17.0246C16.6433 39.5377 16.2777 39.6892 16.0081 39.9588C15.7385 40.2284 15.5871 40.594 15.5871 40.9752C15.5871 41.3565 15.7385 41.7221 16.0081 41.9917C16.2777 42.2613 16.6433 42.4127 17.0246 42.4127H17.9829C18.3642 42.4127 18.7298 42.2613 18.9994 41.9917C19.269 41.7221 19.4204 41.3565 19.4204 40.9752C19.4204 40.594 19.269 40.2284 18.9994 39.9588C18.7298 39.6892 18.3642 39.5377 17.9829 39.5377ZM46.7291 37.6249C47.0933 37.625 47.4439 37.7634 47.71 38.012C47.9761 38.2607 48.138 38.6011 48.1628 38.9644C48.1876 39.3278 48.0736 39.687 47.8438 39.9696C47.6139 40.2521 47.2854 40.4369 46.9246 40.4865L46.7291 40.4999H27.0833V37.6249H46.7291ZM40.9791 15.5833C42.8306 15.5833 44.3333 17.0859 44.3333 18.9374V33.3124C44.3333 34.202 43.9799 35.0551 43.3508 35.6842C42.7218 36.3132 41.8687 36.6666 40.9791 36.6666H27.0833V23.2499C27.0831 22.2831 26.7176 21.3521 26.0601 20.6434C25.4025 19.9347 24.5015 19.5006 23.5374 19.4281L23.2499 19.4166H13.6666V18.9374C13.6666 17.0859 15.1693 15.5833 17.0208 15.5833H40.9791Z" fill="white"/>
</svg>
