<svg width="69" height="69" viewBox="0 0 69 69" fill="none" xmlns="http://www.w3.org/2000/svg">
<rect y="9" width="60" height="60" rx="12" fill="#42BE65"/>
<rect x="46" width="23" height="23" rx="11.5" fill="#FA4D56"/>
<path d="M56.5962 16.9927C56.5962 16.823 56.5962 16.6485 56.5962 16.4691C56.5962 16.2848 56.601 16.0958 56.6107 15.9018C56.6204 15.3394 56.6253 14.7091 56.6253 14.0109C56.6253 13.3176 56.5962 12.5806 56.538 11.8C56.4847 11.0194 56.3877 10.2097 56.2471 9.37091C56.1113 8.52727 55.9101 7.67879 55.6435 6.82545L56.9453 6.40364C57.2313 7.3103 57.4471 8.20727 57.5926 9.09455C57.7429 9.97697 57.8471 10.8279 57.9053 11.6473C57.9683 12.4618 57.9998 13.2303 57.9998 13.9527C57.9998 14.68 57.995 15.337 57.9853 15.9236C57.9756 16.1176 57.9707 16.3042 57.9707 16.4836C57.9707 16.663 57.9707 16.8327 57.9707 16.9927H56.5962Z" fill="white"/>
<path d="M49.1666 38.9999C49.1666 28.4142 40.5857 19.8333 29.9999 19.8333C19.4142 19.8333 10.8333 28.4142 10.8333 38.9999C10.829 42.105 11.5823 45.1643 13.0279 47.9124L10.8889 56.133C10.8176 56.4078 10.8193 56.6965 10.894 56.9704C10.9686 57.2443 11.1135 57.494 11.3144 57.6946C11.5152 57.8953 11.765 58.04 12.039 58.1144C12.313 58.1887 12.6017 58.1902 12.8764 58.1187L21.0989 55.9778C23.8441 57.4194 26.8992 58.1707 29.9999 58.1666C40.5857 58.1666 49.1666 49.5857 49.1666 38.9999Z" fill="white"/>
</svg>
