<svg width="58" height="57" viewBox="0 0 58 57" fill="none" xmlns="http://www.w3.org/2000/svg">
<rect x="0.5" width="57" height="57" rx="12" fill="#BE95FF"/>
<path d="M29.4 21.8V11H18.6C17.6452 11 16.7295 11.3793 16.0544 12.0544C15.3793 12.7295 15 13.6452 15 14.6V43.4C15 44.3548 15.3793 45.2705 16.0544 45.9456C16.7295 46.6207 17.6452 47 18.6 47H40.2C41.1548 47 42.0705 46.6207 42.7456 45.9456C43.4207 45.2705 43.8 44.3548 43.8 43.4V25.4H33C32.0452 25.4 31.1295 25.0207 30.4544 24.3456C29.7793 23.6705 29.4 22.7548 29.4 21.8ZM20.4 29.45C20.4 29.092 20.5422 28.7486 20.7954 28.4954C21.0486 28.2422 21.392 28.1 21.75 28.1C22.108 28.1 22.4514 28.2422 22.7046 28.4954C22.9578 28.7486 23.1 29.092 23.1 29.45C23.1 29.808 22.9578 30.1514 22.7046 30.4046C22.4514 30.6578 22.108 30.8 21.75 30.8C21.392 30.8 21.0486 30.6578 20.7954 30.4046C20.5422 30.1514 20.4 29.808 20.4 29.45ZM20.4 34.85C20.4 34.492 20.5422 34.1486 20.7954 33.8954C21.0486 33.6422 21.392 33.5 21.75 33.5C22.108 33.5 22.4514 33.6422 22.7046 33.8954C22.9578 34.1486 23.1 34.492 23.1 34.85C23.1 35.208 22.9578 35.5514 22.7046 35.8046C22.4514 36.0578 22.108 36.2 21.75 36.2C21.392 36.2 21.0486 36.0578 20.7954 35.8046C20.5422 35.5514 20.4 35.208 20.4 34.85ZM20.4 40.25C20.4 39.892 20.5422 39.5486 20.7954 39.2954C21.0486 39.0422 21.392 38.9 21.75 38.9C22.108 38.9 22.4514 39.0422 22.7046 39.2954C22.9578 39.5486 23.1 39.892 23.1 40.25C23.1 40.608 22.9578 40.9514 22.7046 41.2046C22.4514 41.4578 22.108 41.6 21.75 41.6C21.392 41.6 21.0486 41.4578 20.7954 41.2046C20.5422 40.9514 20.4 40.608 20.4 40.25ZM25.8 29.45C25.8 29.092 25.9422 28.7486 26.1954 28.4954C26.4486 28.2422 26.792 28.1 27.15 28.1H37.05C37.408 28.1 37.7514 28.2422 38.0046 28.4954C38.2578 28.7486 38.4 29.092 38.4 29.45C38.4 29.808 38.2578 30.1514 38.0046 30.4046C37.7514 30.6578 37.408 30.8 37.05 30.8H27.15C26.792 30.8 26.4486 30.6578 26.1954 30.4046C25.9422 30.1514 25.8 29.808 25.8 29.45ZM25.8 34.85C25.8 34.492 25.9422 34.1486 26.1954 33.8954C26.4486 33.6422 26.792 33.5 27.15 33.5H37.05C37.408 33.5 37.7514 33.6422 38.0046 33.8954C38.2578 34.1486 38.4 34.492 38.4 34.85C38.4 35.208 38.2578 35.5514 38.0046 35.8046C37.7514 36.0578 37.408 36.2 37.05 36.2H27.15C26.792 36.2 26.4486 36.0578 26.1954 35.8046C25.9422 35.5514 25.8 35.208 25.8 34.85ZM25.8 40.25C25.8 39.892 25.9422 39.5486 26.1954 39.2954C26.4486 39.0422 26.792 38.9 27.15 38.9H37.05C37.408 38.9 37.7514 39.0422 38.0046 39.2954C38.2578 39.5486 38.4 39.892 38.4 40.25C38.4 40.608 38.2578 40.9514 38.0046 41.2046C37.7514 41.4578 37.408 41.6 37.05 41.6H27.15C26.792 41.6 26.4486 41.4578 26.1954 41.2046C25.9422 40.9514 25.8 40.608 25.8 40.25ZM32.1 21.8V11.9L42.9 22.7H33C32.7613 22.7 32.5324 22.6052 32.3636 22.4364C32.1948 22.2676 32.1 22.0387 32.1 21.8Z" fill="white"/>
</svg>
