<svg width="58" height="57" viewBox="0 0 58 57" fill="none" xmlns="http://www.w3.org/2000/svg">
<rect x="0.5" width="57" height="57" rx="12" fill="#FF8389"/>
<path d="M32.55 11H26.25C25.2538 11 24.2926 11.3672 23.5501 12.0313C22.8076 12.6955 22.3359 13.61 22.2252 14.6H19.05C17.9759 14.6 16.9457 15.0267 16.1862 15.7862C15.4267 16.5457 15 17.5759 15 18.65V42.95C15 44.0241 15.4267 45.0543 16.1862 45.8138C16.9457 46.5733 17.9759 47 19.05 47H39.75C40.2819 47 40.8085 46.8952 41.2999 46.6917C41.7912 46.4882 42.2377 46.1899 42.6138 45.8138C42.9899 45.4377 43.2882 44.9912 43.4917 44.4999C43.6952 44.0085 43.8 43.4819 43.8 42.95V18.65C43.8 18.1181 43.6952 17.5915 43.4917 17.1001C43.2882 16.6088 42.9899 16.1623 42.6138 15.7862C42.2377 15.4101 41.7912 15.1118 41.2999 14.9083C40.8085 14.7048 40.2819 14.6 39.75 14.6H36.5748C36.4641 13.61 35.9924 12.6955 35.2499 12.0313C34.5074 11.3672 33.5462 11 32.55 11ZM26.25 13.7H32.55C32.908 13.7 33.2514 13.8422 33.5046 14.0954C33.7578 14.3486 33.9 14.692 33.9 15.05C33.9 15.408 33.7578 15.7514 33.5046 16.0046C33.2514 16.2578 32.908 16.4 32.55 16.4H26.25C25.892 16.4 25.5486 16.2578 25.2954 16.0046C25.0422 15.7514 24.9 15.408 24.9 15.05C24.9 14.692 25.0422 14.3486 25.2954 14.0954C25.5486 13.8422 25.892 13.7 26.25 13.7ZM38.904 23.096C39.1568 23.3491 39.2988 23.6922 39.2988 24.05C39.2988 24.4078 39.1568 24.7509 38.904 25.004L35.304 28.604C35.0509 28.8568 34.7078 28.9988 34.35 28.9988C33.9922 28.9988 33.6491 28.8568 33.396 28.604L31.596 26.804C31.4634 26.6804 31.357 26.5314 31.2832 26.3658C31.2094 26.2002 31.1697 26.0214 31.1665 25.8401C31.1633 25.6589 31.1967 25.4788 31.2646 25.3107C31.3325 25.1426 31.4335 24.9899 31.5617 24.8617C31.6899 24.7335 31.8426 24.6325 32.0107 24.5646C32.1788 24.4967 32.3589 24.4633 32.5401 24.4665C32.7214 24.4697 32.9002 24.5094 33.0658 24.5832C33.2314 24.657 33.3804 24.7634 33.504 24.896L34.35 25.742L36.996 23.096C37.2491 22.8432 37.5922 22.7012 37.95 22.7012C38.3078 22.7012 38.6509 22.8432 38.904 23.096ZM38.904 34.904L35.304 38.504C35.0509 38.7568 34.7078 38.8988 34.35 38.8988C33.9922 38.8988 33.6491 38.7568 33.396 38.504L31.596 36.704C31.4634 36.5804 31.357 36.4314 31.2832 36.2658C31.2094 36.1002 31.1697 35.9214 31.1665 35.7401C31.1633 35.5589 31.1967 35.3788 31.2646 35.2107C31.3325 35.0426 31.4335 34.8899 31.5617 34.7617C31.6899 34.6335 31.8426 34.5325 32.0107 34.4646C32.1788 34.3967 32.3589 34.3633 32.5401 34.3665C32.7214 34.3697 32.9002 34.4094 33.0658 34.4832C33.2314 34.557 33.3804 34.6634 33.504 34.796L34.35 35.642L36.996 32.996C37.1196 32.8634 37.2686 32.757 37.4342 32.6832C37.5998 32.6094 37.7786 32.5697 37.9599 32.5665C38.1411 32.5633 38.3212 32.5967 38.4893 32.6646C38.6574 32.7325 38.8101 32.8335 38.9383 32.9617C39.0665 33.0899 39.1675 33.2426 39.2354 33.4107C39.3033 33.5788 39.3367 33.7589 39.3335 33.9401C39.3303 34.1214 39.2906 34.3002 39.2168 34.4658C39.143 34.6314 39.0366 34.7804 38.904 34.904ZM20.4 25.85C20.4 25.492 20.5422 25.1486 20.7954 24.8954C21.0486 24.6422 21.392 24.5 21.75 24.5H28.05C28.408 24.5 28.7514 24.6422 29.0046 24.8954C29.2578 25.1486 29.4 25.492 29.4 25.85C29.4 26.208 29.2578 26.5514 29.0046 26.8046C28.7514 27.0578 28.408 27.2 28.05 27.2H21.75C21.392 27.2 21.0486 27.0578 20.7954 26.8046C20.5422 26.5514 20.4 26.208 20.4 25.85ZM21.75 34.4H28.05C28.408 34.4 28.7514 34.5422 29.0046 34.7954C29.2578 35.0486 29.4 35.392 29.4 35.75C29.4 36.108 29.2578 36.4514 29.0046 36.7046C28.7514 36.9578 28.408 37.1 28.05 37.1H21.75C21.392 37.1 21.0486 36.9578 20.7954 36.7046C20.5422 36.4514 20.4 36.108 20.4 35.75C20.4 35.392 20.5422 35.0486 20.7954 34.7954C21.0486 34.5422 21.392 34.4 21.75 34.4Z" fill="white"/>
</svg>
