<svg width="58" height="57" viewBox="0 0 58 57" fill="none" xmlns="http://www.w3.org/2000/svg">
<rect x="0.5" width="57" height="57" rx="12" fill="#33B1FF"/>
<path d="M34.2708 34.75C36.1223 34.75 37.6249 36.2527 37.6249 38.1042L37.623 39.948C37.8473 44.1455 34.7269 46.2673 29.1283 46.2673C23.5508 46.2673 20.3749 44.1781 20.3749 40.0208V38.1042C20.3749 36.2527 21.8776 34.75 23.7291 34.75H34.2708ZM13.1874 25.1667H21.5748C21.2403 26.4681 21.2532 27.8344 21.6121 29.1293C21.9709 30.4242 22.6632 31.6022 23.6198 32.5458L23.9303 32.8353L23.7291 32.8333C22.5788 32.8329 21.4599 33.2088 20.5432 33.9037C19.6264 34.5986 18.9622 35.5743 18.6518 36.682L18.5867 36.6839C13.0092 36.6839 9.83325 34.5947 9.83325 30.4375V28.5208C9.83325 26.6693 11.3359 25.1667 13.1874 25.1667ZM44.8124 25.1667C46.6639 25.1667 48.1666 26.6693 48.1666 28.5208L48.1647 30.3647C48.3889 34.5622 45.2686 36.6839 39.67 36.6839L39.3461 36.6801C39.0514 35.6361 38.4425 34.7081 37.602 34.0223C36.7615 33.3364 35.7302 32.926 34.6483 32.8467L34.2708 32.8333L34.0695 32.8353C35.1335 31.9007 35.9171 30.6891 36.333 29.3355C36.7489 27.9818 36.7808 26.5393 36.4251 25.1686L44.8124 25.1667ZM28.9999 21.3333C29.755 21.3333 30.5027 21.4821 31.2003 21.771C31.898 22.06 32.5318 22.4835 33.0658 23.0175C33.5997 23.5514 34.0233 24.1853 34.3122 24.8829C34.6012 25.5805 34.7499 26.3282 34.7499 27.0833C34.7499 27.8384 34.6012 28.5861 34.3122 29.2838C34.0233 29.9814 33.5997 30.6153 33.0658 31.1492C32.5318 31.6831 31.898 32.1067 31.2003 32.3956C30.5027 32.6846 29.755 32.8333 28.9999 32.8333C27.4749 32.8333 26.0124 32.2275 24.9341 31.1492C23.8557 30.0709 23.2499 28.6083 23.2499 27.0833C23.2499 25.5583 23.8557 24.0958 24.9341 23.0175C26.0124 21.9391 27.4749 21.3333 28.9999 21.3333ZM18.4583 11.75C19.9832 11.75 21.4458 12.3558 22.5241 13.4341C23.6025 14.5125 24.2083 15.975 24.2083 17.5C24.2083 19.025 23.6025 20.4875 22.5241 21.5659C21.4458 22.6442 19.9832 23.25 18.4583 23.25C16.9333 23.25 15.4707 22.6442 14.3924 21.5659C13.3141 20.4875 12.7083 19.025 12.7083 17.5C12.7083 15.975 13.3141 14.5125 14.3924 13.4341C15.4707 12.3558 16.9333 11.75 18.4583 11.75ZM39.5416 11.75C41.0666 11.75 42.5291 12.3558 43.6074 13.4341C44.6858 14.5125 45.2916 15.975 45.2916 17.5C45.2916 19.025 44.6858 20.4875 43.6074 21.5659C42.5291 22.6442 41.0666 23.25 39.5416 23.25C38.0166 23.25 36.5541 22.6442 35.4757 21.5659C34.3974 20.4875 33.7916 19.025 33.7916 17.5C33.7916 15.975 34.3974 14.5125 35.4757 13.4341C36.5541 12.3558 38.0166 11.75 39.5416 11.75Z" fill="white"/>
</svg>
