<svg width="58" height="57" viewBox="0 0 58 57" fill="none" xmlns="http://www.w3.org/2000/svg">
<rect x="0.5" width="57" height="57" rx="12" fill="#FF8389"/>
<path d="M33.0467 12C33.3729 12 33.688 12.1181 33.9338 12.3325C34.1797 12.5469 34.3395 12.8431 34.3839 13.1662L34.3965 13.3498V14.7032C34.3965 15.8424 34.0437 16.8989 33.4426 17.7699C34.6972 18.2017 35.7966 18.9936 36.6036 20.0467C37.4105 21.0998 37.8892 22.3674 37.9798 23.691H38.4405C39.5141 23.6863 40.542 23.2553 41.2979 22.4929C42.0539 21.7305 42.4762 20.6991 42.4719 19.6255L42.4611 16.9529C42.4597 16.5949 42.6005 16.251 42.8526 15.9968C43.1047 15.7427 43.4475 15.5991 43.8055 15.5977C44.1635 15.5962 44.5074 15.7371 44.7615 15.9892C45.0157 16.2413 45.1592 16.5841 45.1607 16.9421L45.1733 19.6147C45.1807 21.3429 44.5248 23.0082 43.3408 24.2672C42.1568 25.5262 40.5349 26.283 38.8094 26.3816L38.4243 26.3924L37.996 26.3906V29.0938H45.6502C45.9767 29.0939 46.292 29.2123 46.5379 29.427C46.7837 29.6418 46.9434 29.9384 46.9874 30.2619L47 30.4454C47 30.7716 46.8819 31.0868 46.6675 31.3326C46.4531 31.5784 46.1569 31.7383 45.8338 31.7826L45.6502 31.7952H37.996V35.3929H38.4243L38.8094 35.4055C40.4727 35.5008 42.0419 36.2079 43.2151 37.3907C44.3883 38.5736 45.0826 40.1485 45.1643 41.8125L45.1733 42.1725L45.1607 44.8451C45.1575 45.186 45.0254 45.5132 44.7909 45.7607C44.5564 46.0083 44.2369 46.1579 43.8967 46.1796C43.5564 46.2012 43.2205 46.0933 42.9565 45.8774C42.6926 45.6616 42.5201 45.3539 42.4737 45.016L42.4611 44.8325L42.4737 42.1599C42.4777 41.1339 42.0922 40.1447 41.395 39.392C40.6978 38.6394 39.7409 38.1794 38.7176 38.1051L38.4405 38.0943H37.5838C37.0086 39.9209 35.8658 41.5164 34.3216 42.6491C32.7775 43.7817 30.9123 44.3924 28.9973 44.3924C27.0823 44.3924 25.2171 43.7817 23.673 42.6491C22.1288 41.5164 20.986 39.9209 20.4108 38.0943H19.5307C18.4571 38.099 17.4292 38.53 16.6733 39.2924C15.9173 40.0548 15.495 41.0862 15.4993 42.1599L15.5083 44.8325C15.5092 45.0097 15.4751 45.1854 15.408 45.3495C15.3409 45.5136 15.2422 45.6628 15.1174 45.7888C14.9927 45.9147 14.8443 46.0148 14.6809 46.0834C14.5174 46.152 14.3421 46.1877 14.1648 46.1886C13.9876 46.1894 13.8119 46.1553 13.6478 46.0882C13.4837 46.0212 13.3345 45.9224 13.2085 45.7977C13.0826 45.6729 12.9825 45.5246 12.9139 45.3611C12.8453 45.1977 12.8096 45.0223 12.8087 44.8451L12.7997 42.1707C12.7923 40.4427 13.4479 38.7777 14.6315 37.5187C15.8152 36.2597 17.4366 35.5027 19.1618 35.4037L19.5487 35.3947L19.9987 35.3929V31.7934H12.3498C12.0236 31.7934 11.7085 31.6753 11.4627 31.4609C11.2168 31.2465 11.057 30.9504 11.0126 30.6272L11 30.4454C11 30.1193 11.1181 29.8041 11.3325 29.5583C11.5469 29.3125 11.8431 29.1526 12.1662 29.1082L12.3498 29.0956L19.9987 29.0938V26.3906H19.5487L19.1618 26.3816C17.4988 26.2859 15.93 25.5786 14.7572 24.3958C13.5844 23.213 12.8904 21.6383 12.8087 19.9746L12.7997 19.6129L12.8105 16.9403C12.8099 16.5968 12.9402 16.2661 13.1749 16.0154C13.4096 15.7647 13.7311 15.6129 14.0738 15.5908C14.4165 15.5688 14.7547 15.6783 15.0196 15.8969C15.2844 16.1155 15.456 16.4268 15.4993 16.7675L15.5101 16.9511L15.4993 19.6255C15.4948 20.6517 15.8801 21.6414 16.5774 22.3945C17.2746 23.1475 18.2318 23.6077 19.2554 23.682L19.5325 23.6928H20.0148C20.1054 22.3688 20.584 21.1007 21.3909 20.047C22.1978 18.9933 23.2973 18.2007 24.552 17.7681C24 16.9738 23.674 16.0445 23.6089 15.0793L23.5981 14.7032V13.3498C23.5982 13.0078 23.7281 12.6786 23.9616 12.4287C24.1951 12.1788 24.5147 12.0269 24.8559 12.0036C25.1971 11.9802 25.5344 12.0873 25.7997 12.3031C26.065 12.519 26.2385 12.8274 26.2851 13.1662L26.2977 13.3498V14.7032C26.2976 15.3966 26.5643 16.0635 27.0426 16.5656C27.5209 17.0677 28.174 17.3665 28.8667 17.4001C29.5593 17.4336 30.2383 17.1994 30.7629 16.7459C31.2874 16.2923 31.6174 15.6544 31.6843 14.9642L31.6969 14.7032V13.3498C31.6969 12.9918 31.8391 12.6485 32.0922 12.3953C32.3454 12.1422 32.6887 12 33.0467 12Z" fill="white"/>
</svg>
