<svg width="60" height="60" viewBox="0 0 60 60" fill="none" xmlns="http://www.w3.org/2000/svg">
<rect width="60" height="60" rx="12" fill="#33B1FF"/>
<path d="M10.8333 27.125C10.834 24.0216 11.8389 21.0018 13.698 18.5169C15.557 16.032 18.1703 14.2155 21.1472 13.3387C24.1242 12.462 27.3049 12.5722 30.214 13.6529C33.1231 14.7336 35.6044 16.7266 37.287 19.3343C38.9696 21.9419 39.7631 25.024 39.549 28.1199C39.3349 31.2159 38.1246 34.1594 36.0991 36.5106C34.0736 38.8618 31.3416 40.4943 28.3114 41.1642C25.2812 41.8342 22.1156 41.5055 19.2877 40.2273C16.8765 40.7831 14.2794 41.2623 13.0853 41.477C12.7802 41.5315 12.4663 41.5109 12.1709 41.4169C11.8755 41.323 11.6074 41.1585 11.3898 40.9377C11.1723 40.7169 11.0117 40.4464 10.9221 40.1497C10.8325 39.8529 10.8164 39.5388 10.8754 39.2345C11.1016 38.0653 11.6038 35.5583 12.1807 33.2104C11.2904 31.3054 10.8303 29.2278 10.8333 27.125ZM22.6093 19.0884C21.7621 19.5407 21.0951 20.2441 20.591 21.1776C20.426 21.511 20.3967 21.8955 20.5093 22.25C20.6219 22.6046 20.8676 22.9018 21.1947 23.079C21.5218 23.2562 21.9049 23.2997 22.2634 23.2003C22.622 23.1009 22.928 22.8664 23.1172 22.5461C23.3989 22.0286 23.6883 21.7717 23.9643 21.6261C24.2518 21.4708 24.6428 21.3769 25.2083 21.3769C25.6376 21.3769 26.1417 21.5283 26.5116 21.8331C26.8394 22.1014 27.1249 22.5307 27.1249 23.2916C27.1249 23.6654 26.9812 23.8379 25.9979 24.6103C25.1354 25.2888 23.7708 26.389 23.7708 28.5625C23.7708 28.9437 23.9222 29.3094 24.1918 29.5789C24.4614 29.8485 24.827 30 25.2083 30C25.5895 30 25.9551 29.8485 26.2247 29.5789C26.4943 29.3094 26.6458 28.9437 26.6458 28.5625C26.6458 27.8533 26.9601 27.5102 27.7728 26.8701L27.9357 26.7455C28.6774 26.1743 29.9999 25.1604 29.9999 23.2916C29.9999 21.6663 29.3272 20.4205 28.3363 19.6078C27.4495 18.8946 26.3463 18.5046 25.2083 18.5019C24.3362 18.5019 23.4411 18.6437 22.6093 19.0884ZM27.1249 33.8333C27.1249 33.325 26.923 32.8375 26.5636 32.478C26.2041 32.1186 25.7166 31.9166 25.2083 31.9166C24.6999 31.9166 24.2124 32.1186 23.853 32.478C23.4935 32.8375 23.2916 33.325 23.2916 33.8333C23.2916 34.3416 23.4935 34.8292 23.853 35.1886C24.2124 35.548 24.6999 35.75 25.2083 35.75C25.7166 35.75 26.2041 35.548 26.5636 35.1886C26.923 34.8292 27.1249 34.3416 27.1249 33.8333Z" fill="white"/>
<path d="M25.0166 43.4167C27.6723 45.8856 31.1655 47.2555 34.7916 47.2501C36.8999 47.2501 38.9048 46.7958 40.7122 45.9774C43.1272 46.5332 45.7358 47.0124 46.9375 47.2232C47.2432 47.2772 47.5574 47.2558 47.853 47.1609C48.1485 47.0659 48.4165 46.9004 48.6336 46.6786C48.8507 46.4567 49.0105 46.1853 49.099 45.8877C49.1876 45.5902 49.2022 45.2756 49.1417 44.9711C48.7441 42.9583 48.3031 40.9543 47.8192 38.9605C48.6714 37.1357 49.1309 35.1524 49.1678 33.1388C49.2048 31.1252 48.8184 29.1263 48.0336 27.2715C47.2489 25.4168 46.0834 23.7475 44.6125 22.3719C43.1416 20.9962 41.3982 19.9449 39.4951 19.2859C40.8651 21.7814 41.5573 24.5923 41.5028 27.4385C41.4482 30.2848 40.6488 33.0671 39.1841 35.5082C37.7194 37.9494 35.6407 39.9641 33.1549 41.3517C30.6692 42.7392 27.8632 43.4512 25.0166 43.4167Z" fill="white"/>
</svg>
