<svg width="58" height="57" viewBox="0 0 58 57" fill="none" xmlns="http://www.w3.org/2000/svg">
<rect x="0.5" width="57" height="57" rx="12" fill="#BE95FF"/>
<path d="M23.7216 25.1667C21.8701 25.1667 20.3674 26.6693 20.3674 28.5208V37.6231C20.3674 39.9111 21.2763 42.1054 22.8942 43.7232C24.512 45.3411 26.7063 46.25 28.9943 46.25C31.2823 46.25 33.4766 45.3411 35.0945 43.7232C36.7123 42.1054 37.6212 39.9111 37.6212 37.6231V28.5208C37.6212 26.6693 36.1205 25.1667 34.2671 25.1667H23.7216V25.1667ZM38.3323 25.1667C39.0032 25.9755 39.4344 26.9875 39.5207 28.0992L39.5398 28.5208V37.6231C39.5398 39.2465 39.1718 40.7837 38.5163 42.156C39.6524 42.4599 40.8431 42.4985 41.9964 42.2687C43.1498 42.039 44.2348 41.547 45.1676 40.8309C46.1005 40.1149 46.8562 39.1938 47.3762 38.1391C47.8962 37.0843 48.1667 35.9241 48.1667 34.7481V28.5208C48.1667 27.6791 47.8502 26.8681 47.2799 26.2488C46.7097 25.6296 45.9275 25.2474 45.0886 25.1782L44.8126 25.1667H38.3323V25.1667ZM19.6563 25.1667H13.1876C11.3361 25.1667 9.83342 26.6693 9.83342 28.5208V34.75C9.83315 35.9252 10.1031 37.0848 10.6223 38.1391C11.1416 39.1934 11.8963 40.1142 12.8281 40.8304C13.7599 41.5465 14.8439 42.0389 15.9963 42.2694C17.1487 42.5 18.3386 42.4625 19.4742 42.1598C18.8992 40.9562 18.5466 39.6298 18.468 38.2268L18.4507 37.6231V28.5208C18.4507 27.2462 18.9031 26.0771 19.6582 25.1667H19.6563ZM29.0001 11.75C27.4751 11.75 26.0126 12.3558 24.9342 13.4341C23.8559 14.5125 23.2501 15.975 23.2501 17.5C23.2501 19.025 23.8559 20.4875 24.9342 21.5659C26.0126 22.6442 27.4751 23.25 29.0001 23.25C30.5251 23.25 31.9876 22.6442 33.0659 21.5659C34.1443 20.4875 34.7501 19.025 34.7501 17.5C34.7501 15.975 34.1443 14.5125 33.0659 13.4341C31.9876 12.3558 30.5251 11.75 29.0001 11.75V11.75ZM16.5417 13.6667C15.2709 13.6667 14.0521 14.1715 13.1535 15.0701C12.2549 15.9687 11.7501 17.1875 11.7501 18.4583C11.7501 19.7292 12.2549 20.9479 13.1535 21.8466C14.0521 22.7452 15.2709 23.25 16.5417 23.25C17.8126 23.25 19.0314 22.7452 19.93 21.8466C20.8286 20.9479 21.3334 19.7292 21.3334 18.4583C21.3334 17.1875 20.8286 15.9687 19.93 15.0701C19.0314 14.1715 17.8126 13.6667 16.5417 13.6667ZM41.4584 13.6667C40.1876 13.6667 38.9688 14.1715 38.0702 15.0701C37.1716 15.9687 36.6667 17.1875 36.6667 18.4583C36.6667 19.7292 37.1716 20.9479 38.0702 21.8466C38.9688 22.7452 40.1876 23.25 41.4584 23.25C42.7292 23.25 43.948 22.7452 44.8466 21.8466C45.7452 20.9479 46.2501 19.7292 46.2501 18.4583C46.2501 17.1875 45.7452 15.9687 44.8466 15.0701C43.948 14.1715 42.7292 13.6667 41.4584 13.6667V13.6667Z" fill="white"/>
</svg>
