<svg width="408" height="526" viewBox="0 0 408 526" fill="none" xmlns="http://www.w3.org/2000/svg">
<rect y="469" width="57" height="57" rx="12" fill="#78A9FF"/>
<path d="M29.0001 478.831C39.5878 478.831 48.1706 487.414 48.1706 498.002C48.1706 508.588 39.5878 517.17 29.0001 517.17C18.4124 517.17 9.82959 508.588 9.82959 498.002C9.82959 487.414 18.4124 478.831 29.0001 478.831ZM28.9924 494.644C28.5227 494.644 28.0696 494.818 27.7191 495.13C27.3686 495.443 27.1451 495.873 27.0911 496.34L27.0777 496.562L27.0834 507.108L27.0968 507.332C27.1509 507.8 27.375 508.231 27.7264 508.544C28.0779 508.857 28.5322 509.029 29.0028 509.029C29.4733 509.028 29.9272 508.855 30.2781 508.541C30.6289 508.228 30.8522 507.796 30.9053 507.328L30.9168 507.104L30.911 496.56L30.8976 496.336C30.8422 495.87 30.6176 495.44 30.2664 495.129C29.9152 494.817 29.4619 494.645 28.9924 494.646V494.644ZM29.0001 487.458C28.3639 487.458 27.7538 487.711 27.3039 488.161C26.8541 488.611 26.6014 489.221 26.6014 489.857C26.6014 490.493 26.8541 491.103 27.3039 491.553C27.7538 492.003 28.3639 492.256 29.0001 492.256C29.6363 492.256 30.2464 492.003 30.6962 491.553C31.1461 491.103 31.3988 490.493 31.3988 489.857C31.3988 489.221 31.1461 488.611 30.6962 488.161C30.2464 487.711 29.6363 487.458 29.0001 487.458Z" fill="white"/>
</svg>
