<svg width="64" height="64" viewBox="0 0 64 64" fill="none" xmlns="http://www.w3.org/2000/svg">
<rect x="0.5" y="0.5" width="63" height="63" rx="31.5" fill="#08BDBA"/>
<path d="M30.3334 41.5417C30.3307 39.474 30.9225 37.4491 32.0384 35.7083H19.0884C18.5959 35.7081 18.1081 35.805 17.6531 35.9933C17.198 36.1817 16.7845 36.4579 16.4362 36.8062C16.088 37.1545 15.8118 37.5679 15.6234 38.023C15.435 38.4781 15.3382 38.9658 15.3384 39.4583V40.99C15.3384 41.9433 15.6384 42.8733 16.19 43.65C18.76 47.2567 22.9667 49.0417 28.6667 49.0417C30.22 49.0417 31.6617 48.9083 32.9867 48.6417C31.2737 46.6745 30.3311 44.1535 30.3334 41.545V41.5417ZM37 24.05C37 21.8399 36.1221 19.7203 34.5593 18.1575C32.9965 16.5946 30.8768 15.7167 28.6667 15.7167C26.4566 15.7167 24.337 16.5946 22.7742 18.1575C21.2114 19.7203 20.3334 21.8399 20.3334 24.05C20.3334 26.2601 21.2114 28.3798 22.7742 29.9426C24.337 31.5054 26.4566 32.3833 28.6667 32.3833C30.8768 32.3833 32.9965 31.5054 34.5593 29.9426C36.1221 28.3798 37 26.2601 37 24.05Z" fill="white"/>
<path d="M50.3333 41.5417C50.3333 39.1105 49.3676 36.7789 47.6485 35.0599C45.9294 33.3408 43.5978 32.375 41.1667 32.375C38.7355 32.375 36.4039 33.3408 34.6849 35.0599C32.9658 36.7789 32 39.1105 32 41.5417C32 43.9728 32.9658 46.3044 34.6849 48.0235C36.4039 49.7426 38.7355 50.7083 41.1667 50.7083C43.5978 50.7083 45.9294 49.7426 47.6485 48.0235C49.3676 46.3044 50.3333 43.9728 50.3333 41.5417ZM41.0167 35.7217L41.1667 35.7083L41.3167 35.7217C41.4832 35.7521 41.6365 35.8325 41.7562 35.9522C41.8758 36.0719 41.9562 36.2252 41.9867 36.3917L42 36.5417V40.7083H46.1733L46.3233 40.7217C46.4898 40.7521 46.6431 40.8325 46.7628 40.9522C46.8825 41.0719 46.9629 41.2252 46.9933 41.3917L47.0067 41.5417L46.9933 41.6917C46.9629 41.8582 46.8825 42.0115 46.7628 42.1312C46.6431 42.2508 46.4898 42.3312 46.3233 42.3617L46.1733 42.375H42V46.5417L41.9867 46.6917C41.9562 46.8582 41.8758 47.0115 41.7562 47.1312C41.6365 47.2508 41.4832 47.3312 41.3167 47.3617L41.1667 47.375L41.0167 47.3617C40.8502 47.3312 40.6969 47.2508 40.5772 47.1312C40.4575 47.0115 40.3771 46.8582 40.3467 46.6917L40.3333 46.5417V42.375H36.1733L36.0233 42.3617C35.8568 42.3312 35.7035 42.2508 35.5838 42.1312C35.4642 42.0115 35.3838 41.8582 35.3533 41.6917L35.34 41.5417L35.3533 41.3917C35.3838 41.2252 35.4642 41.0719 35.5838 40.9522C35.7035 40.8325 35.8568 40.7521 36.0233 40.7217L36.1733 40.7083H40.3333V36.5417L40.3467 36.3917C40.3771 36.2252 40.4575 36.0719 40.5772 35.9522C40.6969 35.8325 40.8502 35.7521 41.0167 35.7217Z" fill="white"/>
<rect x="0.5" y="0.5" width="63" height="63" rx="31.5" stroke="#F6F2FF"/>
</svg>
