<svg width="24" height="24" viewBox="0 0 24 24" fill="none" xmlns="http://www.w3.org/2000/svg">
<path d="M9.99698 19.206L9.99698 14.508C9.99703 14.318 10.0692 14.1351 10.1989 13.9962C10.3287 13.8574 10.5063 13.7729 10.6959 13.76C10.8854 13.747 11.0729 13.8065 11.2203 13.9264C11.3677 14.0463 11.4641 14.2177 11.49 14.406L11.497 14.508L11.497 19.206C11.497 19.878 11.947 20.409 12.498 20.473L12.61 20.479L17.386 20.5C17.947 20.5 18.432 20.01 18.49 19.36L18.496 19.227L18.496 4.773C18.496 4.101 18.046 3.57 17.495 3.506L17.383 3.5L12.607 3.48C12.046 3.48 11.561 3.968 11.503 4.62L11.497 4.752L11.497 9.447C11.4969 9.63702 11.4247 9.81994 11.295 9.95879C11.1653 10.0976 10.9877 10.1821 10.7981 10.195C10.6085 10.208 10.4211 10.1485 10.2737 10.0286C10.1263 9.90865 10.0299 9.73725 10.004 9.549L9.99698 9.447L9.99698 4.752C9.99698 3.292 11.063 2.076 12.443 1.985L12.61 1.979L17.386 2C18.786 2 19.906 3.16 19.991 4.599L19.996 4.773L19.996 19.227C19.996 20.687 18.929 21.903 17.55 21.994L17.383 22L12.607 21.98C11.207 21.98 10.086 20.82 10.002 19.38L9.99698 19.206L9.99698 14.508L9.99698 19.206ZM3.14698 11.554L3.21998 11.47L7.14498 7.545C7.27898 7.41204 7.45818 7.3345 7.64684 7.32786C7.83549 7.32122 8.01971 7.38596 8.16273 7.50916C8.30575 7.63236 8.39705 7.80496 8.41841 7.99252C8.43978 8.18008 8.38963 8.36879 8.27798 8.521L8.20498 8.605L5.54498 11.262L15.254 11.26C15.4529 11.26 15.6437 11.339 15.7843 11.4797C15.925 11.6203 16.004 11.8111 16.004 12.01C16.004 12.2089 15.925 12.3997 15.7843 12.5403C15.6437 12.681 15.4529 12.76 15.254 12.76L5.56898 12.76L8.20498 15.394C8.33199 15.521 8.40922 15.6893 8.42262 15.8685C8.43602 16.0476 8.38469 16.2255 8.27798 16.37L8.20498 16.454C8.07799 16.581 7.90963 16.6582 7.73052 16.6716C7.55142 16.685 7.37345 16.6337 7.22898 16.527L7.14498 16.454L3.21998 12.53C3.09296 12.403 3.01573 12.2347 3.00233 12.0555C2.98894 11.8764 3.04026 11.6985 3.14698 11.554Z" fill="#8D8D8D"/>
</svg>
