<svg width="16" height="17" viewBox="0 0 16 17" fill="none" xmlns="http://www.w3.org/2000/svg">
<path d="M7.19194 2.56865C7.52194 1.89932 8.47594 1.89932 8.80594 2.56865L10.3779 5.75332L13.8933 6.26398C14.6313 6.37132 14.9259 7.27865 14.3919 7.79932L11.8479 10.2793L12.4486 13.7793C12.5753 14.5147 11.8033 15.0753 11.1426 14.7287L7.99861 13.0753L4.85527 14.7287C4.19527 15.0753 3.42327 14.5153 3.54861 13.7793L4.14927 10.2793L1.60594 7.79932C1.07194 7.27932 1.36661 6.37132 2.10461 6.26398L5.61994 5.75332L7.19194 2.56865V2.56865ZM7.99861 3.19265L6.49327 6.24332C6.42868 6.37407 6.33328 6.48716 6.21529 6.57287C6.0973 6.65857 5.96025 6.71432 5.81594 6.73532L2.44927 7.22465L4.88527 9.59932C5.09727 9.80598 5.19394 10.104 5.14394 10.396L4.56927 13.7493L7.57994 12.166C7.70915 12.098 7.85295 12.0625 7.99894 12.0625C8.14493 12.0625 8.28873 12.098 8.41794 12.166L11.4286 13.7486L10.8539 10.396C10.8292 10.2522 10.8399 10.1045 10.8849 9.96573C10.93 9.82694 11.0081 9.70119 11.1126 9.59932L13.5486 7.22465L10.1819 6.73532C10.0376 6.71432 9.90058 6.65857 9.78259 6.57287C9.66459 6.48716 9.5692 6.37407 9.50461 6.24332L7.99861 3.19265V3.19265Z" fill="#8D8D8D"/>
</svg>
