<svg width="17" height="17" viewBox="0 0 17 17" fill="none" xmlns="http://www.w3.org/2000/svg">
<path d="M5.97125 3.16675C6.27792 3.16675 6.57659 3.26075 6.82725 3.43475L6.93125 3.51475L8.51459 4.83341H13.6666C14.0285 4.8333 14.3782 4.964 14.6513 5.20144C14.9244 5.43888 15.1024 5.76704 15.1526 6.12541L15.1633 6.23075L15.1666 6.33341V12.3334C15.1666 12.7135 15.0224 13.0794 14.763 13.3573C14.5036 13.6351 14.1484 13.8041 13.7693 13.8301L13.6666 13.8334H3.33325C2.95317 13.8335 2.58724 13.6892 2.30942 13.4298C2.03159 13.1705 1.8626 12.8153 1.83659 12.4361L1.83325 12.3334V4.66675C1.83321 4.28666 1.97745 3.92073 2.23683 3.64291C2.49621 3.36509 2.85139 3.1961 3.23059 3.17008L3.33325 3.16675H5.97125ZM6.93125 7.15275C6.69609 7.34844 6.4067 7.46754 6.10192 7.49408L5.97125 7.50008L2.83325 7.49941V12.3334C2.83325 12.5867 3.02125 12.7961 3.26525 12.8287L3.33325 12.8334H13.6666C13.7874 12.8334 13.9041 12.7897 13.9952 12.7102C14.0863 12.6308 14.1455 12.5211 14.1619 12.4014L14.1666 12.3334V6.33341C14.1666 6.21259 14.1228 6.09585 14.0434 6.00479C13.964 5.91374 13.8543 5.85451 13.7346 5.83808L13.6666 5.83341H8.51392L6.93125 7.15275ZM5.97125 4.16675H3.33325C3.21243 4.16675 3.09569 4.21051 3.00463 4.28993C2.91357 4.36934 2.85435 4.47905 2.83792 4.59875L2.83325 4.66675V6.49941L5.97125 6.50008C6.06433 6.49997 6.15553 6.47388 6.23459 6.42475L6.29125 6.38475L7.55192 5.33275L6.29192 4.28275C6.22019 4.22288 6.13312 4.18432 6.04058 4.17141L5.97125 4.16675Z" fill="#8D8D8D"/>
</svg>
