<svg width="32" height="32" viewBox="0 0 32 32" fill="none" xmlns="http://www.w3.org/2000/svg">
<path d="M16.0003 4C18.4202 4.00007 20.7836 4.73175 22.7802 6.09903C24.7768 7.4663 26.3134 9.40527 27.1883 11.6615C28.0632 13.9177 28.2355 16.3857 27.6826 18.7415C27.1298 21.0974 25.8776 23.2311 24.0904 24.8626C22.3032 26.4941 20.0644 27.5471 17.6681 27.8835C15.2717 28.2199 12.8295 27.8239 10.6622 26.7475C8.49493 25.6711 6.70369 23.9646 5.52361 21.8519C4.34352 19.7393 3.82974 17.3192 4.04968 14.9093C4.0615 14.7785 4.09896 14.6514 4.15993 14.535C4.22091 14.4187 4.30419 14.3155 4.40504 14.2314C4.50588 14.1473 4.62231 14.0838 4.74767 14.0447C4.87304 14.0056 5.00488 13.9915 5.13568 14.0033C5.26647 14.0152 5.39366 14.0526 5.50998 14.1136C5.6263 14.1746 5.72946 14.2579 5.81359 14.3587C5.89772 14.4595 5.96117 14.576 6.0003 14.7013C6.03944 14.8267 6.0535 14.9585 6.04168 15.0893C5.9045 16.5504 6.0923 18.0236 6.59161 19.4035C7.09091 20.7834 7.88935 22.0357 8.92968 23.0707C9.85642 24.0017 10.9584 24.7398 12.172 25.2426C13.3856 25.7454 14.6867 26.0028 16.0003 26C17.705 25.9997 19.3812 25.5636 20.8699 24.7332C22.3586 23.9028 23.6102 22.7056 24.5061 21.2553C25.4019 19.8051 25.9122 18.1499 25.9883 16.447C26.0645 14.7441 25.7042 13.0499 24.9414 11.5255C24.1787 10.001 23.0389 8.69685 21.6304 7.73681C20.2218 6.77676 18.5912 6.19272 16.8934 6.04014C15.1956 5.88757 13.487 6.17152 11.9299 6.86505C10.3727 7.55857 9.01866 8.63863 7.99634 10.0027H11.671C11.9244 10.0027 12.1683 10.099 12.3534 10.272C12.5385 10.4449 12.6511 10.6817 12.6684 10.9345C12.6856 11.1873 12.6063 11.4372 12.4464 11.6337C12.2865 11.8303 12.058 11.9588 11.807 11.9933L11.671 12.0027H5.66701C5.42536 12.0027 5.19189 11.9151 5.00977 11.7563C4.82765 11.5975 4.70921 11.3781 4.67634 11.1387L4.66701 11.0027V5.00267C4.66709 4.74931 4.76334 4.50542 4.93631 4.32028C5.10928 4.13515 5.34607 4.02257 5.59885 4.0053C5.85163 3.98803 6.10153 4.06736 6.29808 4.22725C6.49462 4.38714 6.62314 4.61567 6.65768 4.86667L6.66701 5.00267L6.66568 8.45734C7.78981 7.06423 9.21182 5.94072 10.8272 5.16938C12.4426 4.39803 14.2103 3.99845 16.0003 4V4ZM15.0003 9.33334C15.242 9.33335 15.4755 9.42086 15.6576 9.57969C15.8397 9.73853 15.9581 9.95793 15.991 10.1973L16.0003 10.3333V16H19.0003C19.2537 16.0001 19.4976 16.0963 19.6827 16.2693C19.8679 16.4423 19.9804 16.6791 19.9977 16.9318C20.015 17.1846 19.9357 17.4345 19.7758 17.6311C19.6159 17.8276 19.3873 17.9561 19.1363 17.9907L19.0003 18H15.0003C14.7587 18 14.5252 17.9125 14.3431 17.7536C14.161 17.5948 14.0425 17.3754 14.0097 17.136L14.0003 17V10.3333C14.0003 10.0681 14.1057 9.81377 14.2932 9.62623C14.4808 9.43869 14.7351 9.33334 15.0003 9.33334V9.33334Z" fill="#0072C3"/>
</svg>
