<svg width="32" height="32" viewBox="0 0 32 32" fill="none" xmlns="http://www.w3.org/2000/svg">
<rect width="32" height="32" rx="8" fill="#4589FF"/>
<path d="M16.5107 6C17.2555 6.00821 17.9972 6.09539 18.7248 6.25949C18.8796 6.29442 19.0197 6.37735 19.1256 6.49669C19.2315 6.61604 19.2978 6.76583 19.3154 6.92515L19.4879 8.49135C19.5122 8.71216 19.5875 8.92411 19.7077 9.11014C19.8279 9.29618 19.9896 9.4511 20.1798 9.56245C20.37 9.67379 20.5834 9.73846 20.8029 9.75123C21.0223 9.76401 21.2417 9.72454 21.4433 9.636L22.8649 9.00521C23.0093 8.94095 23.1698 8.92361 23.3243 8.95558C23.4788 8.98755 23.6197 9.06726 23.7274 9.18368C24.7543 10.2925 25.519 11.6223 25.9639 13.073C26.0106 13.2255 26.0092 13.3888 25.9599 13.5404C25.9106 13.692 25.8159 13.8244 25.6889 13.9192L24.4286 14.8587C24.2514 14.9903 24.1073 15.1622 24.0079 15.3605C23.9086 15.5588 23.8569 15.778 23.8569 16.0003C23.8569 16.2226 23.9086 16.4417 24.0079 16.64C24.1073 16.8384 24.2514 17.0103 24.4286 17.1418L25.6899 18.0803C25.8173 18.1751 25.9124 18.3075 25.9618 18.4594C26.0113 18.6112 26.0127 18.7748 25.9659 18.9275C25.5208 20.3782 24.7562 21.7079 23.7295 22.8169C23.622 22.933 23.4815 23.0127 23.3274 23.0448C23.1733 23.077 23.0132 23.06 22.869 22.9964L21.4412 22.3635C21.2399 22.2743 21.0206 22.2342 20.8011 22.2466C20.5816 22.2589 20.3681 22.3233 20.1778 22.4346C19.9875 22.5458 19.8258 22.7008 19.7058 22.887C19.5857 23.0731 19.5107 23.2852 19.4869 23.5061L19.3154 25.0713C19.2981 25.2289 19.233 25.3772 19.1291 25.496C19.0252 25.6148 18.8876 25.6982 18.735 25.7349C17.2652 26.0884 15.7338 26.0884 14.264 25.7349C14.1114 25.6982 13.9737 25.6148 13.8698 25.496C13.7659 25.3772 13.7009 25.2289 13.6836 25.0713L13.5131 23.5082C13.4883 23.2878 13.4126 23.0765 13.2922 22.8911C13.1719 22.7057 13.0101 22.5514 12.82 22.4407C12.63 22.3299 12.4168 22.2658 12.1978 22.2535C11.9787 22.2412 11.7598 22.281 11.5588 22.3697L10.132 23.0015C9.98773 23.0654 9.82735 23.0824 9.67303 23.0503C9.51872 23.0181 9.37809 22.9384 9.27053 22.822C8.24333 21.7119 7.47865 20.3806 7.03406 18.9286C6.98728 18.7759 6.98872 18.6122 7.03818 18.4604C7.08765 18.3086 7.18268 18.1761 7.31007 18.0814L8.57138 17.1418C8.74881 17.0104 8.89309 16.8385 8.99255 16.6402C9.092 16.4419 9.14383 16.2226 9.14383 16.0003C9.14383 15.7779 9.092 15.5587 8.99255 15.3604C8.89309 15.162 8.74881 14.9902 8.57138 14.8587L7.31007 13.9212C7.18286 13.8264 7.08803 13.6938 7.03875 13.542C6.98947 13.3902 6.98819 13.2266 7.03508 13.074C7.48006 11.6234 8.24473 10.2936 9.27155 9.1847C9.3793 9.06829 9.52017 8.98858 9.67469 8.95661C9.8292 8.92464 9.98973 8.94198 10.1341 9.00624L11.5547 9.63702C11.7566 9.72551 11.9763 9.76489 12.1961 9.75199C12.4158 9.73909 12.6295 9.67428 12.8199 9.56276C13.0104 9.45124 13.1723 9.29613 13.2927 9.10987C13.4131 8.92362 13.4886 8.71142 13.5131 8.49033L13.6856 6.92515C13.703 6.76551 13.7695 6.61538 13.8756 6.49582C13.9816 6.37626 14.1221 6.29326 14.2772 6.25847C15.0048 6.09539 15.7486 6.00923 16.5107 6ZM16.5107 7.5385C16.0504 7.54397 15.5911 7.58408 15.1367 7.65851L15.0261 8.66059C14.9754 9.12169 14.8183 9.5643 14.5672 9.95271C14.3162 10.3411 13.9784 10.6645 13.581 10.8966C13.1836 11.1288 12.7378 11.2633 12.2796 11.2893C11.8213 11.3153 11.3634 11.2321 10.9428 11.0463L10.0316 10.6422C9.45115 11.3541 8.98916 12.1568 8.66372 13.0187L9.47348 13.6207C9.84306 13.8953 10.1436 14.2538 10.3507 14.6675C10.5578 15.0811 10.6657 15.5382 10.6657 16.0018C10.6657 16.4654 10.5578 16.9225 10.3507 17.3361C10.1436 17.7498 9.84306 18.1084 9.47348 18.3829L8.66271 18.986C8.98742 19.8496 9.45014 20.6537 10.0306 21.3676L10.9489 20.9604C11.3685 20.7752 11.8252 20.6922 12.2823 20.7181C12.7395 20.7439 13.1842 20.8779 13.5807 21.1092C13.9773 21.3404 14.3146 21.6626 14.5654 22.0497C14.8163 22.4368 14.9737 22.8781 15.0251 23.3379L15.1367 24.3472C16.0388 24.501 16.9612 24.501 17.8633 24.3472L17.9749 23.3379C18.0254 22.8775 18.1823 22.4355 18.433 22.0476C18.6836 21.6598 19.021 21.3369 19.4178 21.1052C19.8146 20.8734 20.2598 20.7391 20.7174 20.7133C21.175 20.6874 21.6322 20.7707 22.0521 20.9563L22.9704 21.3625C23.5506 20.6501 24.0122 19.8471 24.3373 18.985L23.5275 18.3819C23.158 18.1073 22.8575 17.7488 22.6504 17.3351C22.4432 16.9215 22.3353 16.4644 22.3353 16.0008C22.3353 15.5372 22.4432 15.0801 22.6504 14.6665C22.8575 14.2528 23.158 13.8942 23.5275 13.6197L24.3353 13.0176C24.0098 12.1557 23.5478 11.3531 22.9674 10.6412L22.0582 11.0442C21.6378 11.2302 21.1801 11.3137 20.722 11.288C20.2638 11.2622 19.818 11.1279 19.4207 10.8959C19.0234 10.6639 18.6856 10.3407 18.4346 9.95237C18.1836 9.56408 18.0265 9.12157 17.9759 8.66059L17.8643 7.65953C17.417 7.58562 16.9649 7.5455 16.5117 7.53953L16.5107 7.5385ZM16.4985 12.154C17.5077 12.154 18.4756 12.5592 19.1892 13.2806C19.9028 14.0019 20.3037 14.9802 20.3037 16.0003C20.3037 17.0204 19.9028 17.9987 19.1892 18.72C18.4756 19.4413 17.5077 19.8465 16.4985 19.8465C15.4893 19.8465 14.5214 19.4413 13.8078 18.72C13.0941 17.9987 12.6932 17.0204 12.6932 16.0003C12.6932 14.9802 13.0941 14.0019 13.8078 13.2806C14.5214 12.5592 15.4893 12.154 16.4985 12.154ZM16.4985 13.6925C15.8929 13.6925 15.3122 13.9357 14.884 14.3684C14.4559 14.8012 14.2153 15.3882 14.2153 16.0003C14.2153 16.6123 14.4559 17.1993 14.884 17.6321C15.3122 18.0649 15.8929 18.308 16.4985 18.308C17.104 18.308 17.6847 18.0649 18.1129 17.6321C18.5411 17.1993 18.7816 16.6123 18.7816 16.0003C18.7816 15.3882 18.5411 14.8012 18.1129 14.3684C17.6847 13.9357 17.104 13.6925 16.4985 13.6925Z" fill="white"/>
</svg>
