<svg width="16" height="17" viewBox="0 0 16 17" fill="none" xmlns="http://www.w3.org/2000/svg">
<path d="M10.828 2.45473L14.0453 5.67207C14.2507 5.87749 14.4043 6.12878 14.4935 6.40522C14.5828 6.68166 14.605 6.97534 14.5584 7.26207C14.5119 7.54879 14.3979 7.82035 14.2258 8.05437C14.0537 8.28839 13.8285 8.47817 13.5687 8.60807L10.322 10.2314C10.2049 10.2898 10.1154 10.3918 10.0727 10.5154L9.11267 13.2927C9.06654 13.4262 8.98723 13.5458 8.8822 13.6403C8.77716 13.7347 8.64985 13.8009 8.51221 13.8326C8.37457 13.8643 8.23113 13.8606 8.09535 13.8216C7.95957 13.7827 7.83592 13.7099 7.736 13.6101L5.66667 11.5407L2.70667 14.5001H2V13.7934L4.96 10.8334L2.89 8.76407C2.79 8.66416 2.71706 8.54046 2.67804 8.4046C2.63902 8.26875 2.6352 8.12519 2.66693 7.98745C2.69867 7.84971 2.76492 7.7223 2.85945 7.61721C2.95399 7.51213 3.0737 7.43281 3.20733 7.38673L5.98467 6.42673C6.10819 6.38414 6.21013 6.29488 6.26867 6.17807L7.892 2.9314C8.02187 2.67147 8.21167 2.44612 8.44575 2.27395C8.67982 2.10178 8.95147 1.98772 9.23829 1.94116C9.52511 1.89461 9.81889 1.9169 10.0954 2.00619C10.3719 2.09548 10.6232 2.24922 10.8287 2.45473H10.828ZM13.3387 6.37873L10.1213 3.1614C10.028 3.06802 9.91373 2.99817 9.78806 2.95761C9.66239 2.91704 9.52888 2.90692 9.39854 2.92808C9.26819 2.94924 9.14474 3.00108 9.03836 3.07931C8.93197 3.15755 8.84571 3.25995 8.78667 3.37807L7.16333 6.6254C6.98785 6.97609 6.68202 7.24412 6.31133 7.37207L3.78533 8.2454L8.25533 12.7147L9.12733 10.1887C9.25543 9.8183 9.52344 9.51273 9.874 9.3374L13.122 7.7134C13.2401 7.65436 13.3425 7.56809 13.4208 7.46171C13.499 7.35533 13.5508 7.23188 13.572 7.10153C13.5931 6.97118 13.583 6.83767 13.5425 6.71201C13.5019 6.58634 13.432 6.47211 13.3387 6.37873V6.37873Z" fill="#8D8D8D"/>
</svg>
