<svg width="16" height="17" viewBox="0 0 16 17" fill="none" xmlns="http://www.w3.org/2000/svg">
<path d="M11.8361 9.83327C12.0331 9.83318 12.2281 9.8719 12.4101 9.94721C12.5921 10.0225 12.7574 10.1329 12.8967 10.2722C13.036 10.4114 13.1465 10.5767 13.2219 10.7587C13.2973 10.9406 13.3361 11.1357 13.3361 11.3326V11.7159C13.3361 12.3119 13.1228 12.8893 12.7348 13.3413C11.6881 14.5639 10.0968 15.1673 8.0001 15.1673C5.90277 15.1673 4.3121 14.5639 3.2681 13.3406C2.88169 12.888 2.66941 12.3124 2.66943 11.7173V11.3326C2.66935 11.1357 2.70806 10.9406 2.78337 10.7586C2.85868 10.5766 2.96911 10.4113 3.10834 10.272C3.24758 10.1327 3.41289 10.0222 3.59484 9.9468C3.77679 9.87141 3.97182 9.8326 4.16877 9.8326H11.8361V9.83327ZM11.8361 10.8333H4.16877C4.10314 10.8332 4.03813 10.846 3.97748 10.8711C3.91682 10.8961 3.86169 10.9329 3.81525 10.9793C3.76882 11.0257 3.73198 11.0807 3.70684 11.1414C3.6817 11.202 3.66877 11.267 3.66877 11.3326V11.7173C3.66877 12.0746 3.79677 12.4199 4.02877 12.6913C4.8641 13.6699 6.17477 14.1673 8.0001 14.1673C9.82543 14.1673 11.1374 13.6699 11.9748 12.6913C12.2074 12.4196 12.3354 12.0737 12.3354 11.7159V11.3326C12.3355 11.267 12.3227 11.202 12.2976 11.1413C12.2726 11.0807 12.2358 11.0255 12.1894 10.9791C12.143 10.9327 12.088 10.8958 12.0273 10.8707C11.9667 10.8455 11.9017 10.8326 11.8361 10.8326V10.8333ZM8.0001 1.83594C8.88416 1.83594 9.732 2.18713 10.3571 2.81225C10.9822 3.43737 11.3334 4.28522 11.3334 5.16927C11.3334 6.05333 10.9822 6.90117 10.3571 7.52629C9.732 8.15141 8.88416 8.5026 8.0001 8.5026C7.11605 8.5026 6.2682 8.15141 5.64308 7.52629C5.01796 6.90117 4.66677 6.05333 4.66677 5.16927C4.66677 4.28522 5.01796 3.43737 5.64308 2.81225C6.2682 2.18713 7.11605 1.83594 8.0001 1.83594V1.83594ZM8.0001 2.83594C7.69368 2.83594 7.39027 2.89629 7.10717 3.01355C6.82408 3.13081 6.56685 3.30268 6.35018 3.51936C6.13351 3.73603 5.96164 3.99325 5.84438 4.27634C5.72712 4.55944 5.66677 4.86285 5.66677 5.16927C5.66677 5.47569 5.72712 5.77911 5.84438 6.0622C5.96164 6.34529 6.13351 6.60252 6.35018 6.81919C6.56685 7.03586 6.82408 7.20773 7.10717 7.32499C7.39027 7.44225 7.69368 7.5026 8.0001 7.5026C8.61894 7.5026 9.21243 7.25677 9.65002 6.81919C10.0876 6.3816 10.3334 5.78811 10.3334 5.16927C10.3334 4.55043 10.0876 3.95694 9.65002 3.51936C9.21243 3.08177 8.61894 2.83594 8.0001 2.83594Z" fill="#8D8D8D"/>
</svg>
