<svg width="48" height="49" viewBox="0 0 48 49" fill="none" xmlns="http://www.w3.org/2000/svg">
<rect x="0.5" y="1" width="47" height="47" rx="23.5" fill="#33B1FF"/>
<path d="M31.7468 37.6387C31.8963 37.7462 32.0726 37.8104 32.2562 37.8241C32.4399 37.8379 32.6238 37.8006 32.7876 37.7165C32.9514 37.6324 33.0888 37.5047 33.1847 37.3474C33.2805 37.1902 33.3311 37.0095 33.3308 36.8253V16.8333C33.3308 15.6841 32.8743 14.5819 32.0616 13.7692C31.2489 12.9565 30.1467 12.5 28.9975 12.5H18.9988C17.85 12.5004 16.7483 12.9569 15.936 13.7692C15.1237 14.5815 14.6672 15.6832 14.6668 16.832V36.8267C14.6668 37.0107 14.7175 37.1912 14.8135 37.3483C14.9094 37.5053 15.0468 37.6328 15.2106 37.7168C15.3744 37.8008 15.5582 37.8379 15.7417 37.8241C15.9252 37.8103 16.1014 37.7461 16.2508 37.6387L23.9988 32.064L31.7481 37.6373L31.7468 37.6387Z" fill="#D9FBFB"/>
<rect x="0.5" y="1" width="47" height="47" rx="23.5" stroke="#E5F6FF"/>
</svg>
