<svg width="24" height="24" viewBox="0 0 24 24" fill="none" xmlns="http://www.w3.org/2000/svg">
<path d="M21.78 3.28015C21.8537 3.21149 21.9128 3.12869 21.9538 3.03669C21.9948 2.94469 22.0168 2.84538 22.0186 2.74468C22.0204 2.64397 22.0018 2.54394 21.9641 2.45056C21.9264 2.35717 21.8703 2.27233 21.799 2.20112C21.7278 2.1299 21.643 2.07375 21.5496 2.03603C21.4562 1.99831 21.3562 1.97979 21.2555 1.98156C21.1548 1.98334 21.0555 2.00538 20.9635 2.04637C20.8715 2.08736 20.7887 2.14647 20.72 2.22015L10.72 12.2202L10.25 13.7502L11.78 13.2802L21.78 3.28015Z" fill="#78A9FF"/>
<path d="M6.25 3C5.38805 3 4.5614 3.34241 3.9519 3.9519C3.34241 4.5614 3 5.38805 3 6.25V17.75C3 18.612 3.34241 19.4386 3.9519 20.0481C4.5614 20.6576 5.38805 21 6.25 21H17.75C18.612 21 19.4386 20.6576 20.0481 20.0481C20.6576 19.4386 21 18.612 21 17.75V9.75C21 9.55109 20.921 9.36032 20.7803 9.21967C20.6397 9.07902 20.4489 9 20.25 9C20.0511 9 19.8603 9.07902 19.7197 9.21967C19.579 9.36032 19.5 9.55109 19.5 9.75V17.75C19.5 18.2141 19.3156 18.6592 18.9874 18.9874C18.6592 19.3156 18.2141 19.5 17.75 19.5H6.25C5.78587 19.5 5.34075 19.3156 5.01256 18.9874C4.68437 18.6592 4.5 18.2141 4.5 17.75V6.25C4.5 5.284 5.284 4.5 6.25 4.5H14.25C14.4489 4.5 14.6397 4.42098 14.7803 4.28033C14.921 4.13968 15 3.94891 15 3.75C15 3.55109 14.921 3.36032 14.7803 3.21967C14.6397 3.07902 14.4489 3 14.25 3H6.25Z" fill="#78A9FF"/>
</svg>
