<svg width="22" height="21" viewBox="0 0 22 21" fill="none" xmlns="http://www.w3.org/2000/svg">
<path d="M11 -0.000976562C16.524 -0.000976562 21.0021 4.47702 21.0021 10.001C21.0021 15.524 16.524 20.002 11 20.002C5.47605 20.002 0.998047 15.524 0.998047 10.001C0.998047 4.47702 5.47605 -0.000976562 11 -0.000976562ZM11 1.49902C9.87586 1.48683 8.76041 1.69772 7.71827 2.1195C6.67612 2.54127 5.72798 3.16554 4.92871 3.95619C4.12944 4.74684 3.49492 5.68816 3.06187 6.72566C2.62882 7.76317 2.40584 8.87627 2.40584 10.0005C2.40584 11.1248 2.62882 12.2379 3.06187 13.2754C3.49492 14.3129 4.12944 15.2542 4.92871 16.0449C5.72798 16.8355 6.67612 17.4598 7.71827 17.8816C8.76041 18.3033 9.87586 18.5142 11 18.502C13.2321 18.4678 15.3611 17.5571 16.9274 15.9666C18.4937 14.376 19.3717 12.2333 19.3717 10.001C19.3717 7.76874 18.4937 5.626 16.9274 4.03548C15.3611 2.44496 13.2321 1.53426 11 1.50002V1.49902ZM7.46205 12.784C7.8828 13.32 8.42 13.7533 9.03298 14.0509C9.64595 14.3486 10.3186 14.5028 11 14.502C11.6806 14.5028 12.3525 14.3489 12.9649 14.052C13.5772 13.755 14.1142 13.3228 14.535 12.788C14.6584 12.6319 14.8387 12.5312 15.0362 12.5081C15.2338 12.4849 15.4325 12.5412 15.5885 12.6645C15.7446 12.7878 15.8453 12.9681 15.8685 13.1657C15.8916 13.3633 15.8354 13.5619 15.712 13.718C15.1508 14.4306 14.435 15.0064 13.6188 15.4021C12.8026 15.7977 11.9071 16.0029 11 16.002C10.0918 16.0028 9.19528 15.797 8.37826 15.4003C7.56124 15.0035 6.84512 14.4262 6.28405 13.712C6.16624 13.5554 6.11444 13.3588 6.13973 13.1645C6.16501 12.9701 6.26538 12.7934 6.41934 12.6721C6.5733 12.5508 6.76863 12.4946 6.96351 12.5155C7.15839 12.5364 7.33734 12.6328 7.46205 12.784ZM8.00005 6.75002C8.16711 6.7453 8.33342 6.77412 8.48915 6.83479C8.64488 6.89545 8.78686 6.98673 8.90669 7.10323C9.02653 7.21972 9.12179 7.35907 9.18684 7.51302C9.25188 7.66697 9.2854 7.8324 9.2854 7.99952C9.2854 8.16665 9.25188 8.33208 9.18684 8.48603C9.12179 8.63998 9.02653 8.77932 8.90669 8.89582C8.78686 9.01231 8.64488 9.10359 8.48915 9.16426C8.33342 9.22493 8.16711 9.25375 8.00005 9.24902C7.67478 9.23982 7.36592 9.10414 7.1391 8.87082C6.91229 8.6375 6.7854 8.32492 6.7854 7.99952C6.7854 7.67413 6.91229 7.36155 7.1391 7.12823C7.36592 6.89491 7.67478 6.75923 8.00005 6.75002ZM14 6.75002C14.1671 6.7453 14.3334 6.77412 14.4892 6.83479C14.6449 6.89545 14.7869 6.98673 14.9067 7.10323C15.0265 7.21972 15.1218 7.35907 15.1868 7.51302C15.2519 7.66697 15.2854 7.8324 15.2854 7.99952C15.2854 8.16665 15.2519 8.33208 15.1868 8.48603C15.1218 8.63998 15.0265 8.77932 14.9067 8.89582C14.7869 9.01231 14.6449 9.10359 14.4892 9.16426C14.3334 9.22493 14.1671 9.25375 14 9.24902C13.6748 9.23982 13.3659 9.10414 13.1391 8.87082C12.9123 8.6375 12.7854 8.32492 12.7854 7.99952C12.7854 7.67413 12.9123 7.36155 13.1391 7.12823C13.3659 6.89491 13.6748 6.75923 14 6.75002Z" fill="#8D8D8D"/>
</svg>
