<svg width="21" height="22" viewBox="0 0 21 22" fill="none" xmlns="http://www.w3.org/2000/svg">
<path d="M9.77201 2.74322C10.8827 1.63838 12.3815 1.01178 13.948 0.997326C15.5146 0.982868 17.0247 1.5817 18.1556 2.66585C19.2865 3.75 19.9485 5.23347 20.0002 6.79925C20.0518 8.36502 19.489 9.8889 18.432 11.0452L18.242 11.2422L9.44201 20.0402L9.40601 20.0702C8.72068 20.6859 7.8314 21.0257 6.9101 21.0238C5.9888 21.0219 5.10093 20.6784 4.41818 20.0598C3.73542 19.4413 3.30627 18.5915 3.2137 17.6749C3.12113 16.7582 3.37172 15.8398 3.91701 15.0972C3.94086 15.0511 3.96934 15.0076 4.00201 14.9672L4.05601 14.9072L4.14201 14.8192L4.28401 14.6712L4.28601 14.6742L11.722 7.22022C11.8489 7.09279 12.0174 7.01522 12.1968 7.00163C12.3761 6.98805 12.5543 7.03936 12.699 7.14622L12.783 7.21922C12.9102 7.34609 12.9876 7.51438 13.0012 7.69349C13.0148 7.8726 12.9636 8.05064 12.857 8.19522L12.784 8.27922L5.19001 15.8922C4.83972 16.3237 4.66314 16.8703 4.69488 17.4252C4.72661 17.98 4.96436 18.503 5.36156 18.8917C5.75875 19.2804 6.28676 19.5067 6.84215 19.5264C7.39753 19.5462 7.94026 19.3578 8.36401 18.9982L17.196 10.1682C18.0088 9.33479 18.4671 8.21892 18.4748 7.05481C18.4825 5.89069 18.039 4.76885 17.2373 3.92474C16.4357 3.08062 15.3382 2.57986 14.1752 2.52756C13.0122 2.47526 11.8742 2.87548 11 3.64422L10.832 3.80422L10.819 3.81822L1.28301 13.3542C1.14919 13.4884 0.969522 13.567 0.780138 13.5741C0.590755 13.5812 0.405696 13.5164 0.262171 13.3926C0.118646 13.2688 0.0272964 13.0953 0.00648911 12.907C-0.0143182 12.7186 0.0369597 12.5293 0.150013 12.3772L0.222013 12.2932L9.77101 2.74322H9.77301H9.77201Z" fill="#8D8D8D"/>
</svg>
