<svg width="15" height="20" viewBox="0 0 15 20" fill="none" xmlns="http://www.w3.org/2000/svg">
<path d="M12.2281 0.43881L11.1521 0.0948098C10.1421 -0.22719 9.06511 0.29381 8.63211 1.31181L7.77311 3.33981C7.39911 4.22281 7.60611 5.26181 8.28711 5.90781L10.1811 7.70581C10.0651 8.78181 9.70311 9.84081 9.09711 10.8828C8.52133 11.891 7.74909 12.7734 6.82611 13.4778L4.55111 12.7178C3.68811 12.4308 2.74911 12.7618 2.22111 13.5388L0.988114 15.3488C0.373115 16.2528 0.483114 17.4988 1.24611 18.2648L2.06411 19.0858C2.87811 19.9028 4.04111 20.1998 5.11611 19.8638C7.65511 19.0718 9.98911 16.7208 12.1191 12.8108C14.2521 8.89481 15.0051 5.57081 14.3771 2.84281C14.1131 1.69481 13.2961 0.77981 12.2281 0.43881Z" fill="#E0E0E0"/>
</svg>
