<svg width="20" height="20" viewBox="0 0 20 20" fill="none" xmlns="http://www.w3.org/2000/svg">
<path d="M9.98778 0.25C9.25378 0.258 8.52278 0.343 7.80578 0.503C7.65325 0.53705 7.51516 0.617903 7.41081 0.734261C7.30647 0.850618 7.24108 0.996668 7.22378 1.152L7.05378 2.679C7.02978 2.89428 6.95558 3.10093 6.83715 3.28231C6.71872 3.46368 6.55936 3.61473 6.37191 3.72329C6.18446 3.83185 5.97414 3.89489 5.75788 3.90735C5.54163 3.9198 5.32546 3.88132 5.12679 3.795L3.72578 3.18C3.58354 3.11735 3.42534 3.10044 3.27307 3.13161C3.1208 3.16278 2.98197 3.24049 2.87578 3.354C1.86384 4.43509 1.11028 5.73161 0.671785 7.146C0.625805 7.29464 0.627186 7.45389 0.675741 7.60171C0.724297 7.74953 0.817621 7.87858 0.942785 7.971L2.18478 8.887C2.35945 9.0153 2.50146 9.1829 2.59934 9.37625C2.69723 9.56961 2.74823 9.78328 2.74823 10C2.74823 10.2167 2.69723 10.4304 2.59934 10.6237C2.50146 10.8171 2.35945 10.9847 2.18478 11.113L0.941784 12.028C0.816244 12.1204 0.722593 12.2495 0.673847 12.3976C0.625101 12.5456 0.62368 12.7051 0.669785 12.854C1.10844 14.2683 1.86199 15.5648 2.87379 16.646C2.9797 16.7593 3.11812 16.8369 3.26998 16.8682C3.42184 16.8996 3.57969 16.8831 3.72178 16.821L5.12878 16.204C5.32719 16.117 5.5433 16.0779 5.75961 16.09C5.97591 16.102 6.18635 16.1648 6.37389 16.2733C6.56142 16.3817 6.72078 16.5328 6.83907 16.7143C6.95736 16.8958 7.03126 17.1026 7.05478 17.318L7.22378 18.844C7.24082 18.9976 7.30493 19.1423 7.40732 19.2581C7.50971 19.3739 7.64539 19.4553 7.79578 19.491C9.24424 19.8356 10.7533 19.8356 12.2018 19.491C12.3522 19.4553 12.4879 19.3739 12.5903 19.2581C12.6926 19.1423 12.7567 18.9976 12.7738 18.844L12.9418 17.32C12.9663 17.1052 13.0408 16.8991 13.1595 16.7183C13.2781 16.5376 13.4375 16.3872 13.6248 16.2792C13.8121 16.1712 14.0222 16.1087 14.2381 16.0967C14.4539 16.0847 14.6696 16.1235 14.8678 16.21L16.2738 16.826C16.416 16.8883 16.5741 16.9049 16.7261 16.8736C16.8782 16.8422 17.0168 16.7645 17.1228 16.651C18.1351 15.5686 18.8887 14.2707 19.3268 12.855C19.3729 12.7061 19.3715 12.5466 19.3227 12.3986C19.274 12.2505 19.1803 12.1214 19.0548 12.029L17.8118 11.113C17.6369 10.9848 17.4947 10.8173 17.3967 10.6239C17.2987 10.4305 17.2476 10.2168 17.2476 10C17.2476 9.78321 17.2987 9.56947 17.3967 9.3761C17.4947 9.18273 17.6369 9.01517 17.8118 8.887L19.0548 7.973C19.1801 7.88052 19.2736 7.75129 19.3222 7.60327C19.3707 7.45525 19.372 7.29577 19.3258 7.147C18.8873 5.73262 18.1337 4.43611 17.1218 3.355C17.0156 3.24149 16.8768 3.16378 16.7245 3.13261C16.5722 3.10144 16.414 3.11835 16.2718 3.181L14.8718 3.796C14.6728 3.88227 14.4563 3.92066 14.2397 3.90809C14.0232 3.89551 13.8126 3.83232 13.6249 3.7236C13.4372 3.61487 13.2776 3.46363 13.159 3.28204C13.0404 3.10045 12.966 2.89356 12.9418 2.678L12.7718 1.152C12.7546 0.996355 12.6892 0.849984 12.5846 0.733414C12.4801 0.616845 12.3417 0.535924 12.1888 0.502C11.4718 0.343 10.7388 0.259 9.98778 0.25ZM9.99978 7C10.7954 7 11.5585 7.31607 12.1211 7.87868C12.6837 8.44129 12.9998 9.20435 12.9998 10C12.9998 10.7956 12.6837 11.5587 12.1211 12.1213C11.5585 12.6839 10.7954 13 9.99978 13C9.20413 13 8.44107 12.6839 7.87846 12.1213C7.31586 11.5587 6.99978 10.7956 6.99978 10C6.99978 9.20435 7.31586 8.44129 7.87846 7.87868C8.44107 7.31607 9.20413 7 9.99978 7Z" fill="#E0E0E0"/>
</svg>
