<svg width="24" height="24" viewBox="0 0 24 24" fill="none" xmlns="http://www.w3.org/2000/svg">
<path d="M6.24609 13.9999C5.95067 13.9998 5.65811 14.0579 5.38513 14.1708C5.11215 14.2838 4.86411 14.4494 4.65516 14.6583C4.44622 14.8671 4.28047 15.1151 4.16738 15.388C4.0543 15.6609 3.99609 15.9535 3.99609 16.2489V16.8239C3.99609 17.7179 4.31609 18.5839 4.89809 19.2619C6.46809 21.0959 8.85509 22.0009 12.0001 22.0009C15.1461 22.0009 17.5321 21.0959 19.0981 19.2609C19.6777 18.582 19.9961 17.7186 19.9961 16.8259V16.2489C19.9962 15.9535 19.9382 15.6609 19.8252 15.3879C19.7122 15.115 19.5466 14.8669 19.3377 14.658C19.1289 14.449 18.8809 14.2833 18.608 14.1702C18.3351 14.0571 18.0425 13.9989 17.7471 13.9989H6.24609V13.9999ZM6.24609 15.4999H17.7471C17.8455 15.4998 17.943 15.5191 18.034 15.5566C18.125 15.5942 18.2077 15.6494 18.2774 15.7189C18.347 15.7885 18.4023 15.8711 18.44 15.962C18.4777 16.053 18.4971 16.1505 18.4971 16.2489V16.8259C18.4971 17.3619 18.3051 17.8799 17.9571 18.2869C16.7041 19.7549 14.7381 20.5009 12.0001 20.5009C9.26209 20.5009 7.29409 19.7549 6.03809 18.2869C5.68908 17.8793 5.49721 17.3605 5.49709 16.8239V16.2489C5.49696 16.1505 5.51624 16.053 5.55382 15.962C5.5914 15.871 5.64655 15.7883 5.71611 15.7186C5.78568 15.649 5.86829 15.5937 5.95923 15.556C6.05017 15.5183 6.14765 15.4989 6.24609 15.4989V15.4999ZM12.0001 2.00391C10.674 2.00391 9.40224 2.53069 8.46456 3.46837C7.52688 4.40605 7.00009 5.67782 7.00009 7.00391C7.00009 8.32999 7.52688 9.60176 8.46456 10.5394C9.40224 11.4771 10.674 12.0039 12.0001 12.0039C13.3262 12.0039 14.5979 11.4771 15.5356 10.5394C16.4733 9.60176 17.0001 8.32999 17.0001 7.00391C17.0001 5.67782 16.4733 4.40605 15.5356 3.46837C14.5979 2.53069 13.3262 2.00391 12.0001 2.00391ZM12.0001 3.50391C12.4597 3.50391 12.9148 3.59444 13.3395 3.77033C13.7641 3.94622 14.15 4.20403 14.475 4.52903C14.8 4.85404 15.0578 5.23987 15.2337 5.66451C15.4096 6.08915 15.5001 6.54428 15.5001 7.00391C15.5001 7.46353 15.4096 7.91866 15.2337 8.3433C15.0578 8.76794 14.8 9.15378 14.475 9.47878C14.15 9.80379 13.7641 10.0616 13.3395 10.2375C12.9148 10.4134 12.4597 10.5039 12.0001 10.5039C11.0718 10.5039 10.1816 10.1352 9.52522 9.47878C8.86884 8.8224 8.50009 7.93216 8.50009 7.00391C8.50009 6.07565 8.86884 5.18541 9.52522 4.52903C10.1816 3.87266 11.0718 3.50391 12.0001 3.50391Z" fill="#E0E0E0"/>
<path d="M6.24607 13.9999C5.95064 13.9998 5.65808 14.0579 5.38511 14.1708C5.11213 14.2838 4.86409 14.4494 4.65514 14.6583C4.4462 14.8671 4.28045 15.1151 4.16736 15.388C4.05427 15.6609 3.99607 15.9535 3.99607 16.2489V17.1669C3.99617 17.7404 4.17554 18.2994 4.50907 18.7659C6.05507 20.9289 8.58007 21.9999 12.0001 21.9999C15.4221 21.9999 17.9451 20.9279 19.4871 18.7629C19.8187 18.2972 19.997 17.7397 19.9971 17.1679V16.2479C19.9972 15.9525 19.9391 15.6599 19.8262 15.3869C19.7132 15.114 19.5476 14.8659 19.3387 14.657C19.1299 14.448 18.8819 14.2823 18.609 14.1692C18.336 14.0561 18.0435 13.9979 17.7481 13.9979H6.24707L6.24607 13.9999ZM12.0001 2.00391C10.674 2.00391 9.40222 2.53069 8.46454 3.46837C7.52685 4.40605 7.00007 5.67782 7.00007 7.00391C7.00007 8.32999 7.52685 9.60176 8.46454 10.5394C9.40222 11.4771 10.674 12.0039 12.0001 12.0039C13.3262 12.0039 14.5979 11.4771 15.5356 10.5394C16.4733 9.60176 17.0001 8.32999 17.0001 7.00391C17.0001 5.67782 16.4733 4.40605 15.5356 3.46837C14.5979 2.53069 13.3262 2.00391 12.0001 2.00391Z" fill="#E0E0E0"/>
</svg>
