<svg width="17" height="16" viewBox="0 0 17 16" fill="none" xmlns="http://www.w3.org/2000/svg">
<path d="M8.3338 2C8.45463 2.00001 8.57136 2.04376 8.66242 2.12318C8.75348 2.20259 8.8127 2.3123 8.82913 2.432L8.8338 2.5L8.83447 7.33333H13.6698C13.7965 7.33337 13.9184 7.3815 14.011 7.46798C14.1036 7.55447 14.1599 7.67287 14.1685 7.79925C14.1771 7.92564 14.1375 8.05059 14.0575 8.14887C13.9776 8.24714 13.8633 8.3114 13.7378 8.32867L13.6698 8.33333H8.83447L8.8358 13.1667C8.83559 13.2933 8.78735 13.4151 8.70081 13.5076C8.61427 13.6 8.49589 13.6562 8.36955 13.6647C8.24321 13.6733 8.11834 13.6336 8.02014 13.5536C7.92194 13.4737 7.85773 13.3594 7.84047 13.234L7.8358 13.166L7.83447 8.33333H3.0018C2.87512 8.33329 2.75317 8.28517 2.66061 8.19868C2.56804 8.1122 2.51175 7.9938 2.50312 7.86741C2.49448 7.74103 2.53414 7.61607 2.61409 7.5178C2.69403 7.41953 2.8083 7.35527 2.9338 7.338L3.0018 7.33333H7.83513L7.8338 2.5C7.8338 2.36739 7.88648 2.24021 7.98025 2.14645C8.07402 2.05268 8.20119 2 8.3338 2Z" fill="#0072C3"/>
</svg>
