<svg width="16" height="16" viewBox="0 0 16 16" fill="none" xmlns="http://www.w3.org/2000/svg">
<path d="M7.8338 2C7.95463 2.00001 8.07136 2.04376 8.16242 2.12318C8.25348 2.20259 8.3127 2.3123 8.32913 2.432L8.3338 2.5L8.33447 7.33333H13.1698C13.2965 7.33337 13.4184 7.3815 13.511 7.46798C13.6036 7.55447 13.6599 7.67287 13.6685 7.79925C13.6771 7.92564 13.6375 8.05059 13.5575 8.14887C13.4776 8.24714 13.3633 8.3114 13.2378 8.32867L13.1698 8.33333H8.33447L8.3358 13.1667C8.33559 13.2933 8.28735 13.4151 8.20081 13.5076C8.11427 13.6 7.99589 13.6562 7.86955 13.6647C7.74321 13.6733 7.61834 13.6336 7.52014 13.5536C7.42194 13.4737 7.35773 13.3594 7.34047 13.234L7.3358 13.166L7.33447 8.33333H2.5018C2.37512 8.33329 2.25317 8.28517 2.16061 8.19868C2.06804 8.1122 2.01175 7.9938 2.00312 7.86741C1.99448 7.74103 2.03414 7.61607 2.11409 7.5178C2.19403 7.41953 2.3083 7.35527 2.4338 7.338L2.5018 7.33333H7.33513L7.3338 2.5C7.3338 2.36739 7.38648 2.24021 7.48025 2.14645C7.57402 2.05268 7.70119 2 7.8338 2Z" fill="white"/>
</svg>
