<svg width="64" height="64" viewBox="0 0 64 64" fill="none" xmlns="http://www.w3.org/2000/svg">
<path d="M31.9999 5.33057C17.2692 5.33057 5.32787 17.2719 5.32787 32.0026C5.32787 46.7306 17.2692 58.6719 31.9999 58.6719C46.7305 58.6719 58.6719 46.7306 58.6719 32.0026C58.6719 17.2719 46.7305 5.33057 31.9999 5.33057ZM31.9999 9.33057C34.9977 9.29805 37.9722 9.86043 40.7513 10.9852C43.5303 12.1099 46.0587 13.7746 48.1901 15.883C50.3215 17.9914 52.0136 20.5016 53.1684 23.2683C54.3231 26.035 54.9178 29.0032 54.9178 32.0012C54.9178 34.9993 54.3231 37.9675 53.1684 40.7342C52.0136 43.5009 50.3215 46.0111 48.1901 48.1195C46.0587 50.2279 43.5303 51.8926 40.7513 53.0173C37.9722 54.142 34.9977 54.7044 31.9999 54.6719C26.0478 54.5806 20.3704 52.1521 16.1936 47.9107C12.0168 43.6693 9.67559 37.9553 9.67559 32.0026C9.67559 26.0498 12.0168 20.3358 16.1936 16.0945C20.3704 11.8531 26.0478 9.42453 31.9999 9.33323V9.33057ZM32.0105 27.9972C31.5268 27.9966 31.0592 28.1713 30.6944 28.4891C30.3296 28.8068 30.0923 29.246 30.0265 29.7252L30.0079 29.9972L29.9999 44.6692C30 45.176 30.1925 45.6637 30.5385 46.034C30.8844 46.4043 31.358 46.6294 31.8636 46.664C32.3691 46.6985 32.8689 46.5399 33.262 46.2201C33.6551 45.9003 33.9121 45.4432 33.9812 44.9412L33.9999 44.6719L34.0079 29.9999C34.0079 29.4695 33.7972 28.9608 33.4221 28.5857C33.047 28.2106 32.5383 27.9999 32.0079 27.9999L32.0105 27.9972ZM31.9999 18.6746C31.6431 18.6633 31.2877 18.7238 30.9548 18.8525C30.6219 18.9813 30.3183 19.1756 30.0619 19.4239C29.8055 19.6723 29.6017 19.9697 29.4625 20.2983C29.3233 20.627 29.2516 20.9803 29.2516 21.3372C29.2516 21.6942 29.3233 22.0475 29.4625 22.3761C29.6017 22.7048 29.8055 23.0022 30.0619 23.2505C30.3183 23.4989 30.6219 23.6932 30.9548 23.8219C31.2877 23.9507 31.6431 24.0112 31.9999 23.9999C32.6915 23.978 33.3474 23.6879 33.8289 23.1909C34.3104 22.694 34.5796 22.0292 34.5796 21.3372C34.5796 20.6453 34.3104 19.9805 33.8289 19.4835C33.3474 18.9866 32.6915 18.6965 31.9999 18.6746Z" fill="#8D8D8D"/>
</svg>
