<svg width="408" height="526" viewBox="0 0 408 526" fill="none" xmlns="http://www.w3.org/2000/svg">
<rect y="469" width="57" height="57" rx="12" fill="#78A9FF"/>
<path d="M29.0006 478.832C39.5882 478.832 48.1711 487.414 48.1711 498.002C48.1711 508.588 39.5882 517.171 29.0006 517.171C18.4129 517.171 9.83008 508.588 9.83008 498.002C9.83008 487.414 18.4129 478.832 29.0006 478.832ZM28.9929 494.644C28.5232 494.645 28.0701 494.818 27.7196 495.13C27.3691 495.443 27.1456 495.874 27.0916 496.34L27.0782 496.563L27.0839 507.108L27.0973 507.332C27.1514 507.8 27.3755 508.231 27.7269 508.544C28.0784 508.857 28.5327 509.029 29.0032 509.029C29.4738 509.028 29.9277 508.855 30.2786 508.541C30.6294 508.228 30.8527 507.796 30.9057 507.329L30.9172 507.104L30.9115 496.561L30.8981 496.336C30.8427 495.87 30.6181 495.441 30.2669 495.129C29.9157 494.817 29.4624 494.645 28.9929 494.646V494.644ZM29.0006 487.458C28.3644 487.458 27.7543 487.711 27.3044 488.161C26.8546 488.611 26.6019 489.221 26.6019 489.857C26.6019 490.493 26.8546 491.103 27.3044 491.553C27.7543 492.003 28.3644 492.256 29.0006 492.256C29.6368 492.256 30.2469 492.003 30.6967 491.553C31.1466 491.103 31.3993 490.493 31.3993 489.857C31.3993 489.221 31.1466 488.611 30.6967 488.161C30.2469 487.711 29.6368 487.458 29.0006 487.458Z" fill="white"/>
</svg>
