<svg width="69" height="69" viewBox="0 0 69 69" fill="none" xmlns="http://www.w3.org/2000/svg">
<rect y="9" width="60" height="60" rx="12" fill="#42BE65"/>
<rect x="46" width="23" height="23" rx="11.5" fill="#FA4D56"/>
<path d="M56.5962 16.9927C56.5962 16.823 56.5962 16.6485 56.5962 16.4691C56.5962 16.2848 56.601 16.0958 56.6107 15.9018C56.6204 15.3394 56.6253 14.7091 56.6253 14.0109C56.6253 13.3176 56.5962 12.5806 56.538 11.8C56.4847 11.0194 56.3877 10.2097 56.2471 9.37091C56.1113 8.52727 55.9101 7.67879 55.6435 6.82545L56.9453 6.40364C57.2313 7.3103 57.4471 8.20727 57.5926 9.09455C57.7429 9.97697 57.8471 10.8279 57.9053 11.6473C57.9683 12.4618 57.9998 13.2303 57.9998 13.9527C57.9998 14.68 57.995 15.337 57.9853 15.9236C57.9756 16.1176 57.9707 16.3042 57.9707 16.4836C57.9707 16.663 57.9707 16.8327 57.9707 16.9927H56.5962Z" fill="white"/>
<path d="M49.1673 39.0002C49.1673 28.4144 40.5864 19.8335 30.0007 19.8335C19.4149 19.8335 10.834 28.4144 10.834 39.0002C10.8297 42.1053 11.583 45.1645 13.0286 47.9127L10.8896 56.1332C10.8183 56.4081 10.8201 56.6967 10.8947 56.9707C10.9693 57.2446 11.1143 57.4942 11.3151 57.6949C11.516 57.8955 11.7658 58.0402 12.0398 58.1146C12.3138 58.189 12.6024 58.1905 12.8772 58.1189L21.0997 55.978C23.8449 57.4197 26.8999 58.1709 30.0007 58.1668C40.5864 58.1668 49.1673 49.5859 49.1673 39.0002Z" fill="white"/>
</svg>
