<svg width="40" height="40" viewBox="0 0 40 40" fill="none" xmlns="http://www.w3.org/2000/svg">
<path d="M39.1673 20.0002C39.1673 9.41441 30.5864 0.833496 20.0007 0.833496C9.41492 0.833496 0.834002 9.41441 0.834002 20.0002C0.82973 23.1053 1.58304 26.1645 3.02859 28.9127L0.889586 37.1332C0.818294 37.4081 0.820056 37.6967 0.894696 37.9707C0.969336 38.2446 1.11426 38.4942 1.31511 38.6949C1.51596 38.8955 1.76577 39.0402 2.03976 39.1146C2.31375 39.189 2.60243 39.1905 2.87717 39.1189L11.0997 36.978C13.8449 38.4197 16.8999 39.1709 20.0007 39.1668C30.5864 39.1668 39.1673 30.5859 39.1673 20.0002Z" fill="white"/>
</svg>
