<svg width="16" height="16" viewBox="0 0 16 16" fill="none" xmlns="http://www.w3.org/2000/svg">
<path d="M8.00016 1.3335C11.6822 1.3335 14.6668 4.31816 14.6668 8.00016C14.6668 11.6822 11.6822 14.6668 8.00016 14.6668C4.31816 14.6668 1.3335 11.6822 1.3335 8.00016C1.3335 4.31816 4.31816 1.3335 8.00016 1.3335ZM8.00016 2.3335C6.49727 2.3335 5.05593 2.93052 3.99322 3.99322C2.93052 5.05593 2.3335 6.49727 2.3335 8.00016C2.3335 9.50306 2.93052 10.9444 3.99322 12.0071C5.05593 13.0698 6.49727 13.6668 8.00016 13.6668C9.50306 13.6668 10.9444 13.0698 12.0071 12.0071C13.0698 10.9444 13.6668 9.50306 13.6668 8.00016C13.6668 6.49727 13.0698 5.05593 12.0071 3.99322C10.9444 2.93052 9.50306 2.3335 8.00016 2.3335ZM7.16683 8.96016L10.1468 5.98016C10.2362 5.89152 10.3556 5.83983 10.4814 5.8354C10.6072 5.83098 10.73 5.87413 10.8253 5.95627C10.9207 6.0384 10.9815 6.15347 10.9958 6.27851C11.01 6.40355 10.9766 6.52936 10.9022 6.63083L10.8535 6.68683L7.52016 10.0202C7.4355 10.1048 7.32327 10.1563 7.20386 10.1653C7.08446 10.1742 6.96581 10.14 6.8695 10.0688L6.8135 10.0202L5.14683 8.3535C5.05819 8.26416 5.0065 8.14469 5.00207 8.01892C4.99764 7.89315 5.0408 7.77034 5.12294 7.67499C5.20507 7.57965 5.32014 7.51878 5.44518 7.50454C5.57021 7.4903 5.69602 7.52373 5.7975 7.59816L5.8535 7.64683L7.16683 8.96016L10.1468 5.98016L7.16683 8.96016Z" fill="#F4F4F4"/>
<path d="M8.00016 1.33325C11.6822 1.33325 14.6668 4.31792 14.6668 7.99992C14.6668 11.6819 11.6822 14.6666 8.00016 14.6666C4.31816 14.6666 1.3335 11.6819 1.3335 7.99992C1.3335 4.31792 4.31816 1.33325 8.00016 1.33325ZM10.1468 5.97992L7.16683 8.95992L5.8535 7.64658C5.75871 7.55827 5.63335 7.51018 5.50381 7.51247C5.37428 7.51475 5.25069 7.56723 5.15908 7.65884C5.06747 7.75045 5.015 7.87404 5.01271 8.00357C5.01043 8.1331 5.05851 8.25847 5.14683 8.35325L6.8135 10.0199C6.90725 10.1136 7.03433 10.1661 7.16683 10.1661C7.29933 10.1661 7.42641 10.1136 7.52016 10.0199L10.8535 6.68658C10.9026 6.64081 10.942 6.58561 10.9693 6.52428C10.9967 6.46294 11.0114 6.39674 11.0126 6.3296C11.0137 6.26246 11.0014 6.19578 10.9762 6.13352C10.9511 6.07126 10.9137 6.01471 10.8662 5.96723C10.8187 5.91975 10.7622 5.88232 10.6999 5.85717C10.6376 5.83202 10.5709 5.81967 10.5038 5.82086C10.4367 5.82204 10.3705 5.83674 10.3091 5.86406C10.2478 5.89139 10.1926 5.93079 10.1468 5.97992Z" fill="#24A148"/>
</svg>
