<svg width="16" height="16" viewBox="0 0 16 16" fill="none" xmlns="http://www.w3.org/2000/svg">
<path d="M8.00016 1.33325C11.6822 1.33325 14.6668 4.31792 14.6668 7.99992C14.6668 11.6819 11.6822 14.6666 8.00016 14.6666C4.31816 14.6666 1.3335 11.6819 1.3335 7.99992C1.3335 4.31792 4.31816 1.33325 8.00016 1.33325ZM10.3535 5.64658L10.2975 5.59792C10.2125 5.53512 10.1099 5.50085 10.0043 5.50001C9.89862 5.49917 9.79543 5.53181 9.7095 5.59325L9.64683 5.64658L8.00016 7.29258L6.3535 5.64592L6.2975 5.59792C6.21255 5.53512 6.10989 5.50085 6.00425 5.50001C5.89862 5.49917 5.79543 5.53181 5.7095 5.59325L5.64683 5.64658L5.59816 5.70258C5.53537 5.78754 5.50109 5.89019 5.50026 5.99583C5.49942 6.10146 5.53206 6.20465 5.5935 6.29059L5.64683 6.35325L7.29283 7.99992L5.64616 9.64658L5.59816 9.70258C5.53537 9.78753 5.50109 9.89019 5.50026 9.99583C5.49942 10.1015 5.53206 10.2046 5.5935 10.2906L5.64683 10.3533L5.70283 10.4019C5.78778 10.4647 5.89044 10.499 5.99607 10.4998C6.10171 10.5007 6.20489 10.468 6.29083 10.4066L6.3535 10.3533L8.00016 8.70725L9.64683 10.3539L9.70283 10.4019C9.78778 10.4647 9.89044 10.499 9.99607 10.4998C10.1017 10.5007 10.2049 10.468 10.2908 10.4066L10.3535 10.3533L10.4022 10.2973C10.465 10.2123 10.4992 10.1096 10.5001 10.004C10.5009 9.89837 10.4683 9.79519 10.4068 9.70925L10.3535 9.64658L8.7075 7.99992L10.3542 6.35325L10.4022 6.29725C10.465 6.2123 10.4992 6.10965 10.5001 6.00401C10.5009 5.89837 10.4683 5.79519 10.4068 5.70925L10.3535 5.64658L10.2975 5.59792L10.3535 5.64658Z" fill="#FA4D56"/>
</svg>
