<svg width="16" height="16" viewBox="0 0 16 16" fill="none" xmlns="http://www.w3.org/2000/svg">
<path d="M2.93209 3.0358L2.98076 2.9798C3.06541 2.89512 3.17765 2.84364 3.29706 2.8347C3.41646 2.82577 3.53511 2.85999 3.63142 2.93113L3.68742 2.9798L8.00076 7.29247L12.3141 2.97913C12.3602 2.9314 12.4154 2.89333 12.4764 2.86716C12.5375 2.84098 12.6031 2.82722 12.6695 2.82668C12.7358 2.82613 12.8017 2.83881 12.8631 2.86398C12.9246 2.88915 12.9804 2.92631 13.0273 2.97327C13.0742 3.02024 13.1113 3.07608 13.1364 3.13754C13.1615 3.199 13.1742 3.26485 13.1735 3.33124C13.1729 3.39763 13.1591 3.46323 13.1329 3.52422C13.1066 3.58521 13.0685 3.64036 13.0208 3.68647L8.70809 7.9998L13.0214 12.3131C13.106 12.3979 13.1574 12.5102 13.1662 12.6296C13.175 12.749 13.1407 12.8676 13.0694 12.9638L13.0208 13.0198C12.9361 13.1045 12.8239 13.156 12.7045 13.1649C12.585 13.1738 12.4664 13.1396 12.3701 13.0685L12.3141 13.0198L8.00076 8.70713L3.68742 13.0205C3.59308 13.1115 3.46675 13.1618 3.33566 13.1606C3.20456 13.1594 3.07918 13.1068 2.98651 13.014C2.89385 12.9213 2.84133 12.7959 2.84025 12.6648C2.83917 12.5337 2.88963 12.4074 2.98076 12.3131L7.29342 7.9998L2.98009 3.68647C2.89551 3.60172 2.84415 3.48944 2.83534 3.37004C2.82653 3.25064 2.86086 3.13204 2.93209 3.0358L2.98076 2.9798L2.93209 3.0358Z" fill="#262626"/>
</svg>
