<svg width="37" height="36" viewBox="0 0 37 36" fill="none" xmlns="http://www.w3.org/2000/svg">
<path d="M27.5294 8.97006C28.2004 9.64107 28.5773 10.5511 28.5773 11.5001C28.5773 12.449 28.2004 13.3591 27.5294 14.0301L15.5614 26.0001C15.2845 26.277 14.9402 26.477 14.5624 26.5801L9.44638 27.9751C9.31887 28.0097 9.18448 28.01 9.05682 27.9759C8.92916 27.9419 8.81275 27.8747 8.71938 27.7813C8.62601 27.6878 8.55899 27.5713 8.5251 27.4436C8.4912 27.3159 8.49165 27.1815 8.52638 27.0541L9.92138 21.9381C10.0245 21.5603 10.2244 21.2159 10.5014 20.9391L22.4694 8.97006C23.1404 8.29908 24.0504 7.92212 24.9994 7.92212C25.9483 7.92212 26.8584 8.29908 27.5294 8.97006ZM21.4994 12.0601L11.5614 22.0001C11.4692 22.0924 11.4027 22.2072 11.3684 22.3331L10.3184 26.1831L14.1684 25.1331C14.2938 25.0979 14.4078 25.0307 14.4994 24.9381L24.4394 15.0001L21.4994 12.0601ZM23.5294 10.0301L22.5594 11.0001L25.4994 13.9401L26.4694 12.9701C26.8528 12.5789 27.0663 12.0522 27.0635 11.5044C27.0607 10.9567 26.8419 10.4322 26.4546 10.0448C26.0673 9.65752 25.5428 9.43871 24.995 9.43594C24.4473 9.43317 23.9206 9.64668 23.5294 10.0301Z" fill="#262626"/>
</svg>
