<svg width="16" height="16" viewBox="0 0 16 16" fill="none" xmlns="http://www.w3.org/2000/svg">
<path d="M2 8C2 4.68629 4.68629 2 8 2C11.3137 2 14 4.68629 14 8C14 11.3137 11.3137 14 8 14C4.68629 14 2 11.3137 2 8Z" fill="white"/>
<path d="M7.99997 14.668C4.3173 14.668 1.33197 11.6827 1.33197 8.00003C1.33197 4.31803 4.3173 1.3327 7.99997 1.3327C11.6826 1.3327 14.668 4.31803 14.668 8.00003C14.668 11.6827 11.6826 14.668 7.99997 14.668ZM8.00264 9.16803C8.16601 9.16781 8.32362 9.1076 8.44554 8.99883C8.56745 8.89007 8.64518 8.74032 8.66397 8.57803L8.66864 8.5007L8.66664 4.83269L8.66197 4.7547C8.64318 4.59211 8.56523 4.44211 8.44298 4.33329C8.32072 4.22447 8.16271 4.16442 7.99904 4.16458C7.83537 4.16475 7.67748 4.22511 7.55545 4.33418C7.43342 4.44325 7.35577 4.5934 7.3373 4.75603L7.3333 4.83403L7.3353 8.50136L7.33997 8.57936C7.35924 8.74152 7.43736 8.89097 7.55951 8.99936C7.68165 9.10774 7.83933 9.16819 8.00264 9.16803ZM7.99997 11.6674C8.22125 11.6674 8.43346 11.5795 8.58993 11.423C8.7464 11.2665 8.8343 11.0543 8.8343 10.833C8.8343 10.6118 8.7464 10.3995 8.58993 10.2431C8.43346 10.0866 8.22125 9.9987 7.99997 9.9987C7.77869 9.9987 7.56647 10.0866 7.41001 10.2431C7.25354 10.3995 7.16564 10.6117 7.16564 10.833C7.16564 11.0543 7.25354 11.2665 7.41001 11.423C7.56647 11.5795 7.77869 11.6674 7.99997 11.6674Z" fill="#DA1E28"/>
</svg>
