<svg width="64" height="64" viewBox="0 0 64 64" fill="none" xmlns="http://www.w3.org/2000/svg">
<path d="M34.9081 7.41844C33.5812 6.68371 32.0253 6.4788 30.5534 6.84491C29.0815 7.21103 27.8029 8.12102 26.9748 9.39177L26.7535 9.75977L6.06279 47.1171C5.5743 48 5.31633 48.9917 5.31275 50.0007C5.30917 51.0097 5.5601 52.0033 6.04232 52.8895C6.52454 53.7758 7.22248 54.5262 8.07159 55.0712C8.92069 55.6163 9.89353 55.9384 10.9001 56.0078L11.3108 56.0238H52.6868C53.6949 56.0242 54.6869 55.7706 55.5711 55.2865C56.4554 54.8023 57.2033 54.1031 57.746 53.2535C58.2887 52.4039 58.6085 51.4313 58.676 50.4254C58.7435 49.4196 58.5564 48.4129 58.1321 47.4984L57.9401 47.1171L37.2521 9.75977C36.706 8.7748 35.8937 7.96342 34.9081 7.41844Z" fill="#262626"/>
<path d="M34.9081 7.41844C33.5812 6.68371 32.0253 6.4788 30.5534 6.84491C29.0815 7.21103 27.8029 8.12102 26.9748 9.39177L26.7535 9.75977L6.06279 47.1171C5.5743 48 5.31633 48.9917 5.31275 50.0007C5.30918 51.0097 5.5601 52.0033 6.04232 52.8895C6.52454 53.7758 7.22248 54.5262 8.07159 55.0712C8.92069 55.6163 9.89353 55.9384 10.9001 56.0078L11.3108 56.0238H52.6868C53.6949 56.0242 54.6869 55.7706 55.5711 55.2865C56.4554 54.8023 57.2033 54.1031 57.746 53.2535C58.2887 52.4039 58.6085 51.4313 58.676 50.4254C58.7435 49.4196 58.5564 48.4129 58.1321 47.4984L57.9401 47.1171L37.2521 9.75977C36.706 8.7748 35.8937 7.96342 34.9081 7.41844ZM31.9988 42.6718C32.3555 42.6605 32.7109 42.721 33.0438 42.8497C33.3768 42.9785 33.6804 43.1728 33.9368 43.4211C34.1931 43.6695 34.3969 43.9669 34.5361 44.2955C34.6753 44.6242 34.7471 44.9775 34.7471 45.3344C34.7471 45.6914 34.6753 46.0447 34.5361 46.3733C34.3969 46.702 34.1931 46.9994 33.9368 47.2477C33.6804 47.4961 33.3768 47.6904 33.0438 47.8191C32.7109 47.9479 32.3555 48.0084 31.9988 47.9971C31.3072 47.9752 30.6512 47.6851 30.1698 47.1881C29.6883 46.6912 29.4191 46.0264 29.4191 45.3344C29.4191 44.6425 29.6883 43.9777 30.1698 43.4807C30.6512 42.9838 31.3072 42.6937 31.9988 42.6718ZM32.0041 21.3278C32.6577 21.3279 33.2884 21.5681 33.7766 22.0027C34.2647 22.4372 34.5763 23.036 34.6521 23.6851L34.6655 23.9944V37.3331L34.6468 37.6451C34.5723 38.2955 34.2611 38.8958 33.7725 39.3316C33.2839 39.7674 32.6521 40.0082 31.9975 40.0082C31.3428 40.0082 30.711 39.7674 30.2224 39.3316C29.7338 38.8958 29.4226 38.2955 29.3481 37.6451L29.3321 37.3331V23.9944L29.3508 23.6824C29.4273 23.0333 29.7395 22.4349 30.2281 22.0008C30.7168 21.5667 31.3505 21.3272 32.0041 21.3278Z" fill="#F1C21B"/>
</svg>
