<svg width="24" height="24" viewBox="0 0 24 24" fill="none" xmlns="http://www.w3.org/2000/svg">
<path d="M10.9102 2.7821C11.4078 2.50658 11.9913 2.42973 12.5432 2.56703C13.0952 2.70432 13.5747 3.04556 13.8852 3.5221L13.9682 3.6601L21.7272 17.6691C21.9104 18.0002 22.0071 18.3721 22.0084 18.7504C22.0098 19.1288 21.9157 19.5014 21.7349 19.8338C21.554 20.1661 21.2923 20.4475 20.9739 20.6519C20.6555 20.8563 20.2907 20.9771 19.9132 21.0031L19.7592 21.0091H4.24319C3.86514 21.0093 3.49315 20.9142 3.16156 20.7326C2.82997 20.551 2.54948 20.2889 2.34598 19.9703C2.14248 19.6517 2.02254 19.2869 1.99723 18.9097C1.97193 18.5325 2.04207 18.155 2.20119 17.8121L2.27319 17.6691L10.0312 3.6601C10.236 3.29073 10.5406 2.98647 10.9102 2.7821Z" fill="#262626"/>
<path d="M10.9102 2.7821C11.4078 2.50658 11.9913 2.42973 12.5432 2.56703C13.0952 2.70432 13.5747 3.04556 13.8852 3.5221L13.9682 3.6601L21.7272 17.6691C21.9104 18.0002 22.0071 18.3721 22.0084 18.7504C22.0098 19.1288 21.9157 19.5014 21.7349 19.8338C21.554 20.1661 21.2923 20.4475 20.9739 20.6519C20.6555 20.8563 20.2907 20.9771 19.9132 21.0031L19.7592 21.0091H4.24319C3.86514 21.0093 3.49315 20.9142 3.16156 20.7326C2.82997 20.551 2.54948 20.2889 2.34598 19.9703C2.14248 19.6517 2.02254 19.2869 1.99723 18.9097C1.97193 18.5325 2.04207 18.155 2.20119 17.8121L2.27319 17.6691L10.0312 3.6601C10.236 3.29073 10.5406 2.98647 10.9102 2.7821ZM12.0012 16.0021C11.8674 15.9979 11.7341 16.0206 11.6093 16.0688C11.4844 16.1171 11.3706 16.19 11.2744 16.2831C11.1783 16.3762 11.1019 16.4878 11.0497 16.611C10.9975 16.7343 10.9706 16.8667 10.9706 17.0006C10.9706 17.1344 10.9975 17.2669 11.0497 17.3902C11.1019 17.5134 11.1783 17.6249 11.2744 17.7181C11.3706 17.8112 11.4844 17.8841 11.6093 17.9324C11.7341 17.9806 11.8674 18.0033 12.0012 17.9991C12.2605 17.9909 12.5065 17.8821 12.6871 17.6957C12.8676 17.5094 12.9686 17.2601 12.9686 17.0006C12.9686 16.7411 12.8676 16.4918 12.6871 16.3055C12.5065 16.1191 12.2605 16.0103 12.0012 16.0021ZM11.9992 7.9981C11.7541 7.99816 11.5176 8.08822 11.3345 8.25119C11.1515 8.41415 11.0346 8.63866 11.0062 8.8821L11.0012 8.9981V14.0001L11.0082 14.1171C11.0361 14.361 11.1528 14.5861 11.336 14.7495C11.5193 14.913 11.7562 15.0033 12.0017 15.0033C12.2472 15.0033 12.4841 14.913 12.6673 14.7495C12.8505 14.5861 12.9672 14.361 12.9952 14.1171L13.0012 14.0001V8.9981L12.9942 8.8811C12.9655 8.63767 12.8484 8.41326 12.6652 8.25048C12.4819 8.0877 12.2443 7.99788 11.9992 7.9981Z" fill="#F1C21B"/>
</svg>
