<svg width="32" height="32" viewBox="0 0 32 32" xmlns="http://www.w3.org/2000/svg">
  <path
    d="M21.75 7C22.612 7 23.4386 7.34241 24.0481 7.9519C24.6576 8.5614 25 9.38805 25 10.25V21.75C25 22.612 24.6576 23.4386 24.0481 24.0481C23.4386 24.6576 22.612 25 21.75 25H10.25C9.38805 25 8.5614 24.6576 7.9519 24.0481C7.34241 23.4386 7 22.612 7 21.75V10.25C7 9.38805 7.34241 8.5614 7.9519 7.9519C8.5614 7.34241 9.38805 7 10.25 7H21.75ZM23.5 12.5H8.5V21.75C8.5 22.716 9.284 23.5 10.25 23.5H21.75C22.2141 23.5 22.6592 23.3156 22.9874 22.9874C23.3156 22.6592 23.5 22.2141 23.5 21.75V12.5ZM11.75 18.5C12.0815 18.5 12.3995 18.6317 12.6339 18.8661C12.8683 19.1005 13 19.4185 13 19.75C13 20.0815 12.8683 20.3995 12.6339 20.6339C12.3995 20.8683 12.0815 21 11.75 21C11.4185 21 11.1005 20.8683 10.8661 20.6339C10.6317 20.3995 10.5 20.0815 10.5 19.75C10.5 19.4185 10.6317 19.1005 10.8661 18.8661C11.1005 18.6317 11.4185 18.5 11.75 18.5ZM16 18.5C16.3315 18.5 16.6495 18.6317 16.8839 18.8661C17.1183 19.1005 17.25 19.4185 17.25 19.75C17.25 20.0815 17.1183 20.3995 16.8839 20.6339C16.6495 20.8683 16.3315 21 16 21C15.6685 21 15.3505 20.8683 15.1161 20.6339C14.8817 20.3995 14.75 20.0815 14.75 19.75C14.75 19.4185 14.8817 19.1005 15.1161 18.8661C15.3505 18.6317 15.6685 18.5 16 18.5ZM11.75 14.5C12.0815 14.5 12.3995 14.6317 12.6339 14.8661C12.8683 15.1005 13 15.4185 13 15.75C13 16.0815 12.8683 16.3995 12.6339 16.6339C12.3995 16.8683 12.0815 17 11.75 17C11.4185 17 11.1005 16.8683 10.8661 16.6339C10.6317 16.3995 10.5 16.0815 10.5 15.75C10.5 15.4185 10.6317 15.1005 10.8661 14.8661C11.1005 14.6317 11.4185 14.5 11.75 14.5ZM16 14.5C16.3315 14.5 16.6495 14.6317 16.8839 14.8661C17.1183 15.1005 17.25 15.4185 17.25 15.75C17.25 16.0815 17.1183 16.3995 16.8839 16.6339C16.6495 16.8683 16.3315 17 16 17C15.6685 17 15.3505 16.8683 15.1161 16.6339C14.8817 16.3995 14.75 16.0815 14.75 15.75C14.75 15.4185 14.8817 15.1005 15.1161 14.8661C15.3505 14.6317 15.6685 14.5 16 14.5ZM20.25 14.5C20.5815 14.5 20.8995 14.6317 21.1339 14.8661C21.3683 15.1005 21.5 15.4185 21.5 15.75C21.5 16.0815 21.3683 16.3995 21.1339 16.6339C20.8995 16.8683 20.5815 17 20.25 17C19.9185 17 19.6005 16.8683 19.3661 16.6339C19.1317 16.3995 19 16.0815 19 15.75C19 15.4185 19.1317 15.1005 19.3661 14.8661C19.6005 14.6317 19.9185 14.5 20.25 14.5ZM21.75 8.5H10.25C9.78587 8.5 9.34075 8.68437 9.01256 9.01256C8.68437 9.34075 8.5 9.78587 8.5 10.25V11H23.5V10.25C23.5 9.78587 23.3156 9.34075 22.9874 9.01256C22.6592 8.68437 22.2141 8.5 21.75 8.5Z"/>
</svg>
