<svg width="17" height="21" viewBox="0 0 17 21" fill="none" xmlns="http://www.w3.org/2000/svg">
<path d="M6.99673 18.206L6.99673 13.508C6.99679 13.318 7.06898 13.1351 7.1987 12.9962C7.32843 12.8574 7.50603 12.7729 7.69561 12.76C7.88519 12.747 8.07262 12.8065 8.22003 12.9264C8.36744 13.0463 8.46383 13.2177 8.48973 13.406L8.49673 13.508L8.49673 18.206C8.49673 18.878 8.94673 19.409 9.49773 19.473L9.60973 19.479L14.3857 19.5C14.9467 19.5 15.4317 19.01 15.4897 18.36L15.4957 18.227L15.4957 3.773C15.4957 3.101 15.0457 2.57 14.4947 2.506L14.3827 2.5L9.60673 2.48C9.04573 2.48 8.56073 2.968 8.50273 3.62L8.49673 3.752L8.49673 8.447C8.49667 8.63702 8.42449 8.81994 8.29476 8.95879C8.16503 9.09764 7.98743 9.18207 7.79785 9.19503C7.60827 9.20798 7.42084 9.14848 7.27343 9.02857C7.12603 8.90865 7.02963 8.73725 7.00373 8.549L6.99673 8.447L6.99673 3.752C6.99673 2.292 8.06273 1.076 9.44273 0.985L9.60973 0.979L14.3857 0.999999C15.7857 0.999999 16.9057 2.16 16.9907 3.599L16.9957 3.773L16.9957 18.227C16.9957 19.687 15.9287 20.903 14.5497 20.994L14.3827 21L9.60673 20.98C8.20673 20.98 7.08573 19.82 7.00173 18.38L6.99673 18.206L6.99673 13.508L6.99673 18.206V18.206ZM0.146732 10.554L0.219732 10.47L4.14473 6.545C4.27873 6.41204 4.45794 6.3345 4.64659 6.32786C4.83524 6.32122 5.01946 6.38596 5.16248 6.50916C5.3055 6.63236 5.39681 6.80497 5.41817 6.99252C5.43953 7.18008 5.38938 7.36879 5.27773 7.521L5.20473 7.605L2.54473 10.262L12.2537 10.26C12.4526 10.26 12.6434 10.339 12.7841 10.4797C12.9247 10.6203 13.0037 10.8111 13.0037 11.01C13.0037 11.2089 12.9247 11.3997 12.7841 11.5403C12.6434 11.681 12.4526 11.76 12.2537 11.76L2.56873 11.76L5.20473 14.394C5.33175 14.521 5.40898 14.6893 5.42237 14.8685C5.43577 15.0476 5.38445 15.2255 5.27773 15.37L5.20473 15.454C5.07774 15.581 4.90939 15.6582 4.73028 15.6716C4.55117 15.685 4.3732 15.6337 4.22873 15.527L4.14473 15.454L0.219732 11.53C0.0927144 11.403 0.0154862 11.2347 0.0020897 11.0555C-0.0113068 10.8764 0.0400181 10.6985 0.146732 10.554V10.554Z" fill="#FA4D56"/>
</svg>
