<svg width="16" height="16" viewBox="0 0 16 16" fill="none" xmlns="http://www.w3.org/2000/svg">
<path d="M7.99973 6.00366C8.70697 6.00366 9.38525 6.28461 9.88535 6.78471C10.3854 7.2848 10.6664 7.96308 10.6664 8.67033C10.6664 9.37757 10.3854 10.0558 9.88535 10.5559C9.38525 11.056 8.70697 11.337 7.99973 11.337C7.29249 11.337 6.61421 11.056 6.11411 10.5559C5.61402 10.0558 5.33306 9.37757 5.33306 8.67033C5.33306 7.96308 5.61402 7.2848 6.11411 6.78471C6.61421 6.28461 7.29249 6.00366 7.99973 6.00366ZM7.99973 7.00366C7.5577 7.00366 7.13378 7.17925 6.82122 7.49181C6.50866 7.80438 6.33306 8.2283 6.33306 8.67033C6.33306 9.11235 6.50866 9.53628 6.82122 9.84884C7.13378 10.1614 7.5577 10.337 7.99973 10.337C8.44176 10.337 8.86568 10.1614 9.17824 9.84884C9.4908 9.53628 9.6664 9.11235 9.6664 8.67033C9.6664 8.2283 9.4908 7.80438 9.17824 7.49181C8.86568 7.17925 8.44176 7.00366 7.99973 7.00366ZM7.99973 3.66699C11.0751 3.66699 13.7304 5.76699 14.4671 8.70966C14.4993 8.83829 14.4792 8.97447 14.411 9.08824C14.3429 9.20201 14.2324 9.28406 14.1037 9.31633C13.9751 9.34859 13.8389 9.32844 13.7251 9.2603C13.6114 9.19217 13.5293 9.08162 13.4971 8.95299C13.1889 7.7282 12.4805 6.64139 11.4844 5.86502C10.4882 5.08865 9.26132 4.66718 7.99836 4.66748C6.73539 4.66779 5.5087 5.08986 4.51292 5.86671C3.51713 6.64357 2.8093 7.73072 2.50173 8.95566C2.46719 9.08161 2.38474 9.18905 2.27201 9.255C2.15928 9.32095 2.02522 9.34017 1.8985 9.30856C1.77178 9.27694 1.66246 9.197 1.59392 9.08583C1.52538 8.97466 1.50306 8.84108 1.53173 8.71366C1.89325 7.27196 2.72604 5.99236 3.89787 5.07804C5.0697 4.16372 6.5134 3.66708 7.99973 3.66699Z" fill="#0072C3"/>
</svg>
