<svg width="17" height="16" viewBox="0 0 17 16" fill="none" xmlns="http://www.w3.org/2000/svg">
<path d="M5.16667 2H3.83333C3.47971 2 3.14057 2.14048 2.89052 2.39052C2.64048 2.64057 2.5 2.97971 2.5 3.33333V4.66667M11.8333 2H13.1667C13.5203 2 13.8594 2.14048 14.1095 2.39052C14.3595 2.64057 14.5 2.97971 14.5 3.33333V4.66667M11.1667 5.33333V6.66667M5.83333 5.33333V6.66667M6.5 10.6667C6.5 10.6667 7.16667 11.3333 8.5 11.3333C9.83333 11.3333 10.5 10.6667 10.5 10.6667M8.5 5.33333V8.66667H7.83333M5.16667 14H3.83333C3.47971 14 3.14057 13.8595 2.89052 13.6095C2.64048 13.3594 2.5 13.0203 2.5 12.6667V11.3333M11.8333 14H13.1667C13.5203 14 13.8594 13.8595 14.1095 13.6095C14.3595 13.3594 14.5 13.0203 14.5 12.6667V11.3333" stroke="#0072C3" stroke-linecap="round" stroke-linejoin="round"/>
</svg>
