<svg width="33" height="32" viewBox="0 0 33 32" fill="none" xmlns="http://www.w3.org/2000/svg">
<path d="M16.5006 2.6665C9.13664 2.6665 3.16731 8.63584 3.16731 15.9998C3.16731 23.3638 9.13664 29.3332 16.5006 29.3332C18.6287 29.3361 20.7262 28.8276 22.6166 27.8505L27.718 29.2732C28.0026 29.3526 28.3032 29.3549 28.589 29.2799C28.8748 29.2049 29.1356 29.0553 29.3445 28.8464C29.5534 28.6374 29.7031 28.3767 29.7781 28.0909C29.8531 27.8051 29.8507 27.5044 29.7713 27.2198L28.3473 22.1225C29.3268 20.2304 29.8367 18.1304 29.834 15.9998C29.834 8.63584 23.8646 2.6665 16.5006 2.6665ZM16.5006 4.6665C19.5064 4.6665 22.3891 5.86055 24.5145 7.98596C26.6399 10.1114 27.834 12.9941 27.834 15.9998C27.834 17.9598 27.3366 19.8438 26.4033 21.5158L26.2033 21.8758L27.686 27.1878L22.37 25.7052L22.01 25.9052C20.4975 26.7461 18.8125 27.2295 17.0842 27.3182C15.3559 27.407 13.6302 27.0988 12.0395 26.4173C10.4488 25.7358 9.0353 24.699 7.90738 23.3865C6.77946 22.074 5.96709 20.5207 5.53256 18.8455C5.09803 17.1704 5.05289 15.418 5.40059 13.7228C5.74829 12.0275 6.47961 10.4344 7.53845 9.06552C8.5973 7.6967 9.95555 6.58853 11.5091 5.826C13.0626 5.06347 14.7701 4.66684 16.5006 4.6665ZM16.5006 20.6665C16.147 20.6665 15.8079 20.807 15.5578 21.057C15.3078 21.3071 15.1673 21.6462 15.1673 21.9998C15.1673 22.3535 15.3078 22.6926 15.5578 22.9426C15.8079 23.1927 16.147 23.3332 16.5006 23.3332C16.8543 23.3332 17.1934 23.1927 17.4434 22.9426C17.6935 22.6926 17.834 22.3535 17.834 21.9998C17.834 21.6462 17.6935 21.3071 17.4434 21.057C17.1934 20.807 16.8543 20.6665 16.5006 20.6665ZM16.5006 8.99984C15.5282 8.99984 14.5955 9.38615 13.9079 10.0738C13.2203 10.7614 12.834 11.694 12.834 12.6665C12.834 14.0132 13.23 14.7652 14.2353 15.8118L14.4606 16.0398C15.29 16.8692 15.5006 17.2212 15.5006 17.9998C15.5006 18.2651 15.606 18.5194 15.7935 18.7069C15.9811 18.8945 16.2354 18.9998 16.5006 18.9998C16.7659 18.9998 17.0202 18.8945 17.2077 18.7069C17.3953 18.5194 17.5006 18.2651 17.5006 17.9998C17.5006 16.6532 17.1046 15.9012 16.0993 14.8545L15.874 14.6265C15.0446 13.7972 14.834 13.4452 14.834 12.6665C14.8354 12.2402 15 11.8306 15.2941 11.522C15.5882 11.2134 15.9894 11.0293 16.4152 11.0074C16.8409 10.9856 17.2588 11.1277 17.583 11.4045C17.9072 11.6814 18.1129 12.0719 18.158 12.4958L18.1673 12.6665C18.1673 12.9317 18.2727 13.1861 18.4602 13.3736C18.6477 13.5611 18.9021 13.6665 19.1673 13.6665C19.4325 13.6665 19.6869 13.5611 19.8744 13.3736C20.0619 13.1861 20.1673 12.9317 20.1673 12.6665C20.1673 11.694 19.781 10.7614 19.0934 10.0738C18.4057 9.38615 17.4731 8.99984 16.5006 8.99984Z" fill="#33B1FF"/>
</svg>
