<svg width="25" height="24" viewBox="0 0 25 24" xmlns="http://www.w3.org/2000/svg">
<path d="M11.288 3.1031C11.783 2.0991 13.214 2.0991 13.709 3.1031L16.067 7.8801L21.34 8.6461C22.447 8.8071 22.889 10.1681 22.088 10.9491L18.272 14.6691L19.173 19.9191C19.363 21.0221 18.205 21.8631 17.214 21.3431L12.498 18.8631L7.78303 21.3431C6.79303 21.8631 5.63503 21.0231 5.82303 19.9191L6.72403 14.6691L2.90903 10.9491C2.10803 10.1691 2.55003 8.8071 3.65703 8.6461L8.93003 7.8801L11.288 3.1031ZM12.498 4.0391L10.24 8.6151C10.1431 8.81122 10 8.98086 9.82306 9.10942C9.64608 9.23798 9.4405 9.3216 9.22403 9.3531L4.17403 10.0871L7.82803 13.6491C8.14603 13.9591 8.29103 14.4061 8.21603 14.8441L7.35403 19.8741L11.87 17.4991C12.0638 17.3971 12.2795 17.3439 12.4985 17.3439C12.7175 17.3439 12.9332 17.3971 13.127 17.4991L17.643 19.8731L16.781 14.8441C16.744 14.6284 16.7599 14.4069 16.8275 14.1987C16.8951 13.9905 17.0123 13.8019 17.169 13.6491L20.823 10.0871L15.773 9.3531C15.5566 9.3216 15.351 9.23798 15.174 9.10942C14.997 8.98086 14.8539 8.81122 14.757 8.6151L12.498 4.0391Z"/>
</svg>
