<svg width="24" height="24" viewBox="0 0 24 24" fill="none" xmlns="http://www.w3.org/2000/svg">
<path d="M12.0003 3C13.8152 3.00005 15.5877 3.54882 17.0851 4.57427C18.5826 5.59972 19.735 7.05395 20.3912 8.7461C21.0474 10.4382 21.1766 12.2892 20.762 14.0562C20.3473 15.8231 19.4082 17.4234 18.0678 18.647C16.7274 19.8706 15.0483 20.6604 13.251 20.9126C11.4537 21.1649 9.62216 20.8679 7.99668 20.0606C6.3712 19.2533 5.02777 17.9734 4.1427 16.3889C3.25764 14.8045 2.8723 12.9894 3.03726 11.182C3.04612 11.0839 3.07422 10.9885 3.11995 10.9013C3.16568 10.814 3.22814 10.7367 3.30378 10.6736C3.37941 10.6105 3.46673 10.5629 3.56075 10.5335C3.65478 10.5042 3.75366 10.4936 3.85176 10.5025C3.94985 10.5114 4.04525 10.5395 4.13248 10.5852C4.21972 10.6309 4.2971 10.6934 4.3602 10.769C4.42329 10.8447 4.47088 10.932 4.50023 11.026C4.52958 11.12 4.54012 11.2189 4.53126 11.317C4.42838 12.4128 4.56923 13.5177 4.94371 14.5526C5.31818 15.5876 5.91701 16.5268 6.69726 17.303C7.39232 18.0012 8.2188 18.5549 9.12899 18.932C10.0392 19.3091 11.015 19.5021 12.0003 19.5C13.2787 19.4997 14.5359 19.1727 15.6524 18.5499C16.7689 17.9271 17.7077 17.0292 18.3796 15.9415C19.0514 14.8538 19.4341 13.6124 19.4913 12.3352C19.5484 11.0581 19.2781 9.78746 18.7061 8.64411C18.134 7.50077 17.2792 6.52264 16.2228 5.8026C15.1663 5.08257 13.9434 4.64454 12.6701 4.53011C11.3967 4.41568 10.1153 4.62864 8.9474 5.14878C7.77952 5.66893 6.764 6.47897 5.99726 7.502L8.75326 7.502C8.94328 7.50206 9.1262 7.57425 9.26505 7.70398C9.4039 7.8337 9.48833 8.0113 9.50128 8.20088C9.51424 8.39046 9.45474 8.5779 9.33482 8.7253C9.21491 8.87271 9.04351 8.9691 8.85526 8.995L8.75326 9.002H4.25026C4.06902 9.002 3.89392 8.93636 3.75733 8.81724C3.62074 8.69811 3.53191 8.53356 3.50726 8.354L3.50026 8.252L3.50026 3.752C3.50032 3.56198 3.5725 3.37906 3.70223 3.24021C3.83196 3.10136 4.00956 3.01693 4.19914 3.00398C4.38872 2.99103 4.57615 3.05052 4.72356 3.17044C4.87096 3.29035 4.96736 3.46175 4.99326 3.65L5.00026 3.752L4.99926 6.343C5.84236 5.29817 6.90886 4.45554 8.12039 3.87703C9.33193 3.29852 10.6577 2.99884 12.0003 3ZM11.2503 7C11.4315 7.00001 11.6066 7.06565 11.7432 7.18477C11.8798 7.30389 11.9686 7.46845 11.9933 7.648L12.0003 7.75L12.0003 12H14.2503C14.4403 12.0001 14.6232 12.0722 14.762 12.202C14.9009 12.3317 14.9853 12.5093 14.9983 12.6989C15.0112 12.8885 14.9517 13.0759 14.8318 13.2233C14.7119 13.3707 14.5405 13.4671 14.3523 13.493L14.2503 13.5H11.2503C11.069 13.5 10.8939 13.4344 10.7573 13.3152C10.6207 13.1961 10.5319 13.0316 10.5073 12.852L10.5003 12.75V7.75C10.5003 7.55109 10.5793 7.36033 10.7199 7.21967C10.8606 7.07902 11.0513 7 11.2503 7Z" fill="#8D8D8D"/>
</svg>
