<svg width="38" height="37" viewBox="0 0 38 37" fill="none" xmlns="http://www.w3.org/2000/svg">
<path d="M23.0787 12.95C23.7609 12.9496 24.425 13.1745 24.9721 13.5912C25.5193 14.0079 25.9201 14.5941 26.115 15.2625H24.881C23.5612 15.2625 22.2955 15.7985 21.3623 16.7526C20.429 17.7067 19.9048 19.0007 19.9048 20.35V20.4425C18.883 20.6557 17.9646 21.2234 17.3051 22.0493C16.6456 22.8753 16.2855 23.9088 16.2857 24.975V33.0928C14.4874 32.6718 12.882 31.6395 11.7322 30.1645C10.5824 28.6895 9.95617 26.8593 9.956 24.9732V16.1875C9.956 14.4004 11.3729 12.95 13.1227 12.95H23.0787ZM31.2143 15.2625C32.5303 15.2625 33.7927 15.7954 34.7253 16.7447C35.6579 17.694 36.1847 18.9824 36.1905 20.3278V16.1875C36.1905 15.3289 35.8568 14.5054 35.263 13.8982C34.6691 13.2911 33.8637 12.95 33.0238 12.95H26.9167C27.445 13.6031 27.816 14.393 27.9734 15.2625H31.2143ZM9.28467 12.95C8.65133 13.7307 8.24419 14.7075 8.16276 15.7805L8.14467 16.1875V24.9732C8.14467 26.5401 8.49209 28.0238 9.11095 29.3484C8.03841 29.6417 6.91425 29.679 5.82539 29.4572C4.73653 29.2354 3.71215 28.7606 2.83145 28.0694C1.95075 27.3783 1.23733 26.4893 0.746362 25.4712C0.255392 24.4531 2.22567e-05 23.3332 0 22.1981V16.1875C2.96845e-05 15.375 0.298881 14.5922 0.83723 13.9945C1.37558 13.3968 2.11407 13.028 2.9061 12.9611L3.16667 12.95H9.28467ZM18.0952 0C19.535 0 20.9158 0.584731 21.9338 1.62556C22.9519 2.66638 23.5238 4.07805 23.5238 5.55C23.5238 7.02195 22.9519 8.43362 21.9338 9.47444C20.9158 10.5153 19.535 11.1 18.0952 11.1C16.6555 11.1 15.2747 10.5153 14.2567 9.47444C13.2386 8.43362 12.6667 7.02195 12.6667 5.55C12.6667 4.07805 13.2386 2.66638 14.2567 1.62556C15.2747 0.584731 16.6555 0 18.0952 0ZM29.8571 1.85C31.0569 1.85 32.2076 2.33728 33.056 3.20463C33.9043 4.07199 34.381 5.24837 34.381 6.475C34.381 7.70163 33.9043 8.87801 33.056 9.74537C32.2076 10.6127 31.0569 11.1 29.8571 11.1C28.6574 11.1 27.5067 10.6127 26.6583 9.74537C25.8099 8.87801 25.3333 7.70163 25.3333 6.475C25.3333 5.24837 25.8099 4.07199 26.6583 3.20463C27.5067 2.33728 28.6574 1.85 29.8571 1.85ZM6.33333 1.85C7.53312 1.85 8.68377 2.33728 9.53215 3.20463C10.3805 4.07199 10.8571 5.24837 10.8571 6.475C10.8571 7.70163 10.3805 8.87801 9.53215 9.74537C8.68377 10.6127 7.53312 11.1 6.33333 11.1C5.13354 11.1 3.9829 10.6127 3.13452 9.74537C2.28614 8.87801 1.80952 7.70163 1.80952 6.475C1.80952 5.24837 2.28614 4.07199 3.13452 3.20463C3.9829 2.33728 5.13354 1.85 6.33333 1.85ZM21.7143 22.2H20.8095C20.0897 22.2 19.3993 22.4924 18.8902 23.0128C18.3812 23.5332 18.0952 24.239 18.0952 24.975V27.75H22.619V27.2875C22.619 26.9195 22.762 26.5666 23.0165 26.3064C23.2711 26.0462 23.6163 25.9 23.9762 25.9C24.3361 25.9 24.6813 26.0462 24.9358 26.3064C25.1903 26.5666 25.3333 26.9195 25.3333 27.2875V27.75H30.7619V27.2875C30.7619 26.9195 30.9049 26.5666 31.1594 26.3064C31.4139 26.0462 31.7591 25.9 32.119 25.9C32.479 25.9 32.8242 26.0462 33.0787 26.3064C33.3332 26.5666 33.4762 26.9195 33.4762 27.2875V27.75H38V24.975C38 24.239 37.714 23.5332 37.205 23.0128C36.696 22.4924 36.0056 22.2 35.2857 22.2H34.381V20.35C34.381 19.4914 34.0473 18.6679 33.4535 18.0607C32.8596 17.4536 32.0541 17.1125 31.2143 17.1125H24.881C24.0411 17.1125 23.2356 17.4536 22.6418 18.0607C22.0479 18.6679 21.7143 19.4914 21.7143 20.35V22.2ZM24.4286 20.35C24.4286 20.2273 24.4762 20.1097 24.5611 20.023C24.6459 19.9362 24.761 19.8875 24.881 19.8875H31.2143C31.3343 19.8875 31.4493 19.9362 31.5342 20.023C31.619 20.1097 31.6667 20.2273 31.6667 20.35V22.2H24.4286V20.35ZM18.0952 34.225V30.525H22.619V31.9125C22.619 32.2805 22.762 32.6334 23.0165 32.8936C23.2711 33.1538 23.6163 33.3 23.9762 33.3C24.3361 33.3 24.6813 33.1538 24.9358 32.8936C25.1903 32.6334 25.3333 32.2805 25.3333 31.9125V30.525H30.7619V31.9125C30.7619 32.2805 30.9049 32.6334 31.1594 32.8936C31.4139 33.1538 31.7591 33.3 32.119 33.3C32.479 33.3 32.8242 33.1538 33.0787 32.8936C33.3332 32.6334 33.4762 32.2805 33.4762 31.9125V30.525H38V34.225C38 34.961 37.714 35.6668 37.205 36.1872C36.696 36.7076 36.0056 37 35.2857 37H20.8095C20.0897 37 19.3993 36.7076 18.8902 36.1872C18.3812 35.6668 18.0952 34.961 18.0952 34.225Z" fill="white"/>
</svg>
