<svg width="58" height="57" viewBox="0 0 58 57" fill="none" xmlns="http://www.w3.org/2000/svg">
<rect x="0.5" width="57" height="57" rx="12" fill="#33B1FF"/>
<path d="M34.2715 34.75C36.123 34.75 37.6257 36.2527 37.6257 38.1042L37.6237 39.948C37.848 44.1455 34.7277 46.2673 29.1291 46.2673C23.5516 46.2673 20.3757 44.1781 20.3757 40.0208V38.1042C20.3757 36.2527 21.8783 34.75 23.7298 34.75H34.2715ZM13.1882 25.1667H21.5755C21.2411 26.4681 21.2539 27.8344 21.6128 29.1293C21.9717 30.4242 22.664 31.6022 23.6206 32.5458L23.9311 32.8353L23.7298 32.8333C22.5795 32.8329 21.4606 33.2088 20.5439 33.9037C19.6272 34.5986 18.9629 35.5743 18.6526 36.682L18.5874 36.6839C13.0099 36.6839 9.83398 34.5947 9.83398 30.4375V28.5208C9.83398 26.6693 11.3367 25.1667 13.1882 25.1667ZM44.8131 25.1667C46.6646 25.1667 48.1673 26.6693 48.1673 28.5208L48.1654 30.3647C48.3897 34.5622 45.2693 36.6839 39.6707 36.6839L39.3468 36.6801C39.0521 35.6361 38.4432 34.7081 37.6027 34.0223C36.7622 33.3364 35.731 32.926 34.6491 32.8468L34.2715 32.8333L34.0702 32.8353C35.1342 31.9007 35.9178 30.6891 36.3337 29.3355C36.7496 27.9818 36.7815 26.5393 36.4258 25.1686L44.8131 25.1667ZM29.0007 21.3333C29.7558 21.3333 30.5035 21.4821 31.2011 21.771C31.8987 22.06 32.5326 22.4835 33.0665 23.0175C33.6005 23.5514 34.024 24.1853 34.313 24.8829C34.6019 25.5805 34.7507 26.3282 34.7507 27.0833C34.7507 27.8384 34.6019 28.5861 34.313 29.2838C34.024 29.9814 33.6005 30.6153 33.0665 31.1492C32.5326 31.6831 31.8987 32.1067 31.2011 32.3956C30.5035 32.6846 29.7558 32.8333 29.0007 32.8333C27.4757 32.8333 26.0131 32.2275 24.9348 31.1492C23.8565 30.0709 23.2507 28.6083 23.2507 27.0833C23.2507 25.5583 23.8565 24.0958 24.9348 23.0175C26.0131 21.9391 27.4757 21.3333 29.0007 21.3333ZM18.459 11.75C19.984 11.75 21.4465 12.3558 22.5248 13.4341C23.6032 14.5125 24.209 15.975 24.209 17.5C24.209 19.025 23.6032 20.4875 22.5248 21.5659C21.4465 22.6442 19.984 23.25 18.459 23.25C16.934 23.25 15.4715 22.6442 14.3931 21.5659C13.3148 20.4875 12.709 19.025 12.709 17.5C12.709 15.975 13.3148 14.5125 14.3931 13.4341C15.4715 12.3558 16.934 11.75 18.459 11.75ZM39.5423 11.75C41.0673 11.75 42.5298 12.3558 43.6082 13.4341C44.6865 14.5125 45.2923 15.975 45.2923 17.5C45.2923 19.025 44.6865 20.4875 43.6082 21.5659C42.5298 22.6442 41.0673 23.25 39.5423 23.25C38.0173 23.25 36.5548 22.6442 35.4765 21.5659C34.3981 20.4875 33.7923 19.025 33.7923 17.5C33.7923 15.975 34.3981 14.5125 35.4765 13.4341C36.5548 12.3558 38.0173 11.75 39.5423 11.75Z" fill="white"/>
</svg>
