<svg width="40" height="36" viewBox="0 0 40 36" fill="none" xmlns="http://www.w3.org/2000/svg">
<path d="M25.2715 23.75C27.123 23.75 28.6257 25.2527 28.6257 27.1042L28.6237 28.948C28.848 33.1455 25.7277 35.2673 20.1291 35.2673C14.5516 35.2673 11.3757 33.1781 11.3757 29.0208V27.1042C11.3757 25.2527 12.8783 23.75 14.7298 23.75H25.2715ZM4.18815 14.1667H12.5755C12.2411 15.4681 12.2539 16.8344 12.6128 18.1293C12.9717 19.4242 13.664 20.6022 14.6206 21.5458L14.9311 21.8353L14.7298 21.8333C13.5795 21.8329 12.4606 22.2088 11.5439 22.9037C10.6272 23.5986 9.96295 24.5743 9.65257 25.682L9.5874 25.6839C4.0099 25.6839 0.833984 23.5947 0.833984 19.4375V17.5208C0.833984 15.6693 2.33665 14.1667 4.18815 14.1667ZM35.8131 14.1667C37.6646 14.1667 39.1673 15.6693 39.1673 17.5208L39.1654 19.3647C39.3897 23.5622 36.2693 25.6839 30.6707 25.6839L30.3468 25.6801C30.0521 24.6361 29.4432 23.7081 28.6027 23.0223C27.7622 22.3364 26.731 21.926 25.6491 21.8468L25.2715 21.8333L25.0702 21.8353C26.1342 20.9007 26.9178 19.6891 27.3337 18.3355C27.7496 16.9818 27.7815 15.5393 27.4258 14.1686L35.8131 14.1667ZM20.0007 10.3333C20.7558 10.3333 21.5035 10.4821 22.2011 10.771C22.8987 11.06 23.5326 11.4835 24.0665 12.0175C24.6005 12.5514 25.024 13.1853 25.313 13.8829C25.6019 14.5805 25.7507 15.3282 25.7507 16.0833C25.7507 16.8384 25.6019 17.5861 25.313 18.2838C25.024 18.9814 24.6005 19.6153 24.0665 20.1492C23.5326 20.6831 22.8987 21.1067 22.2011 21.3956C21.5035 21.6846 20.7558 21.8333 20.0007 21.8333C18.4757 21.8333 17.0131 21.2275 15.9348 20.1492C14.8565 19.0709 14.2507 17.6083 14.2507 16.0833C14.2507 14.5583 14.8565 13.0958 15.9348 12.0175C17.0131 10.9391 18.4757 10.3333 20.0007 10.3333ZM9.45898 0.75C10.984 0.75 12.4465 1.3558 13.5248 2.43414C14.6032 3.51247 15.209 4.97501 15.209 6.5C15.209 8.02499 14.6032 9.48753 13.5248 10.5659C12.4465 11.6442 10.984 12.25 9.45898 12.25C7.93399 12.25 6.47145 11.6442 5.39312 10.5659C4.31479 9.48753 3.70898 8.02499 3.70898 6.5C3.70898 4.97501 4.31479 3.51247 5.39312 2.43414C6.47145 1.3558 7.93399 0.75 9.45898 0.75ZM30.5423 0.75C32.0673 0.75 33.5298 1.3558 34.6082 2.43414C35.6865 3.51247 36.2923 4.97501 36.2923 6.5C36.2923 8.02499 35.6865 9.48753 34.6082 10.5659C33.5298 11.6442 32.0673 12.25 30.5423 12.25C29.0173 12.25 27.5548 11.6442 26.4765 10.5659C25.3981 9.48753 24.7923 8.02499 24.7923 6.5C24.7923 4.97501 25.3981 3.51247 26.4765 2.43414C27.5548 1.3558 29.0173 0.75 30.5423 0.75Z" fill="white"/>
</svg>
