<svg width="36" height="36" viewBox="0 0 36 36" fill="none" xmlns="http://www.w3.org/2000/svg">
<path d="M0 3.15C0 1.4112 1.4112 0 3.15 0H32.85C33.6854 0 34.4866 0.331874 35.0774 0.922614C35.6681 1.51335 36 2.31457 36 3.15C36 3.98543 35.6681 4.78665 35.0774 5.37739C34.4866 5.96813 33.6854 6.3 32.85 6.3H3.15C2.31457 6.3 1.51335 5.96813 0.922614 5.37739C0.331874 4.78665 0 3.98543 0 3.15ZM18 27.9C19.9096 27.9 21.7409 27.1414 23.0912 25.7912C24.4414 24.4409 25.2 22.6096 25.2 20.7C25.2 18.7904 24.4414 16.9591 23.0912 15.6088C21.7409 14.2586 19.9096 13.5 18 13.5C16.0904 13.5 14.2591 14.2586 12.9088 15.6088C11.5586 16.9591 10.8 18.7904 10.8 20.7C10.8 22.6096 11.5586 24.4409 12.9088 25.7912C14.2591 27.1414 16.0904 27.9 18 27.9ZM22.5 20.7C22.5 21.8935 22.0259 23.0381 21.182 23.882C20.3381 24.7259 19.1935 25.2 18 25.2C16.8065 25.2 15.6619 24.7259 14.818 23.882C13.9741 23.0381 13.5 21.8935 13.5 20.7C13.5 19.5065 13.9741 18.3619 14.818 17.518C15.6619 16.6741 16.8065 16.2 18 16.2C19.1935 16.2 20.3381 16.6741 21.182 17.518C22.0259 18.3619 22.5 19.5065 22.5 20.7ZM1.8 9H34.2V19.8C34.2 21.9274 33.781 24.034 32.9669 25.9995C32.1527 27.9649 30.9594 29.7508 29.4551 31.2551C27.9508 32.7594 26.1649 33.9527 24.1995 34.7668C22.234 35.581 20.1274 36 18 36C15.8726 36 13.766 35.581 11.8005 34.7668C9.83505 33.9527 8.04918 32.7594 6.54487 31.2551C5.04056 29.7508 3.84728 27.9649 3.03315 25.9995C2.21903 24.034 1.8 21.9274 1.8 19.8V9ZM18 30.6C20.6256 30.6 23.1437 29.557 25.0004 27.7004C26.857 25.8437 27.9 23.3256 27.9 20.7C27.9 18.0744 26.857 15.5563 25.0004 13.6996C23.1437 11.843 20.6256 10.8 18 10.8C15.3744 10.8 12.8563 11.843 10.9996 13.6996C9.14303 15.5563 8.1 18.0744 8.1 20.7C8.1 23.3256 9.14303 25.8437 10.9996 27.7004C12.8563 29.557 15.3744 30.6 18 30.6Z" fill="white"/>
</svg>
