<svg width="57" height="57" viewBox="0 0 57 57" fill="none" xmlns="http://www.w3.org/2000/svg">
<rect width="57" height="57" rx="12" fill="#42BE65"/>
<path d="M11 14.15C11 12.4112 12.4112 11 14.15 11H43.85C44.6854 11 45.4866 11.3319 46.0774 11.9226C46.6681 12.5134 47 13.3146 47 14.15C47 14.9854 46.6681 15.7866 46.0774 16.3774C45.4866 16.9681 44.6854 17.3 43.85 17.3H14.15C13.3146 17.3 12.5134 16.9681 11.9226 16.3774C11.3319 15.7866 11 14.9854 11 14.15ZM29 38.9C30.9096 38.9 32.7409 38.1414 34.0912 36.7912C35.4414 35.4409 36.2 33.6096 36.2 31.7C36.2 29.7904 35.4414 27.9591 34.0912 26.6088C32.7409 25.2586 30.9096 24.5 29 24.5C27.0904 24.5 25.2591 25.2586 23.9088 26.6088C22.5586 27.9591 21.8 29.7904 21.8 31.7C21.8 33.6096 22.5586 35.4409 23.9088 36.7912C25.2591 38.1414 27.0904 38.9 29 38.9ZM33.5 31.7C33.5 32.8935 33.0259 34.0381 32.182 34.882C31.3381 35.7259 30.1935 36.2 29 36.2C27.8065 36.2 26.6619 35.7259 25.818 34.882C24.9741 34.0381 24.5 32.8935 24.5 31.7C24.5 30.5065 24.9741 29.3619 25.818 28.518C26.6619 27.6741 27.8065 27.2 29 27.2C30.1935 27.2 31.3381 27.6741 32.182 28.518C33.0259 29.3619 33.5 30.5065 33.5 31.7ZM12.8 20H45.2V30.8C45.2 32.9274 44.781 35.034 43.9669 36.9995C43.1527 38.9649 41.9594 40.7508 40.4551 42.2551C38.9508 43.7594 37.1649 44.9527 35.1995 45.7668C33.234 46.581 31.1274 47 29 47C26.8726 47 24.766 46.581 22.8005 45.7668C20.8351 44.9527 19.0492 43.7594 17.5449 42.2551C16.0406 40.7508 14.8473 38.9649 14.0332 36.9995C13.219 35.034 12.8 32.9274 12.8 30.8V20ZM29 41.6C31.6256 41.6 34.1437 40.557 36.0004 38.7004C37.857 36.8437 38.9 34.3256 38.9 31.7C38.9 29.0744 37.857 26.5563 36.0004 24.6996C34.1437 22.843 31.6256 21.8 29 21.8C26.3744 21.8 23.8563 22.843 21.9996 24.6996C20.143 26.5563 19.1 29.0744 19.1 31.7C19.1 34.3256 20.143 36.8437 21.9996 38.7004C23.8563 40.557 26.3744 41.6 29 41.6Z" fill="white"/>
</svg>
