<svg width="40" height="36" viewBox="0 0 40 36" fill="none" xmlns="http://www.w3.org/2000/svg">
<path d="M14.7208 14.1667C12.8694 14.1667 11.3667 15.6693 11.3667 17.5208V26.6231C11.3667 28.9111 12.2756 31.1054 13.8934 32.7232C15.5113 34.3411 17.7056 35.25 19.9936 35.25C22.2816 35.25 24.4759 34.3411 26.0938 32.7232C27.7116 31.1054 28.6205 28.9111 28.6205 26.6231V17.5208C28.6205 15.6693 27.1198 14.1667 25.2663 14.1667H14.7208ZM29.3316 14.1667C30.0024 14.9755 30.4337 15.9875 30.5199 17.0992L30.5391 17.5208V26.6231C30.5391 28.2465 30.1711 29.7837 29.5156 31.156C30.6516 31.4599 31.8424 31.4985 32.9957 31.2687C34.149 31.039 35.2341 30.547 36.1669 29.8309C37.0998 29.1149 37.8554 28.1938 38.3755 27.1391C38.8955 26.0843 39.166 24.9241 39.166 23.7481V17.5208C39.166 16.6791 38.8494 15.8681 38.2792 15.2488C37.709 14.6296 36.9268 14.2474 36.0878 14.1782L35.8118 14.1667H29.3316ZM10.6556 14.1667H4.18685C2.33535 14.1667 0.832684 15.6693 0.832684 17.5208V23.75C0.832424 24.9252 1.10235 26.0848 1.6216 27.1391C2.14086 28.1934 2.89555 29.1142 3.82735 29.8304C4.75916 30.5465 5.84314 31.0389 6.99554 31.2694C8.14794 31.5 9.33792 31.4625 10.4735 31.1598C9.89852 29.9562 9.54585 28.6298 9.46726 27.2268L9.45002 26.6231V17.5208C9.45002 16.2462 9.90235 15.0771 10.6575 14.1667H10.6556ZM19.9993 0.75C18.4744 0.75 17.0118 1.3558 15.9335 2.43414C14.8552 3.51247 14.2493 4.97501 14.2493 6.5C14.2493 8.02499 14.8552 9.48753 15.9335 10.5659C17.0118 11.6442 18.4744 12.25 19.9993 12.25C21.5243 12.25 22.9869 11.6442 24.0652 10.5659C25.1435 9.48753 25.7493 8.02499 25.7493 6.5C25.7493 4.97501 25.1435 3.51247 24.0652 2.43414C22.9869 1.3558 21.5243 0.75 19.9993 0.75ZM7.54102 2.66667C6.27019 2.66667 5.05141 3.1715 4.1528 4.07011C3.25418 4.96873 2.74935 6.1875 2.74935 7.45833C2.74935 8.72916 3.25418 9.94794 4.1528 10.8466C5.05141 11.7452 6.27019 12.25 7.54102 12.25C8.81185 12.25 10.0306 11.7452 10.9292 10.8466C11.8278 9.94794 12.3327 8.72916 12.3327 7.45833C12.3327 6.1875 11.8278 4.96873 10.9292 4.07011C10.0306 3.1715 8.81185 2.66667 7.54102 2.66667ZM32.4577 2.66667C31.1869 2.66667 29.9681 3.1715 29.0695 4.07011C28.1709 4.96873 27.666 6.1875 27.666 7.45833C27.666 8.72916 28.1709 9.94794 29.0695 10.8466C29.9681 11.7452 31.1869 12.25 32.4577 12.25C33.7285 12.25 34.9473 11.7452 35.8459 10.8466C36.7445 9.94794 37.2493 8.72916 37.2493 7.45833C37.2493 6.1875 36.7445 4.96873 35.8459 4.07011C34.9473 3.1715 33.7285 2.66667 32.4577 2.66667Z" fill="white"/>
</svg>
