<svg width="58" height="57" viewBox="0 0 58 57" fill="none" xmlns="http://www.w3.org/2000/svg">
<rect x="0.5" width="57" height="57" rx="12" fill="#BE95FF"/>
<path d="M23.7208 25.1667C21.8694 25.1667 20.3667 26.6693 20.3667 28.5208V37.6231C20.3667 39.9111 21.2756 42.1054 22.8934 43.7232C24.5113 45.3411 26.7056 46.25 28.9936 46.25C31.2816 46.25 33.4759 45.3411 35.0938 43.7232C36.7116 42.1054 37.6205 39.9111 37.6205 37.6231V28.5208C37.6205 26.6693 36.1198 25.1667 34.2663 25.1667H23.7208ZM38.3316 25.1667C39.0024 25.9755 39.4337 26.9875 39.5199 28.0992L39.5391 28.5208V37.6231C39.5391 39.2465 39.1711 40.7837 38.5156 42.156C39.6516 42.4599 40.8424 42.4985 41.9957 42.2687C43.149 42.039 44.2341 41.547 45.1669 40.8309C46.0998 40.1149 46.8554 39.1938 47.3755 38.1391C47.8955 37.0843 48.166 35.9241 48.166 34.7481V28.5208C48.166 27.6791 47.8494 26.8681 47.2792 26.2488C46.709 25.6296 45.9268 25.2474 45.0878 25.1782L44.8118 25.1667H38.3316ZM19.6556 25.1667H13.1869C11.3354 25.1667 9.83268 26.6693 9.83268 28.5208V34.75C9.83242 35.9252 10.1023 37.0848 10.6216 38.1391C11.1409 39.1934 11.8955 40.1142 12.8274 40.8304C13.7592 41.5465 14.8431 42.0389 15.9955 42.2694C17.1479 42.5 18.3379 42.4625 19.4735 42.1598C18.8985 40.9562 18.5458 39.6298 18.4673 38.2268L18.45 37.6231V28.5208C18.45 27.2462 18.9023 26.0771 19.6575 25.1667H19.6556ZM28.9993 11.75C27.4744 11.75 26.0118 12.3558 24.9335 13.4341C23.8552 14.5125 23.2493 15.975 23.2493 17.5C23.2493 19.025 23.8552 20.4875 24.9335 21.5659C26.0118 22.6442 27.4744 23.25 28.9993 23.25C30.5243 23.25 31.9869 22.6442 33.0652 21.5659C34.1435 20.4875 34.7493 19.025 34.7493 17.5C34.7493 15.975 34.1435 14.5125 33.0652 13.4341C31.9869 12.3558 30.5243 11.75 28.9993 11.75ZM16.541 13.6667C15.2702 13.6667 14.0514 14.1715 13.1528 15.0701C12.2542 15.9687 11.7494 17.1875 11.7494 18.4583C11.7494 19.7292 12.2542 20.9479 13.1528 21.8466C14.0514 22.7452 15.2702 23.25 16.541 23.25C17.8118 23.25 19.0306 22.7452 19.9292 21.8466C20.8278 20.9479 21.3327 19.7292 21.3327 18.4583C21.3327 17.1875 20.8278 15.9687 19.9292 15.0701C19.0306 14.1715 17.8118 13.6667 16.541 13.6667ZM41.4577 13.6667C40.1869 13.6667 38.9681 14.1715 38.0695 15.0701C37.1709 15.9687 36.666 17.1875 36.666 18.4583C36.666 19.7292 37.1709 20.9479 38.0695 21.8466C38.9681 22.7452 40.1869 23.25 41.4577 23.25C42.7285 23.25 43.9473 22.7452 44.8459 21.8466C45.7445 20.9479 46.2493 19.7292 46.2493 18.4583C46.2493 17.1875 45.7445 15.9687 44.8459 15.0701C43.9473 14.1715 42.7285 13.6667 41.4577 13.6667Z" fill="white"/>
</svg>
