<svg width="29" height="36" viewBox="0 0 29 36" fill="none" xmlns="http://www.w3.org/2000/svg">
<path d="M14.4 10.8V0H3.6C2.64522 0 1.72955 0.379284 1.05442 1.05442C0.379285 1.72955 0 2.64522 0 3.6V32.4C0 33.3548 0.379285 34.2705 1.05442 34.9456C1.72955 35.6207 2.64522 36 3.6 36H25.2C26.1548 36 27.0705 35.6207 27.7456 34.9456C28.4207 34.2705 28.8 33.3548 28.8 32.4V14.4H18C17.0452 14.4 16.1295 14.0207 15.4544 13.3456C14.7793 12.6705 14.4 11.7548 14.4 10.8ZM5.4 18.45C5.4 18.092 5.54223 17.7486 5.79541 17.4954C6.04858 17.2422 6.39196 17.1 6.75 17.1C7.10804 17.1 7.45142 17.2422 7.70459 17.4954C7.95777 17.7486 8.1 18.092 8.1 18.45C8.1 18.808 7.95777 19.1514 7.70459 19.4046C7.45142 19.6578 7.10804 19.8 6.75 19.8C6.39196 19.8 6.04858 19.6578 5.79541 19.4046C5.54223 19.1514 5.4 18.808 5.4 18.45ZM5.4 23.85C5.4 23.492 5.54223 23.1486 5.79541 22.8954C6.04858 22.6422 6.39196 22.5 6.75 22.5C7.10804 22.5 7.45142 22.6422 7.70459 22.8954C7.95777 23.1486 8.1 23.492 8.1 23.85C8.1 24.208 7.95777 24.5514 7.70459 24.8046C7.45142 25.0578 7.10804 25.2 6.75 25.2C6.39196 25.2 6.04858 25.0578 5.79541 24.8046C5.54223 24.5514 5.4 24.208 5.4 23.85ZM5.4 29.25C5.4 28.892 5.54223 28.5486 5.79541 28.2954C6.04858 28.0422 6.39196 27.9 6.75 27.9C7.10804 27.9 7.45142 28.0422 7.70459 28.2954C7.95777 28.5486 8.1 28.892 8.1 29.25C8.1 29.608 7.95777 29.9514 7.70459 30.2046C7.45142 30.4578 7.10804 30.6 6.75 30.6C6.39196 30.6 6.04858 30.4578 5.79541 30.2046C5.54223 29.9514 5.4 29.608 5.4 29.25ZM10.8 18.45C10.8 18.092 10.9422 17.7486 11.1954 17.4954C11.4486 17.2422 11.792 17.1 12.15 17.1H22.05C22.408 17.1 22.7514 17.2422 23.0046 17.4954C23.2578 17.7486 23.4 18.092 23.4 18.45C23.4 18.808 23.2578 19.1514 23.0046 19.4046C22.7514 19.6578 22.408 19.8 22.05 19.8H12.15C11.792 19.8 11.4486 19.6578 11.1954 19.4046C10.9422 19.1514 10.8 18.808 10.8 18.45ZM10.8 23.85C10.8 23.492 10.9422 23.1486 11.1954 22.8954C11.4486 22.6422 11.792 22.5 12.15 22.5H22.05C22.408 22.5 22.7514 22.6422 23.0046 22.8954C23.2578 23.1486 23.4 23.492 23.4 23.85C23.4 24.208 23.2578 24.5514 23.0046 24.8046C22.7514 25.0578 22.408 25.2 22.05 25.2H12.15C11.792 25.2 11.4486 25.0578 11.1954 24.8046C10.9422 24.5514 10.8 24.208 10.8 23.85ZM10.8 29.25C10.8 28.892 10.9422 28.5486 11.1954 28.2954C11.4486 28.0422 11.792 27.9 12.15 27.9H22.05C22.408 27.9 22.7514 28.0422 23.0046 28.2954C23.2578 28.5486 23.4 28.892 23.4 29.25C23.4 29.608 23.2578 29.9514 23.0046 30.2046C22.7514 30.4578 22.408 30.6 22.05 30.6H12.15C11.792 30.6 11.4486 30.4578 11.1954 30.2046C10.9422 29.9514 10.8 29.608 10.8 29.25ZM17.1 10.8V0.9L27.9 11.7H18C17.7613 11.7 17.5324 11.6052 17.3636 11.4364C17.1948 11.2676 17.1 11.0387 17.1 10.8Z" fill="white"/>
</svg>
