<svg width="32" height="32" viewBox="0 0 32 32" fill="none" xmlns="http://www.w3.org/2000/svg">
<rect width="32" height="32" rx="8" fill="white"/>
<path d="M10 12C9.73478 12 9.48043 12.1054 9.29289 12.2929C9.10536 12.4804 9 12.7348 9 13C9 13.2652 9.10536 13.5196 9.29289 13.7071C9.48043 13.8946 9.73478 14 10 14H14C14.2652 14 14.5196 13.8946 14.7071 13.7071C14.8946 13.5196 15 13.2652 15 13C15 12.7348 14.8946 12.4804 14.7071 12.2929C14.5196 12.1054 14.2652 12 14 12H10ZM15 16C15 15.7348 15.1054 15.4804 15.2929 15.2929C15.4804 15.1054 15.7348 15 16 15H20C20.2652 15 20.5196 15.1054 20.7071 15.2929C20.8946 15.4804 21 15.7348 21 16C21 16.2652 20.8946 16.5196 20.7071 16.7071C20.5196 16.8946 20.2652 17 20 17H16C15.7348 17 15.4804 16.8946 15.2929 16.7071C15.1054 16.5196 15 16.2652 15 16ZM19 18C18.7348 18 18.4804 18.1054 18.2929 18.2929C18.1054 18.4804 18 18.7348 18 19C18 19.2652 18.1054 19.5196 18.2929 19.7071C18.4804 19.8946 18.7348 20 19 20H22C22.2652 20 22.5196 19.8946 22.7071 19.7071C22.8946 19.5196 23 19.2652 23 19C23 18.7348 22.8946 18.4804 22.7071 18.2929C22.5196 18.1054 22.2652 18 22 18H19ZM9.25 8C8.38805 8 7.5614 8.34241 6.9519 8.9519C6.34241 9.5614 6 10.388 6 11.25V20.75C6 21.612 6.34241 22.4386 6.9519 23.0481C7.5614 23.6576 8.38805 24 9.25 24H22.75C23.1768 24 23.5994 23.9159 23.9937 23.7526C24.388 23.5893 24.7463 23.3499 25.0481 23.0481C25.3499 22.7463 25.5893 22.388 25.7526 21.9937C25.9159 21.5994 26 21.1768 26 20.75V11.25C26 10.8232 25.9159 10.4006 25.7526 10.0063C25.5893 9.61197 25.3499 9.25369 25.0481 8.9519C24.7463 8.65011 24.388 8.41072 23.9937 8.24739C23.5994 8.08406 23.1768 8 22.75 8H9.25ZM12 9.5V11H13.5V9.5H18.5V14H20V9.5H22.75C23.716 9.5 24.5 10.284 24.5 11.25V20.75C24.5 21.2141 24.3156 21.6592 23.9874 21.9874C23.6592 22.3156 23.2141 22.5 22.75 22.5H20V21H19C18.827 21 18.66 20.978 18.5 20.937V22.5H13.5V15H12V22.5H9.25C8.78587 22.5 8.34075 22.3156 8.01256 21.9874C7.68437 21.6592 7.5 21.2141 7.5 20.75V11.25C7.5 10.284 8.284 9.5 9.25 9.5H12Z" fill="#8D8D8D"/>
</svg>
