<svg width="29" height="36" viewBox="0 0 29 36" fill="none" xmlns="http://www.w3.org/2000/svg">
<path d="M17.55 0H11.25C10.2538 3.00971e-05 9.29258 0.367213 8.55008 1.03135C7.80757 1.69549 7.33589 2.60998 7.2252 3.6H4.05C2.97587 3.6 1.94574 4.0267 1.18622 4.78622C0.426696 5.54574 0 6.57587 0 7.65V31.95C0 33.0241 0.426696 34.0543 1.18622 34.8138C1.94574 35.5733 2.97587 36 4.05 36H24.75C25.2819 36 25.8085 35.8952 26.2999 35.6917C26.7912 35.4882 27.2377 35.1899 27.6138 34.8138C27.9899 34.4377 28.2882 33.9912 28.4917 33.4999C28.6952 33.0085 28.8 32.4819 28.8 31.95V7.65C28.8 7.11815 28.6952 6.5915 28.4917 6.10013C28.2882 5.60876 27.9899 5.16229 27.6138 4.78622C27.2377 4.41014 26.7912 4.11182 26.2999 3.90829C25.8085 3.70476 25.2819 3.6 24.75 3.6H21.5748C21.4641 2.60998 20.9924 1.69549 20.2499 1.03135C19.5074 0.367213 18.5462 3.00971e-05 17.55 0ZM11.25 2.7H17.55C17.908 2.7 18.2514 2.84223 18.5046 3.09541C18.7578 3.34858 18.9 3.69196 18.9 4.05C18.9 4.40804 18.7578 4.75142 18.5046 5.00459C18.2514 5.25777 17.908 5.4 17.55 5.4H11.25C10.892 5.4 10.5486 5.25777 10.2954 5.00459C10.0422 4.75142 9.9 4.40804 9.9 4.05C9.9 3.69196 10.0422 3.34858 10.2954 3.09541C10.5486 2.84223 10.892 2.7 11.25 2.7ZM23.904 12.096C24.1568 12.3491 24.2988 12.6922 24.2988 13.05C24.2988 13.4078 24.1568 13.7509 23.904 14.004L20.304 17.604C20.0509 17.8568 19.7078 17.9988 19.35 17.9988C18.9922 17.9988 18.6491 17.8568 18.396 17.604L16.596 15.804C16.4634 15.6804 16.357 15.5314 16.2832 15.3658C16.2094 15.2002 16.1697 15.0214 16.1665 14.8401C16.1633 14.6589 16.1967 14.4788 16.2646 14.3107C16.3325 14.1426 16.4335 13.9899 16.5617 13.8617C16.6899 13.7335 16.8426 13.6325 17.0107 13.5646C17.1788 13.4967 17.3589 13.4633 17.5401 13.4665C17.7214 13.4697 17.9002 13.5094 18.0658 13.5832C18.2314 13.657 18.3804 13.7634 18.504 13.896L19.35 14.742L21.996 12.096C22.2491 11.8432 22.5922 11.7012 22.95 11.7012C23.3078 11.7012 23.6509 11.8432 23.904 12.096ZM23.904 23.904L20.304 27.504C20.0509 27.7568 19.7078 27.8988 19.35 27.8988C18.9922 27.8988 18.6491 27.7568 18.396 27.504L16.596 25.704C16.4634 25.5804 16.357 25.4314 16.2832 25.2658C16.2094 25.1002 16.1697 24.9214 16.1665 24.7401C16.1633 24.5589 16.1967 24.3788 16.2646 24.2107C16.3325 24.0426 16.4335 23.8899 16.5617 23.7617C16.6899 23.6335 16.8426 23.5325 17.0107 23.4646C17.1788 23.3967 17.3589 23.3633 17.5401 23.3665C17.7214 23.3697 17.9002 23.4094 18.0658 23.4832C18.2314 23.557 18.3804 23.6634 18.504 23.796L19.35 24.642L21.996 21.996C22.1196 21.8634 22.2686 21.757 22.4342 21.6832C22.5998 21.6094 22.7786 21.5697 22.9599 21.5665C23.1411 21.5633 23.3212 21.5967 23.4893 21.6646C23.6574 21.7325 23.8101 21.8335 23.9383 21.9617C24.0665 22.0899 24.1675 22.2426 24.2354 22.4107C24.3033 22.5788 24.3367 22.7589 24.3335 22.9401C24.3303 23.1214 24.2906 23.3002 24.2168 23.4658C24.143 23.6314 24.0366 23.7804 23.904 23.904ZM5.4 14.85C5.4 14.492 5.54223 14.1486 5.79541 13.8954C6.04858 13.6422 6.39196 13.5 6.75 13.5H13.05C13.408 13.5 13.7514 13.6422 14.0046 13.8954C14.2578 14.1486 14.4 14.492 14.4 14.85C14.4 15.208 14.2578 15.5514 14.0046 15.8046C13.7514 16.0578 13.408 16.2 13.05 16.2H6.75C6.39196 16.2 6.04858 16.0578 5.79541 15.8046C5.54223 15.5514 5.4 15.208 5.4 14.85ZM6.75 23.4H13.05C13.408 23.4 13.7514 23.5422 14.0046 23.7954C14.2578 24.0486 14.4 24.392 14.4 24.75C14.4 25.108 14.2578 25.4514 14.0046 25.7046C13.7514 25.9578 13.408 26.1 13.05 26.1H6.75C6.39196 26.1 6.04858 25.9578 5.79541 25.7046C5.54223 25.4514 5.4 25.108 5.4 24.75C5.4 24.392 5.54223 24.0486 5.79541 23.7954C6.04858 23.5422 6.39196 23.4 6.75 23.4Z" fill="white"/>
</svg>
