<svg width="30" height="36" viewBox="0 0 30 36" fill="none" xmlns="http://www.w3.org/2000/svg">
<path d="M0 4.5V31.5C0 32.6935 0.474106 33.8381 1.31802 34.682C2.16193 35.5259 3.30653 36 4.5 36H28.35C28.708 36 29.0514 35.8578 29.3046 35.6046C29.5578 35.3514 29.7 35.008 29.7 34.65C29.7 34.292 29.5578 33.9486 29.3046 33.6954C29.0514 33.4422 28.708 33.3 28.35 33.3H4.5C4.02261 33.3 3.56477 33.1104 3.22721 32.7728C2.88964 32.4352 2.7 31.9774 2.7 31.5H28.35C28.708 31.5 29.0514 31.3578 29.3046 31.1046C29.5578 30.8514 29.7 30.508 29.7 30.15V4.5C29.7 3.90905 29.5836 3.32389 29.3575 2.77792C29.1313 2.23196 28.7998 1.73588 28.382 1.31802C27.9641 0.900156 27.468 0.568688 26.9221 0.342542C26.3761 0.116396 25.7909 0 25.2 0H4.5C3.30653 0 2.16193 0.474106 1.31802 1.31802C0.474106 2.16193 0 3.30653 0 4.5ZM12.6 10.8324C12.5915 11.1848 12.4456 11.5199 12.1933 11.7661C11.9411 12.0123 11.6025 12.1501 11.25 12.15C9.9 12.15 9.9 10.7982 9.9 10.7982V10.782C9.90095 10.7014 9.90576 10.6209 9.9144 10.5408C9.99403 9.84548 10.2547 9.18323 10.6704 8.6202C11.4876 7.5168 12.9564 6.7086 15.3234 6.75C17.0334 6.7806 18.5508 7.497 19.5012 8.676C20.4678 9.8766 20.7936 11.502 20.1528 13.1022C19.5012 14.7312 18.027 15.3792 17.1792 15.75L17.0892 15.7914C16.5852 16.0128 16.3458 16.128 16.2018 16.2432L16.2 16.245V17.5482C16.2002 17.9062 16.0582 18.2497 15.8052 18.5031C15.5522 18.7564 15.2089 18.8989 14.8509 18.8991C14.4929 18.8993 14.1494 18.7573 13.896 18.5043C13.6427 18.2513 13.5002 17.908 13.5 17.55V16.2C13.5 15.2586 13.9536 14.5854 14.5134 14.1354C14.9634 13.7754 15.5304 13.527 15.9282 13.3506L15.9966 13.32C16.9722 12.8898 17.4366 12.6234 17.6472 12.0978C17.7708 11.8152 17.8131 11.5037 17.7692 11.1984C17.7253 10.8931 17.597 10.6061 17.3988 10.3698C16.9992 9.8748 16.2666 9.4662 15.2766 9.45C13.5936 9.4212 13.0356 9.963 12.8412 10.2276C12.7125 10.4024 12.6295 10.6066 12.6 10.8216V10.8324ZM16.65 22.5C16.65 22.9774 16.4604 23.4352 16.1228 23.7728C15.7852 24.1104 15.3274 24.3 14.85 24.3C14.3726 24.3 13.9148 24.1104 13.5772 23.7728C13.2396 23.4352 13.05 22.9774 13.05 22.5C13.05 22.0226 13.2396 21.5648 13.5772 21.2272C13.9148 20.8896 14.3726 20.7 14.85 20.7C15.3274 20.7 15.7852 20.8896 16.1228 21.2272C16.4604 21.5648 16.65 22.0226 16.65 22.5Z" fill="white"/>
</svg>
