<svg width="24" height="24" viewBox="0 0 24 24" fill="none" xmlns="http://www.w3.org/2000/svg">
<path d="M16.2497 5.18032C16.1292 5.33853 16.0765 5.53813 16.1031 5.73522C16.1297 5.93232 16.2335 6.11076 16.3917 6.23132C17.5448 7.10948 18.4083 8.31308 18.8707 9.68677C19.3331 11.0605 19.3732 12.5412 18.9858 13.9379C18.5984 15.3346 17.8013 16.5832 16.6974 17.5224C15.5935 18.4617 14.2334 19.0486 12.7927 19.2073L13.4697 18.5303C13.6039 18.3965 13.6825 18.2168 13.6896 18.0274C13.6967 17.8381 13.6319 17.653 13.5081 17.5095C13.3843 17.3659 13.2108 17.2746 13.0225 17.2538C12.8341 17.233 12.6448 17.2843 12.4927 17.3973L12.4087 17.4703L10.4087 19.4703C10.2817 19.5973 10.2045 19.7657 10.1911 19.9448C10.1777 20.1239 10.229 20.3018 10.3357 20.4463L10.4087 20.5303L12.4087 22.5303C12.5427 22.6633 12.7219 22.7408 12.9106 22.7475C13.0992 22.7541 13.2835 22.6894 13.4265 22.5662C13.5695 22.443 13.6608 22.2704 13.6822 22.0828C13.7035 21.8952 13.6534 21.7065 13.5417 21.5543L13.4697 21.4703L12.7197 20.7203C14.4828 20.5743 16.1602 19.8973 17.5307 18.7786C18.9012 17.6599 19.9004 16.1521 20.3965 14.4539C20.8926 12.7558 20.8623 10.9472 20.3097 9.26665C19.757 7.58608 18.7079 6.11252 17.3007 5.04032C17.1426 4.91969 16.9431 4.86678 16.746 4.89322C16.5489 4.91966 16.3704 5.02329 16.2497 5.18132V5.18032ZM10.5297 1.47032C10.3893 1.61094 10.3104 1.80157 10.3104 2.00032C10.3104 2.19907 10.3893 2.38969 10.5297 2.53032L11.2797 3.28032C9.54501 3.42321 7.89233 4.08022 6.533 5.16735C5.17367 6.25448 4.16945 7.72232 3.64875 9.38319C3.12805 11.0441 3.11453 12.8225 3.60991 14.4911C4.1053 16.1597 5.08707 17.6426 6.42972 18.7503C6.50569 18.8131 6.59328 18.8603 6.68749 18.8892C6.7817 18.9181 6.88068 18.9282 6.97878 18.9189C7.07689 18.9095 7.17219 18.881 7.25926 18.8348C7.34633 18.7886 7.42345 18.7258 7.48622 18.6498C7.54899 18.5738 7.59619 18.4863 7.62511 18.392C7.65403 18.2978 7.66411 18.1989 7.65478 18.1008C7.64545 18.0026 7.61688 17.9073 7.57072 17.8203C7.52455 17.7332 7.46169 17.6561 7.38572 17.5933C6.28643 16.6862 5.47885 15.4752 5.06389 14.1117C4.64893 12.7483 4.64499 11.2927 5.05257 9.927C5.46015 8.56129 6.26117 7.34597 7.35554 6.43293C8.4499 5.51988 9.78908 4.94959 11.2057 4.79332L10.5297 5.47032C10.4581 5.53954 10.401 5.62232 10.3618 5.71384C10.3225 5.80536 10.3019 5.90379 10.301 6.00337C10.3002 6.10296 10.3192 6.20171 10.357 6.29386C10.3947 6.38602 10.4505 6.46973 10.5209 6.54011C10.5914 6.6105 10.6751 6.66615 10.7673 6.70382C10.8595 6.74148 10.9583 6.76041 11.0579 6.7595C11.1575 6.75859 11.2559 6.73785 11.3474 6.69851C11.4388 6.65916 11.5216 6.60198 11.5907 6.53032L13.5907 4.53032C13.7312 4.38969 13.8101 4.19907 13.8101 4.00032C13.8101 3.80157 13.7312 3.61094 13.5907 3.47032L11.5907 1.47032C11.4501 1.32987 11.2595 1.25098 11.0607 1.25098C10.862 1.25098 10.6713 1.32987 10.5307 1.47032H10.5297Z" fill="#0072C3"/>
</svg>
