<svg width="32" height="32" viewBox="0 0 32 32" fill="none" xmlns="http://www.w3.org/2000/svg">
<path d="M15.9999 5.99994C13.959 6.00029 11.9671 6.62512 10.2916 7.7905C8.6161 8.95589 7.33731 10.606 6.62695 12.5193C5.91658 14.4327 5.80866 16.5175 6.31767 18.4939C6.82667 20.4704 7.92824 22.2437 9.47444 23.5759C11.0206 24.9081 12.9374 25.7352 14.9674 25.9463C16.9974 26.1574 19.0433 25.7423 20.8305 24.7568C22.6178 23.7712 24.0606 22.2624 24.9654 20.433C25.8701 18.6036 26.1935 16.5411 25.8919 14.5226C25.8026 13.9173 26.2453 13.3333 26.8573 13.3333C27.3506 13.3333 27.7853 13.6746 27.8599 14.1639C28.2928 16.9573 27.7257 19.8138 26.2585 22.23C24.7914 24.6461 22.5184 26.4668 19.8402 27.371C17.162 28.2753 14.2506 28.2051 11.6191 27.1728C8.98766 26.1405 6.80507 24.2123 5.4561 21.7283C4.10713 19.2442 3.67837 16.3637 4.2454 13.5944C4.81244 10.8251 6.33886 8.34496 8.55562 6.59101C10.7724 4.83707 13.5371 3.92197 16.3626 4.00702C19.188 4.09208 21.8927 5.17183 23.9999 7.05594V5.66661C23.9999 5.40139 24.1053 5.14704 24.2928 4.9595C24.4804 4.77196 24.7347 4.66661 24.9999 4.66661C25.2652 4.66661 25.5195 4.77196 25.7071 4.9595C25.8946 5.14704 25.9999 5.40139 25.9999 5.66661V9.66661C25.9999 9.93182 25.8946 10.1862 25.7071 10.3737C25.5195 10.5613 25.2652 10.6666 24.9999 10.6666H20.9999C20.7347 10.6666 20.4804 10.5613 20.2928 10.3737C20.1053 10.1862 19.9999 9.93182 19.9999 9.66661C19.9999 9.40139 20.1053 9.14704 20.2928 8.9595C20.4804 8.77196 20.7347 8.66661 20.9999 8.66661H22.7999C20.9525 6.94913 18.5224 5.99617 15.9999 5.99994Z" fill="#1192E8"/>
</svg>
