<svg width="24" height="24" viewBox="0 0 24 24" fill="none" xmlns="http://www.w3.org/2000/svg">
<path d="M10.7335 19.79C10.8785 19.9213 11.0691 19.9907 11.2646 19.9834C11.4601 19.9761 11.645 19.8927 11.7799 19.7511C11.9148 19.6094 11.989 19.4206 11.9866 19.225C11.9843 19.0294 11.9057 18.8425 11.7675 18.704L5.51648 12.75H20.2505C20.4494 12.75 20.6402 12.671 20.7808 12.5303C20.9215 12.3897 21.0005 12.1989 21.0005 12C21.0005 11.8011 20.9215 11.6103 20.7808 11.4697C20.6402 11.329 20.4494 11.25 20.2505 11.25H5.51648L11.7675 5.29502C11.9057 5.15658 11.9843 4.96962 11.9866 4.77402C11.989 4.57841 11.9148 4.38964 11.7799 4.24797C11.645 4.1063 11.4601 4.02293 11.2646 4.01566C11.0691 4.00838 10.8785 4.07777 10.7335 4.20902L3.31348 11.276C3.15108 11.4301 3.04539 11.6344 3.01348 11.856C2.99518 11.9515 2.99552 12.0497 3.01448 12.145C3.0466 12.3662 3.15228 12.5702 3.31448 12.724L10.7335 19.791V19.79Z" fill="#8D8D8D"/>
</svg>
