<svg width="16" height="16" viewBox="0 0 16 16" fill="none" xmlns="http://www.w3.org/2000/svg">
<path d="M8.00022 6.00333C8.70746 6.00333 9.38574 6.28429 9.88584 6.78438C10.3859 7.28448 10.6669 7.96276 10.6669 8.67C10.6669 9.37724 10.3859 10.0555 9.88584 10.5556C9.38574 11.0557 8.70746 11.3367 8.00022 11.3367C7.29297 11.3367 6.6147 11.0557 6.1146 10.5556C5.6145 10.0555 5.33355 9.37724 5.33355 8.67C5.33355 7.96276 5.6145 7.28448 6.1146 6.78438C6.6147 6.28429 7.29297 6.00333 8.00022 6.00333ZM8.00022 7.00333C7.55819 7.00333 7.13427 7.17893 6.82171 7.49149C6.50915 7.80405 6.33355 8.22797 6.33355 8.67C6.33355 9.11203 6.50915 9.53595 6.82171 9.84851C7.13427 10.1611 7.55819 10.3367 8.00022 10.3367C8.44225 10.3367 8.86617 10.1611 9.17873 9.84851C9.49129 9.53595 9.66689 9.11203 9.66689 8.67C9.66689 8.22797 9.49129 7.80405 9.17873 7.49149C8.86617 7.17893 8.44225 7.00333 8.00022 7.00333ZM8.00022 3.66667C11.0756 3.66667 13.7309 5.76667 14.4676 8.70933C14.4998 8.83796 14.4797 8.97414 14.4115 9.08792C14.3434 9.20169 14.2328 9.28373 14.1042 9.316C13.9756 9.34827 13.8394 9.32812 13.7256 9.25998C13.6119 9.19184 13.5298 9.0813 13.4976 8.95267C13.1894 7.72787 12.481 6.64107 11.4849 5.8647C10.4887 5.08832 9.26181 4.66685 7.99885 4.66716C6.73588 4.66747 5.50918 5.08953 4.5134 5.86639C3.51762 6.64324 2.80979 7.73039 2.50222 8.95533C2.46768 9.08129 2.38523 9.18873 2.2725 9.25468C2.15977 9.32062 2.02571 9.33985 1.89899 9.30823C1.77227 9.27662 1.66295 9.19668 1.59441 9.0855C1.52587 8.97433 1.50355 8.84075 1.53222 8.71333C1.89373 7.27164 2.72653 5.99204 3.89836 5.07772C5.07019 4.16339 6.51389 3.66676 8.00022 3.66667Z" fill="#262626"/>
</svg>
