<svg width="16" height="16" viewBox="0 0 16 16" fill="none" xmlns="http://www.w3.org/2000/svg">
<path d="M1.48017 1.48005C1.39549 1.56471 1.344 1.67694 1.33507 1.79635C1.32614 1.91575 1.36036 2.0344 1.4315 2.13071L1.48017 2.18671L4.1695 4.87671C2.85819 5.7958 1.92209 7.15675 1.53283 8.71005C1.50282 8.83792 1.52433 8.97246 1.5927 9.0846C1.66108 9.19675 1.77084 9.27748 1.89826 9.30936C2.02568 9.34123 2.16052 9.32169 2.27365 9.25496C2.38678 9.18822 2.4691 9.07965 2.50283 8.95271C2.84877 7.57405 3.70077 6.37601 4.8895 5.59671L6.09617 6.80338C5.61416 7.30704 5.34856 7.97943 5.35625 8.67653C5.36394 9.37363 5.64431 10.04 6.1373 10.5329C6.6303 11.0258 7.29672 11.3061 7.99382 11.3136C8.69091 11.3212 9.36326 11.0555 9.86683 10.5734L13.8128 14.52C13.9021 14.6095 14.0218 14.6619 14.1481 14.6666C14.2743 14.6714 14.3977 14.6281 14.4934 14.5456C14.5891 14.4631 14.65 14.3475 14.6639 14.2219C14.6777 14.0963 14.6435 13.9701 14.5682 13.8687L14.5195 13.8127L10.4442 9.73671L10.4448 9.73538L9.64483 8.93671L7.7315 7.02338H7.73283L5.81283 5.10538L5.8135 5.10405L5.05817 4.35071L2.18683 1.48005C2.09308 1.38641 1.966 1.33382 1.8335 1.33382C1.701 1.33382 1.57392 1.38641 1.48017 1.48005ZM6.80283 7.51005L9.1595 9.86738C8.84516 10.171 8.42416 10.339 7.98717 10.3352C7.55017 10.3314 7.13215 10.1561 6.82314 9.84708C6.51412 9.53807 6.33884 9.12004 6.33504 8.68305C6.33125 8.24606 6.49924 7.82505 6.80283 7.51071V7.51005ZM8.00017 3.66671C7.3335 3.66671 6.68683 3.76538 6.07417 3.95005L6.89883 4.77405C8.3252 4.49162 9.80556 4.7681 11.0338 5.54633C12.2621 6.32456 13.1443 7.54503 13.4982 8.95538C13.5327 9.08134 13.6152 9.18877 13.7279 9.25472C13.8406 9.32067 13.9747 9.33989 14.1014 9.30828C14.2281 9.27667 14.3374 9.19672 14.406 9.08555C14.4745 8.97438 14.4968 8.8408 14.4682 8.71338C14.1067 7.27169 13.2739 5.99209 12.102 5.07776C10.9302 4.16344 9.4865 3.6668 8.00017 3.66671ZM8.13017 6.00671L10.6642 8.54005C10.6314 7.87865 10.3539 7.25306 9.88556 6.78486C9.41724 6.31667 8.79158 6.03932 8.13017 6.00671Z" fill="#262626"/>
</svg>
