<svg width="36" height="35" viewBox="0 0 36 35" fill="none" xmlns="http://www.w3.org/2000/svg">
<path d="M22.0467 0C22.3729 1.37552e-05 22.688 0.118139 22.9338 0.332531C23.1797 0.546923 23.3395 0.843077 23.3839 1.16622L23.3965 1.3498V2.70319C23.3965 3.84242 23.0437 4.89886 22.4426 5.76993C23.6972 6.20166 24.7966 6.99357 25.6036 8.04668C26.4105 9.0998 26.8892 10.3674 26.9798 11.691H27.4405C28.5141 11.6863 29.542 11.2553 30.2979 10.4929C31.0539 9.73053 31.4762 8.69911 31.4719 7.62546L31.4611 4.95286C31.4597 4.59487 31.6005 4.25097 31.8526 3.99682C32.1047 3.74268 32.4475 3.59909 32.8055 3.59766C33.1635 3.59623 33.5074 3.73707 33.7615 3.98919C34.0157 4.24131 34.1592 4.58407 34.1607 4.94206L34.1733 7.61466C34.1807 9.34293 33.5248 11.0082 32.3408 12.2672C31.1568 13.5262 29.5349 14.283 27.8094 14.3816L27.4243 14.3924L26.996 14.3906V17.0938H34.6502C34.9767 17.0939 35.292 17.2123 35.5379 17.427C35.7837 17.6418 35.9434 17.9384 35.9874 18.2619L36 18.4454C36 18.7716 35.8819 19.0868 35.6675 19.3326C35.4531 19.5784 35.1569 19.7383 34.8338 19.7826L34.6502 19.7952H26.996V23.3929H27.4243L27.8094 23.4055C29.4727 23.5008 31.0419 24.2079 32.2151 25.3907C33.3883 26.5736 34.0826 28.1485 34.1643 29.8125L34.1733 30.1725L34.1607 32.8451C34.1575 33.186 34.0254 33.5132 33.7909 33.7607C33.5564 34.0083 33.2369 34.1579 32.8967 34.1796C32.5564 34.2012 32.2205 34.0933 31.9565 33.8774C31.6926 33.6616 31.5201 33.3539 31.4737 33.016L31.4611 32.8325L31.4737 30.1599C31.4777 29.1339 31.0922 28.1447 30.395 27.392C29.6978 26.6394 28.7409 26.1794 27.7176 26.1051L27.4405 26.0943H26.5838C26.0086 27.9209 24.8658 29.5164 23.3216 30.6491C21.7775 31.7817 19.9123 32.3924 17.9973 32.3924C16.0823 32.3924 14.2171 31.7817 12.673 30.6491C11.1288 29.5164 9.98603 27.9209 9.41079 26.0943H8.53072C7.45706 26.099 6.42925 26.53 5.67327 27.2924C4.91728 28.0548 4.49502 29.0862 4.49933 30.1599L4.50832 32.8325C4.50915 33.0097 4.47506 33.1854 4.40799 33.3495C4.34092 33.5136 4.24219 33.6628 4.11743 33.7888C3.99268 33.9147 3.84434 34.0148 3.68089 34.0834C3.51744 34.152 3.34208 34.1877 3.16483 34.1886C2.98757 34.1894 2.81188 34.1553 2.6478 34.0882C2.48372 34.0212 2.33445 33.9224 2.20853 33.7977C2.0826 33.6729 1.98248 33.5246 1.91389 33.3611C1.84529 33.1977 1.80956 33.0223 1.80873 32.8451L1.79973 30.1707C1.79228 28.4427 2.44792 26.7777 3.63155 25.5187C4.81518 24.2597 6.43662 23.5027 8.16178 23.4037L8.54872 23.3947L8.99865 23.3929V19.7934H1.3498C1.02362 19.7934 0.708478 19.6753 0.462655 19.4609C0.216833 19.2465 0.0569584 18.9504 0.0125981 18.6272L0 18.4454C1.37552e-05 18.1193 0.118139 17.8041 0.332531 17.5583C0.546922 17.3125 0.843077 17.1526 1.16623 17.1082L1.3498 17.0956L8.99865 17.0938V14.3906H8.54872L8.16178 14.3816C6.49883 14.2859 4.93003 13.5786 3.7572 12.3958C2.58437 11.213 1.89037 9.6383 1.80873 7.9746L1.79973 7.61286L1.81053 4.94026C1.80992 4.59684 1.94023 4.2661 2.17493 4.0154C2.40962 3.76469 2.73106 3.61287 3.07377 3.59084C3.41648 3.56882 3.7547 3.67826 4.01955 3.89686C4.28441 4.11547 4.45598 4.42681 4.49933 4.76749L4.51012 4.95106L4.49933 7.62546C4.4948 8.65172 4.88012 9.64141 5.57737 10.3945C6.27462 11.1475 7.23179 11.6077 8.25536 11.682L8.53252 11.6928H9.01485C9.10539 10.3688 9.58401 9.10071 10.3909 8.04703C11.1978 6.99334 12.2973 6.20071 13.552 5.76813C13 4.97379 12.674 4.04446 12.6089 3.07934L12.5981 2.70319V1.3498C12.5982 1.00781 12.7281 0.678605 12.9616 0.428711C13.1951 0.178817 13.5147 0.0268629 13.8559 0.00355286C14.1971 -0.0197572 14.5344 0.0873148 14.7997 0.303133C15.065 0.518952 15.2385 0.827426 15.2851 1.16622L15.2977 1.3498V2.70319C15.2976 3.39664 15.5643 4.06353 16.0426 4.56563C16.5209 5.06773 17.174 5.36653 17.8667 5.40009C18.5593 5.43364 19.2383 5.19938 19.7629 4.74586C20.2874 4.29235 20.6174 3.65436 20.6843 2.96416L20.6969 2.70319V1.3498C20.6969 0.991809 20.8391 0.648483 21.0922 0.395347C21.3454 0.142211 21.6887 0 22.0467 0Z" fill="white"/>
</svg>
