<svg width="58" height="57" viewBox="0 0 58 57" fill="none" xmlns="http://www.w3.org/2000/svg">
<rect x="0.5" width="57" height="57" rx="12" fill="#08BDBA"/>
<path d="M29.0003 11.75C32.4788 11.7501 35.8761 12.8018 38.7462 14.7671C41.6163 16.7325 43.8252 19.5196 45.0829 22.7628C46.3407 26.006 46.5885 29.5536 45.794 32.9402C44.9994 36.3267 43.1996 39.394 40.6307 41.7393C38.0618 44.0847 34.8438 45.5986 31.3991 46.0824C27.9544 46.5662 24.4439 45.9972 21.3283 44.4502C18.2127 42.9032 15.6376 40.4503 13.941 37.4136C12.2444 34.377 11.5055 30.8983 11.8212 27.4341C11.8439 27.1834 11.9157 26.9396 12.0326 26.7167C12.1494 26.4938 12.3091 26.296 12.5023 26.1348C12.6956 25.9735 12.9188 25.8519 13.1591 25.7769C13.3993 25.7019 13.652 25.675 13.9027 25.6976C14.1534 25.7203 14.3972 25.7921 14.6201 25.9089C14.8431 26.0258 15.0408 26.1854 15.2021 26.3787C15.3633 26.572 15.4849 26.7952 15.5599 27.0354C15.6349 27.2757 15.6619 27.5284 15.6392 27.7791C15.4549 29.7392 15.7067 31.7159 16.3764 33.5673C17.0461 35.4187 18.1172 37.0989 19.5128 38.4875C20.2316 39.2063 21.0308 39.8426 21.8933 40.3812C24.0295 41.7147 26.4978 42.4202 29.016 42.4169C31.5343 42.4135 34.0007 41.7015 36.1333 40.3623C38.2659 39.0231 39.9786 37.1107 41.0754 34.8439C42.1723 32.5771 42.609 30.0474 42.3357 27.544C42.0623 25.0407 41.09 22.6648 39.5299 20.688C37.9697 18.7113 35.8847 17.2136 33.5134 16.3661C31.142 15.5186 28.5801 15.3557 26.1204 15.8958C23.6608 16.436 21.4029 17.6574 19.6048 19.4205L22.2882 19.4224C22.7795 19.4191 23.2533 19.6045 23.6118 19.9405C23.9703 20.2764 24.1861 20.7373 24.2147 21.2277C24.2432 21.7182 24.0823 22.201 23.7652 22.5762C23.448 22.9515 22.9989 23.1906 22.5105 23.2443L22.2882 23.2558H14.6177C14.1482 23.2557 13.6951 23.0834 13.3443 22.7714C12.9935 22.4594 12.7693 22.0296 12.7144 21.5634L12.701 21.3391V13.6724C12.6976 13.1811 12.8831 12.7073 13.219 12.3488C13.555 11.9903 14.0158 11.7744 14.5063 11.7459C14.9968 11.7174 15.4795 11.8783 15.8548 12.1954C16.23 12.5126 16.4692 12.9617 16.5228 13.4501L16.5343 13.6744V17.0745C18.1438 15.3897 20.0785 14.0491 22.2213 13.1338C24.364 12.2186 26.6703 11.7478 29.0003 11.75ZM27.5628 19.4167C27.9102 19.4167 28.2458 19.5425 28.5076 19.7708C28.7694 19.9991 28.9397 20.3145 28.9869 20.6587L29.0003 20.8542V29H33.3128C33.677 29.0001 34.0276 29.1385 34.2938 29.3871C34.5599 29.6358 34.7217 29.9762 34.7465 30.3395C34.7714 30.7029 34.6573 31.0622 34.4275 31.3447C34.1976 31.6272 33.8691 31.812 33.5083 31.8616L33.3128 31.875H27.5628C27.2154 31.875 26.8798 31.7492 26.618 31.5209C26.3562 31.2926 26.186 30.9772 26.1387 30.633L26.1253 30.4375V20.8542C26.1253 20.4729 26.2768 20.1073 26.5464 19.8377C26.8159 19.5681 27.1816 19.4167 27.5628 19.4167Z" fill="white"/>
</svg>
