<svg width="36" height="36" viewBox="0 0 36 36" fill="none" xmlns="http://www.w3.org/2000/svg">
<path d="M18.0003 0.750023C21.4788 0.750085 24.8761 1.8018 27.7462 3.76714C30.6163 5.73249 32.8252 8.51963 34.0829 11.7628C35.3407 15.006 35.5885 18.5536 34.794 21.9402C33.9994 25.3267 32.1996 28.394 29.6307 30.7393C27.0618 33.0847 23.8438 34.5986 20.3991 35.0824C16.9544 35.5662 13.4439 34.9972 10.3283 33.4502C7.21273 31.9032 4.63765 29.4503 2.94101 26.4136C1.24438 23.377 0.505463 19.8983 0.821235 16.4341C0.843888 16.1834 0.915697 15.9396 1.03256 15.7167C1.14943 15.4938 1.30906 15.296 1.50234 15.1348C1.69563 14.9735 1.91878 14.8519 2.15906 14.7769C2.39934 14.7019 2.65204 14.675 2.90274 14.6976C3.15343 14.7203 3.39721 14.7921 3.62015 14.9089C3.84309 15.0258 4.04083 15.1854 4.20208 15.3787C4.36333 15.572 4.48493 15.7952 4.55993 16.0354C4.63494 16.2757 4.66189 16.5284 4.63924 16.7791C4.45494 18.7392 4.70667 20.7159 5.37638 22.5673C6.04608 24.4187 7.11717 26.0989 8.51282 27.4875C9.23157 28.2063 10.0308 28.8426 10.8933 29.3812C13.0295 30.7147 15.4978 31.4202 18.016 31.4169C20.5343 31.4135 23.0007 30.7015 25.1333 29.3623C27.2659 28.0231 28.9786 26.1107 30.0754 23.8439C31.1723 21.5771 31.609 19.0474 31.3357 16.544C31.0623 14.0407 30.09 11.6648 28.5299 9.68804C26.9697 7.71131 24.8847 6.21357 22.5134 5.36611C20.142 4.51864 17.5801 4.35566 15.1204 4.89581C12.6608 5.43596 10.4029 6.65743 8.60482 8.42052L11.2882 8.42244C11.7795 8.41908 12.2533 8.60453 12.6118 8.94049C12.9703 9.27645 13.1861 9.73725 13.2147 10.2277C13.2432 10.7182 13.0823 11.201 12.7652 11.5762C12.448 11.9515 11.9989 12.1906 11.5105 12.2443L11.2882 12.2558H3.61765C3.1482 12.2557 2.69509 12.0834 2.34427 11.7714C1.99345 11.4594 1.76933 11.0296 1.7144 10.5634L1.70099 10.3391V2.67244C1.69763 2.18113 1.88308 1.70729 2.21903 1.34877C2.55499 0.990256 3.0158 0.774448 3.50629 0.745913C3.99679 0.717379 4.47951 0.878298 4.85478 1.19544C5.23004 1.51258 5.46918 1.96172 5.52282 2.45011L5.53432 2.67436V6.07452C7.14379 4.38968 9.0785 3.04905 11.2213 2.13383C13.364 1.21861 15.6703 0.747834 18.0003 0.750023ZM16.5628 8.41669C16.9102 8.4167 17.2458 8.5425 17.5076 8.77083C17.7694 8.99915 17.9397 9.31454 17.9869 9.65869L18.0003 9.85419V18H22.3128C22.677 18.0001 23.0276 18.1385 23.2938 18.3871C23.5599 18.6358 23.7217 18.9762 23.7465 19.3395C23.7714 19.7029 23.6573 20.0622 23.4275 20.3447C23.1976 20.6272 22.8691 20.812 22.5083 20.8616L22.3128 20.875H16.5628C16.2154 20.875 15.8798 20.7492 15.618 20.5209C15.3562 20.2926 15.186 19.9772 15.1387 19.633L15.1253 19.4375V9.85419C15.1253 9.47294 15.2768 9.10731 15.5464 8.83772C15.8159 8.56814 16.1816 8.41669 16.5628 8.41669Z" fill="white"/>
</svg>
