<svg width="58" height="57" viewBox="0 0 58 57" fill="none" xmlns="http://www.w3.org/2000/svg">
<rect x="0.5" width="57" height="57" rx="12" fill="#08BDBA"/>
<path d="M21.8208 21.3392C23.6742 21.3392 25.175 22.8419 25.175 24.6934V42.9017C25.175 43.7913 24.8216 44.6445 24.1926 45.2735C23.5635 45.9025 22.7104 46.2559 21.8208 46.2559H13.1882C12.2986 46.2559 11.4454 45.9025 10.8164 45.2735C10.1874 44.6445 9.83398 43.7913 9.83398 42.9017V24.6934C9.83398 22.8419 11.3367 21.3392 13.1882 21.3392H21.8208ZM17.9837 39.538H17.0253C16.6441 39.538 16.2784 39.6894 16.0089 39.959C15.7393 40.2286 15.5878 40.5942 15.5878 40.9755C15.5878 41.3567 15.7393 41.7224 16.0089 41.992C16.2784 42.2615 16.6441 42.413 17.0253 42.413H17.9837C18.3649 42.413 18.7305 42.2615 19.0001 41.992C19.2697 41.7224 19.4212 41.3567 19.4212 40.9755C19.4212 40.5942 19.2697 40.2286 19.0001 39.959C18.7305 39.6894 18.3649 39.538 17.9837 39.538ZM46.7298 37.6252C47.094 37.6253 47.4446 37.7636 47.7108 38.0123C47.9769 38.2609 48.1387 38.6013 48.1635 38.9647C48.1884 39.328 48.0743 39.6873 47.8445 39.9698C47.6146 40.2523 47.2861 40.4371 46.9253 40.4867L46.7298 40.5002H27.084V37.6252H46.7298ZM40.9798 15.5835C42.8313 15.5835 44.334 17.0862 44.334 18.9377V33.3127C44.334 34.2022 43.9806 35.0554 43.3516 35.6844C42.7225 36.3134 41.8694 36.6668 40.9798 36.6668H27.084V23.2502C27.0838 22.2834 26.7183 21.3524 26.0608 20.6437C25.4033 19.9349 24.5022 19.5008 23.5381 19.4283L23.2507 19.4168H13.6673V18.9377C13.6673 17.0862 15.17 15.5835 17.0215 15.5835H40.9798Z" fill="white"/>
</svg>
