<svg width="32" height="32" viewBox="0 0 32 32" xmlns="http://www.w3.org/2000/svg">
<g clip-path="url(#clip0_606_38410)">
<path d="M18.5301 7.59011C18.3895 7.44966 18.1989 7.37077 18.0001 7.37077C17.8014 7.37077 17.6107 7.44966 17.4701 7.59011L7.59011 17.4701C7.44966 17.6107 7.37077 17.8014 7.37077 18.0001C7.37077 18.1989 7.44966 18.3895 7.59011 18.5301L8.65911 19.5981C9.1818 19.3061 9.78551 19.1926 10.3786 19.275C10.9716 19.3573 11.5216 19.6309 11.9449 20.0543C12.3683 20.4777 12.6419 21.0276 12.7243 21.6207C12.8066 22.2137 12.6931 22.8174 12.4011 23.3401L13.4701 24.4101C13.5398 24.4798 13.6225 24.5351 13.7135 24.5728C13.8045 24.6105 13.9021 24.63 14.0006 24.63C14.0991 24.63 14.1967 24.6105 14.2877 24.5728C14.3788 24.5351 14.4615 24.4798 14.5311 24.4101L24.4101 14.5311C24.5506 14.3905 24.6295 14.1999 24.6295 14.0011C24.6295 13.8024 24.5506 13.6117 24.4101 13.4711L23.3401 12.4001C22.8174 12.6921 22.2137 12.8056 21.6207 12.7233C21.0276 12.6409 20.4777 12.3673 20.0543 11.9439C19.6309 11.5206 19.3573 10.9706 19.275 10.3776C19.1926 9.78451 19.3061 9.1808 19.5981 8.65811L18.5301 7.59011ZM16.4101 6.53011C16.619 6.32118 16.8671 6.15544 17.1401 6.04237C17.4131 5.92929 17.7056 5.87109 18.0011 5.87109C18.2966 5.87109 18.5892 5.92929 18.8622 6.04237C19.1351 6.15544 19.3832 6.32118 19.5921 6.53011L20.7631 7.70211C21.2741 8.21211 21.1831 8.92911 20.9251 9.36211C20.7833 9.60097 20.7251 9.88026 20.7596 10.1559C20.7942 10.4315 20.9196 10.6878 21.116 10.8842C21.3125 11.0806 21.5687 11.206 21.8443 11.2406C22.12 11.2752 22.3993 11.2169 22.6381 11.0751C23.0711 10.8181 23.7881 10.7261 24.2981 11.2371L25.4701 12.4101C25.679 12.619 25.8448 12.8671 25.9579 13.1401C26.0709 13.4131 26.1291 13.7056 26.1291 14.0011C26.1291 14.2966 26.0709 14.5892 25.9579 14.8622C25.8448 15.1351 25.679 15.3832 25.4701 15.5921L15.5921 25.4701C15.3832 25.679 15.1351 25.8448 14.8622 25.9579C14.5892 26.0709 14.2966 26.1291 14.0011 26.1291C13.7056 26.1291 13.4131 26.0709 13.1401 25.9579C12.8671 25.8448 12.619 25.679 12.4101 25.4701L11.2381 24.2991C10.7281 23.7891 10.8181 23.0711 11.0761 22.6391C11.2179 22.4003 11.2762 22.121 11.2416 21.8453C11.207 21.5697 11.0816 21.3135 10.8852 21.117C10.6888 20.9206 10.4325 20.7952 10.1569 20.7606C9.88126 20.7261 9.60197 20.7843 9.36311 20.9261C8.93011 21.1831 8.21311 21.2741 7.70311 20.7631L6.53011 19.5911C6.32118 19.3822 6.15544 19.1341 6.04237 18.8612C5.92929 18.5882 5.87109 18.2956 5.87109 18.0001C5.87109 17.7046 5.92929 17.4121 6.04237 17.1391C6.15544 16.8661 6.32118 16.618 6.53011 16.4091L16.4101 6.53011Z"/>
</g>
<defs>
<clipPath id="clip0_606_38410">
<rect width="24" height="24" fill="white" transform="translate(4 4)"/>
</clipPath>
</defs>
</svg>
