<svg width="32" height="32" viewBox="0 0 32 32" fill="none" xmlns="http://www.w3.org/2000/svg">
<path d="M7.10526 17.5779L16.5789 17.5789C17.1101 17.5788 17.6216 17.7794 18.0111 18.1405C18.4006 18.5017 18.6391 18.9967 18.6789 19.5263L18.6842 19.6842V21.2632C18.6832 24.9474 14.7726 26 11.8421 26C8.97684 26 5.17368 24.9937 5.00526 21.5053L5 21.2632V19.6832C5 18.5737 5.85895 17.6642 6.94737 17.5832L7.10526 17.5789V17.5779ZM18.9158 17.5789H23.9474C25.0568 17.5789 25.9663 18.4379 26.0463 19.5263L26.0526 19.6842V20.7368C26.0516 23.96 23.0442 24.9474 20.7895 24.9474C20.0258 24.9492 19.2662 24.8349 18.5368 24.6084C18.8905 24.2021 19.1758 23.7379 19.3811 23.2116C19.8434 23.3149 20.3157 23.3675 20.7895 23.3684L21.0705 23.3621C22.1074 23.3168 24.3189 22.98 24.4663 20.9526L24.4737 20.7368V19.6842C24.4735 19.5611 24.4303 19.4419 24.3515 19.3473C24.2726 19.2527 24.1632 19.1887 24.0421 19.1663L23.9474 19.1579H19.6832C19.5961 18.6426 19.3807 18.1575 19.0568 17.7474L18.9158 17.5789H23.9474H18.9158V17.5789ZM7.10526 19.1568L7 19.1674C6.89897 19.1884 6.80614 19.2381 6.73263 19.3105C6.66019 19.3836 6.61047 19.4761 6.58947 19.5768L6.57895 19.6832V21.2632C6.57895 22.3253 7.05263 23.0758 8.07053 23.6232C8.94 24.0916 10.1789 24.3747 11.5084 24.4158L11.8421 24.4211L12.1758 24.4158C13.5053 24.3747 14.7432 24.0916 15.6137 23.6232C16.5674 23.1095 17.0442 22.4179 17.1 21.4579L17.1053 21.2621V19.6842C17.1051 19.5611 17.0619 19.4419 16.983 19.3473C16.9042 19.2527 16.7948 19.1887 16.6737 19.1663L16.5789 19.1579L7.10526 19.1568ZM11.8421 6C13.0984 6 14.3032 6.49906 15.1916 7.38739C16.0799 8.27572 16.5789 9.48055 16.5789 10.7368C16.5789 11.9931 16.0799 13.198 15.1916 14.0863C14.3032 14.9746 13.0984 15.4737 11.8421 15.4737C10.5858 15.4737 9.38098 14.9746 8.49265 14.0863C7.60432 13.198 7.10526 11.9931 7.10526 10.7368C7.10526 9.48055 7.60432 8.27572 8.49265 7.38739C9.38098 6.49906 10.5858 6 11.8421 6V6ZM21.3158 8.10526C22.2929 8.10526 23.23 8.49342 23.9209 9.18434C24.6118 9.87527 25 10.8124 25 11.7895C25 12.7666 24.6118 13.7037 23.9209 14.3946C23.23 15.0855 22.2929 15.4737 21.3158 15.4737C20.3387 15.4737 19.4016 15.0855 18.7107 14.3946C18.0197 13.7037 17.6316 12.7666 17.6316 11.7895C17.6316 10.8124 18.0197 9.87527 18.7107 9.18434C19.4016 8.49342 20.3387 8.10526 21.3158 8.10526ZM11.8421 7.57895C10.1011 7.57895 8.68421 8.99579 8.68421 10.7368C8.68421 12.4779 10.1011 13.8947 11.8421 13.8947C13.5832 13.8947 15 12.4779 15 10.7368C15 8.99579 13.5832 7.57895 11.8421 7.57895ZM21.3158 9.68421C20.1547 9.68421 19.2105 10.6284 19.2105 11.7895C19.2105 12.9505 20.1547 13.8947 21.3158 13.8947C22.4768 13.8947 23.4211 12.9505 23.4211 11.7895C23.4211 10.6284 22.4768 9.68421 21.3158 9.68421Z" fill="#8D8D8D"/>
</svg>
